<svg xmlns="http://www.w3.org/2000/svg" width="1920" height="1080" fill="none" viewBox="0 0 1920 1080">
    <g clip-path="url(#bg8f4c3e2a-a)">
        <path fill="#fff" d="M0 0h1920v1080H0z" />
        <path fill="url(#bg8f4c3e2a-b)" d="M0 0h1920v1080H0V0Z" />
        <path fill="url(#bg8f4c3e2a-c)" d="M0 0h1920v1080H0V0Z" />
        <path fill="url(#bg8f4c3e2a-d)" fill-opacity=".8" d="M0 0h1920v1080H0V0Z" />
        <path fill="url(#bg8f4c3e2a-e)" d="M0 0h1920v1080H0V0Z" />
        <path fill="url(#bg8f4c3e2a-f)" d="M0 0h1920v1080H0V0Z" />
        <path fill="url(#bg8f4c3e2a-g)" d="M0 0h1920v1080H0V0Z" />
        <path fill="url(#bg8f4c3e2a-h)" d="M0 0h1920v1080H0V0Z" />
        <path fill="url(#bg8f4c3e2a-i)" fill-opacity=".9" d="M0 0h1920v1080H0V0Z" />
        <path fill="url(#bg8f4c3e2a-j)" d="M0 0h1920v1080H0V0Z" />
        <path fill="url(#bg8f4c3e2a-k)" d="M0 0h1920v1080H0V0Z" />
        <path fill="url(#bg8f4c3e2a-l)" fill-opacity=".6" d="M0 0h1920v1080H0V0Z" />
        <path fill="url(#bg8f4c3e2a-m)" d="M0 0h1920v1080H0V0Z" />
        <path fill="url(#bg8f4c3e2a-n)" d="M0 0h1920v1080H0V0Z" />
        <path
            fill="url(#bg8f4c3e2a-o)"
            d="M1391.06 822.792c99.03 68.126 104.88 62.797 95.42 51.617l-40.73-39.973-68.86-56.788c-266.91-188.806-794.457-598.122-791.367-581.613 3.863 20.636 681.747 541.6 805.537 626.757Z"
        />
        <path
            fill="url(#bg8f4c3e2a-p)"
            d="M1391.06 822.792c99.03 68.126 104.88 62.797 95.42 51.617l-40.73-39.973-68.86-56.788c-266.91-188.806-794.457-598.122-791.367-581.613 3.863 20.636 681.747 541.6 805.537 626.757Z"
        />
        <path
            fill="url(#bg8f4c3e2a-q)"
            d="M1391.06 822.792c99.03 68.126 104.88 62.797 95.42 51.617l-40.73-39.973-68.86-56.788c-266.91-188.806-794.457-598.122-791.367-581.613 3.863 20.636 681.747 541.6 805.537 626.757Z"
        />
        <path
            fill="url(#bg8f4c3e2a-r)"
            d="M1391.06 822.792c99.03 68.126 104.88 62.797 95.42 51.617l-40.73-39.973-68.86-56.788c-266.91-188.806-794.457-598.122-791.367-581.613 3.863 20.636 681.747 541.6 805.537 626.757Z"
        />
        <path fill="url(#bg8f4c3e2a-s)" d="M-100.834 236.015c-7.376 47.944 403.637 395.954 610.066 563.965l27.83-80.077c-4.61-4.098-58.087-50.096-235.114-201.307-177.026-151.21-346.95-246.725-402.782-282.581Z" />
        <path fill="url(#bg8f4c3e2a-t)" d="M-100.834 236.015c-7.376 47.944 403.637 395.954 610.066 563.965l27.83-80.077c-4.61-4.098-58.087-50.096-235.114-201.307-177.026-151.21-346.95-246.725-402.782-282.581Z" />
        <path fill="url(#bg8f4c3e2a-u)" d="M-100.834 236.015c-7.376 47.944 403.637 395.954 610.066 563.965l27.83-80.077c-4.61-4.098-58.087-50.096-235.114-201.307-177.026-151.21-346.95-246.725-402.782-282.581Z" />
        <path fill="url(#bg8f4c3e2a-v)" d="M-100.834 236.015c-7.376 47.944 403.637 395.954 610.066 563.965l27.83-80.077c-4.61-4.098-58.087-50.096-235.114-201.307-177.026-151.21-346.95-246.725-402.782-282.581Z" />
        <path fill="url(#bg8f4c3e2a-w)" d="M-100.834 236.015c-7.376 47.944 403.637 395.954 610.066 563.965l27.83-80.077c-4.61-4.098-58.087-50.096-235.114-201.307-177.026-151.21-346.95-246.725-402.782-282.581Z" />
        <path
            fill="url(#bg8f4c3e2a-x)"
            d="M1601.71 594.397c49.59 119.988 31.28 240.631-43.75 271.636-75.03 31.006-177.41-43.804-226.99-163.792-51.43-124.456-33.11-239.831 41.92-270.836 75.02-31.006 179.24 43.005 228.82 162.992Z"
        />
        <path
            fill="url(#bg8f4c3e2a-y)"
            d="M1601.71 594.397c49.59 119.988 31.28 240.631-43.75 271.636-75.03 31.006-177.41-43.804-226.99-163.792-51.43-124.456-33.11-239.831 41.92-270.836 75.02-31.006 179.24 43.005 228.82 162.992Z"
        />
        <path
            fill="url(#bg8f4c3e2a-z)"
            fill-opacity=".8"
            d="M1601.71 594.397c49.59 119.988 31.28 240.631-43.75 271.636-75.03 31.006-177.41-43.804-226.99-163.792-51.43-124.456-33.11-239.831 41.92-270.836 75.02-31.006 179.24 43.005 228.82 162.992Z"
        />
        <path
            fill="url(#bg8f4c3e2a-A)"
            d="M1601.71 594.397c49.59 119.988 31.28 240.631-43.75 271.636-75.03 31.006-177.41-43.804-226.99-163.792-51.43-124.456-33.11-239.831 41.92-270.836 75.02-31.006 179.24 43.005 228.82 162.992Z"
        />
        <path
            fill="url(#bg8f4c3e2a-B)"
            d="M1601.71 594.397c49.59 119.988 31.28 240.631-43.75 271.636-75.03 31.006-177.41-43.804-226.99-163.792-51.43-124.456-33.11-239.831 41.92-270.836 75.02-31.006 179.24 43.005 228.82 162.992Z"
        />
        <path
            fill="url(#bg8f4c3e2a-C)"
            d="M1586.6 600.139c47.63 115.262 31.89 230.39-37.81 259.191-69.69 28.801-166.1-43.862-213.73-159.123-49.4-119.554-33.6-229.646 36.1-258.447 69.69-28.801 167.81 43.118 215.44 158.379Z"
        />
        <path
            fill="url(#bg8f4c3e2a-D)"
            d="M1586.6 600.139c47.63 115.262 31.89 230.39-37.81 259.191-69.69 28.801-166.1-43.862-213.73-159.123-49.4-119.554-33.6-229.646 36.1-258.447 69.69-28.801 167.81 43.118 215.44 158.379Z"
        />
        <path
            fill="url(#bg8f4c3e2a-E)"
            d="M1265.2 126.391 852.893 311.214c-23.008 10.411-41.027 42.6-41.027 67.958l3.224 272.585c0 109.687 29.428 201.492 101.836 233.815 111.194 49.638 266.904-58.469 347.774-241.463 33-74.659 47.61-150.79 47.61-216.953l4.47-265.299c.51-30.239-24.14-47.883-51.58-35.466Z"
        />
        <path
            fill="url(#bg8f4c3e2a-F)"
            d="M1265.2 126.391 852.893 311.214c-23.008 10.411-41.027 42.6-41.027 67.958l3.224 272.585c0 109.687 29.428 201.492 101.836 233.815 111.194 49.638 266.904-58.469 347.774-241.463 33-74.659 47.61-150.79 47.61-216.953l4.47-265.299c.51-30.239-24.14-47.883-51.58-35.466Z"
        />
        <path
            fill="url(#bg8f4c3e2a-G)"
            d="M1265.2 126.391 852.893 311.214c-23.008 10.411-41.027 42.6-41.027 67.958l3.224 272.585c0 109.687 29.428 201.492 101.836 233.815 111.194 49.638 266.904-58.469 347.774-241.463 33-74.659 47.61-150.79 47.61-216.953l4.47-265.299c.51-30.239-24.14-47.883-51.58-35.466Z"
        />
        <path
            fill="url(#bg8f4c3e2a-H)"
            d="M1265.2 126.391 852.893 311.214c-23.008 10.411-41.027 42.6-41.027 67.958l3.224 272.585c0 109.687 29.428 201.492 101.836 233.815 111.194 49.638 266.904-58.469 347.774-241.463 33-74.659 47.61-150.79 47.61-216.953l4.47-265.299c.51-30.239-24.14-47.883-51.58-35.466Z"
        />
        <path
            fill="url(#bg8f4c3e2a-I)"
            d="M1265.2 126.391 852.893 311.214c-23.008 10.411-41.027 42.6-41.027 67.958l3.224 272.585c0 109.687 29.428 201.492 101.836 233.815 111.194 49.638 266.904-58.469 347.774-241.463 33-74.659 47.61-150.79 47.61-216.953l4.47-265.299c.51-30.239-24.14-47.883-51.58-35.466Z"
        />
        <path
            fill="url(#bg8f4c3e2a-J)"
            d="M1267.77 139.932 864.6 318.914c-21.978 10.045-39.192 41.104-39.192 65.571l3.08 263.011c0 105.835 28.112 194.414 97.283 225.602C1032 920.993 1180.74 816.683 1258 640.117c31.52-72.037 45.49-145.493 45.49-209.333l8.13-263.768c.5-29.177-17.63-39.064-43.85-27.084Z"
        />
        <path
            fill="url(#bg8f4c3e2a-K)"
            d="M1267.77 139.932 864.6 318.914c-21.978 10.045-39.192 41.104-39.192 65.571l3.08 263.011c0 105.835 28.112 194.414 97.283 225.602C1032 920.993 1180.74 816.683 1258 640.117c31.52-72.037 45.49-145.493 45.49-209.333l8.13-263.768c.5-29.177-17.63-39.064-43.85-27.084Z"
        />
        <path
            fill="url(#bg8f4c3e2a-L)"
            fill-opacity=".8"
            d="M1267.77 139.932 864.6 318.914c-21.978 10.045-39.192 41.104-39.192 65.571l3.08 263.011c0 105.835 28.112 194.414 97.283 225.602C1032 920.993 1180.74 816.683 1258 640.117c31.52-72.037 45.49-145.493 45.49-209.333l8.13-263.768c.5-29.177-17.63-39.064-43.85-27.084Z"
        />
        <path
            fill="url(#bg8f4c3e2a-M)"
            fill-rule="evenodd"
            d="m513.266 803.293 277.231 169.796a10.318 10.318 0 0 0 10.569.124l9.461-5.494a10.316 10.316 0 0 0 5.136-9.045l-4.336-364.89a15.476 15.476 0 0 0-7.859-13.288L512.094 415.752a15.478 15.478 0 0 0-13.477-.852l-.558.228a10.32 10.32 0 0 0-6.403 9.951l14.229 365.618a15.479 15.479 0 0 0 7.381 12.596Zm19.38-12.596 240.221 146.544c6.926 4.242 22.267-4.116 22.165-12.695l-3.819-321.363a13.631 13.631 0 0 0-6.921-11.703L527.675 446.389c-6.684-3.779-18.359-1.012-18 8.214l16.47 325.001a13.63 13.63 0 0 0 6.501 11.093Z"
            clip-rule="evenodd"
        />
        <path
            fill="url(#bg8f4c3e2a-N)"
            fill-rule="evenodd"
            d="m513.266 803.293 277.231 169.796a10.318 10.318 0 0 0 10.569.124l9.461-5.494a10.316 10.316 0 0 0 5.136-9.045l-4.336-364.89a15.476 15.476 0 0 0-7.859-13.288L512.094 415.752a15.478 15.478 0 0 0-13.477-.852l-.558.228a10.32 10.32 0 0 0-6.403 9.951l14.229 365.618a15.479 15.479 0 0 0 7.381 12.596Zm19.38-12.596 240.221 146.544c6.926 4.242 22.267-4.116 22.165-12.695l-3.819-321.363a13.631 13.631 0 0 0-6.921-11.703L527.675 446.389c-6.684-3.779-18.359-1.012-18 8.214l16.47 325.001a13.63 13.63 0 0 0 6.501 11.093Z"
            clip-rule="evenodd"
        />
        <path
            fill="url(#bg8f4c3e2a-O)"
            fill-rule="evenodd"
            d="m513.266 803.293 277.231 169.796a10.318 10.318 0 0 0 10.569.124l9.461-5.494a10.316 10.316 0 0 0 5.136-9.045l-4.336-364.89a15.476 15.476 0 0 0-7.859-13.288L512.094 415.752a15.478 15.478 0 0 0-13.477-.852l-.558.228a10.32 10.32 0 0 0-6.403 9.951l14.229 365.618a15.479 15.479 0 0 0 7.381 12.596Zm19.38-12.596 240.221 146.544c6.926 4.242 22.267-4.116 22.165-12.695l-3.819-321.363a13.631 13.631 0 0 0-6.921-11.703L527.675 446.389c-6.684-3.779-18.359-1.012-18 8.214l16.47 325.001a13.63 13.63 0 0 0 6.501 11.093Z"
            clip-rule="evenodd"
        />
        <path
            fill="url(#bg8f4c3e2a-P)"
            fill-rule="evenodd"
            d="m513.266 803.293 277.231 169.796a10.318 10.318 0 0 0 10.569.124l9.461-5.494a10.316 10.316 0 0 0 5.136-9.045l-4.336-364.89a15.476 15.476 0 0 0-7.859-13.288L512.094 415.752a15.478 15.478 0 0 0-13.477-.852l-.558.228a10.32 10.32 0 0 0-6.403 9.951l14.229 365.618a15.479 15.479 0 0 0 7.381 12.596Zm19.38-12.596 240.221 146.544c6.926 4.242 22.267-4.116 22.165-12.695l-3.819-321.363a13.631 13.631 0 0 0-6.921-11.703L527.675 446.389c-6.684-3.779-18.359-1.012-18 8.214l16.47 325.001a13.63 13.63 0 0 0 6.501 11.093Z"
            clip-rule="evenodd"
        />
        <path
            fill="url(#bg8f4c3e2a-Q)"
            fill-rule="evenodd"
            d="m513.266 803.293 277.231 169.796a10.318 10.318 0 0 0 10.569.124l9.461-5.494a10.316 10.316 0 0 0 5.136-9.045l-4.336-364.89a15.476 15.476 0 0 0-7.859-13.288L512.094 415.752a15.478 15.478 0 0 0-13.477-.852l-.558.228a10.32 10.32 0 0 0-6.403 9.951l14.229 365.618a15.479 15.479 0 0 0 7.381 12.596Zm19.38-12.596 240.221 146.544c6.926 4.242 22.267-4.116 22.165-12.695l-3.819-321.363a13.631 13.631 0 0 0-6.921-11.703L527.675 446.389c-6.684-3.779-18.359-1.012-18 8.214l16.47 325.001a13.63 13.63 0 0 0 6.501 11.093Z"
            clip-rule="evenodd"
        />
        <path
            fill="url(#bg8f4c3e2a-R)"
            fill-rule="evenodd"
            d="m513.266 803.293 277.231 169.796a10.318 10.318 0 0 0 10.569.124l9.461-5.494a10.316 10.316 0 0 0 5.136-9.045l-4.336-364.89a15.476 15.476 0 0 0-7.859-13.288L512.094 415.752a15.478 15.478 0 0 0-13.477-.852l-.558.228a10.32 10.32 0 0 0-6.403 9.951l14.229 365.618a15.479 15.479 0 0 0 7.381 12.596Zm19.38-12.596 240.221 146.544c6.926 4.242 22.267-4.116 22.165-12.695l-3.819-321.363a13.631 13.631 0 0 0-6.921-11.703L527.675 446.389c-6.684-3.779-18.359-1.012-18 8.214l16.47 325.001a13.63 13.63 0 0 0 6.501 11.093Z"
            clip-rule="evenodd"
        />
        <path
            fill="url(#bg8f4c3e2a-S)"
            fill-rule="evenodd"
            d="m513.266 803.293 277.231 169.796a10.318 10.318 0 0 0 10.569.124l9.461-5.494a10.316 10.316 0 0 0 5.136-9.045l-4.336-364.89a15.476 15.476 0 0 0-7.859-13.288L512.094 415.752a15.478 15.478 0 0 0-13.477-.852l-.558.228a10.32 10.32 0 0 0-6.403 9.951l14.229 365.618a15.479 15.479 0 0 0 7.381 12.596Zm19.38-12.596 240.221 146.544c6.926 4.242 22.267-4.116 22.165-12.695l-3.819-321.363a13.631 13.631 0 0 0-6.921-11.703L527.675 446.389c-6.684-3.779-18.359-1.012-18 8.214l16.47 325.001a13.63 13.63 0 0 0 6.501 11.093Z"
            clip-rule="evenodd"
        />
        <path
            fill="url(#bg8f4c3e2a-T)"
            fill-rule="evenodd"
            d="m513.266 803.293 277.231 169.796a10.318 10.318 0 0 0 10.569.124l9.461-5.494a10.316 10.316 0 0 0 5.136-9.045l-4.336-364.89a15.476 15.476 0 0 0-7.859-13.288L512.094 415.752a15.478 15.478 0 0 0-13.477-.852l-.558.228a10.32 10.32 0 0 0-6.403 9.951l14.229 365.618a15.479 15.479 0 0 0 7.381 12.596Zm19.38-12.596 240.221 146.544c6.926 4.242 22.267-4.116 22.165-12.695l-3.819-321.363a13.631 13.631 0 0 0-6.921-11.703L527.675 446.389c-6.684-3.779-18.359-1.012-18 8.214l16.47 325.001a13.63 13.63 0 0 0 6.501 11.093Z"
            clip-rule="evenodd"
        />
        <path
            fill="url(#bg8f4c3e2a-U)"
            fill-rule="evenodd"
            d="m513.266 803.293 277.231 169.796a10.318 10.318 0 0 0 10.569.124l9.461-5.494a10.316 10.316 0 0 0 5.136-9.045l-4.336-364.89a15.476 15.476 0 0 0-7.859-13.288L512.094 415.752a15.478 15.478 0 0 0-13.477-.852l-.558.228a10.32 10.32 0 0 0-6.403 9.951l14.229 365.618a15.479 15.479 0 0 0 7.381 12.596Zm19.38-12.596 240.221 146.544c6.926 4.242 22.267-4.116 22.165-12.695l-3.819-321.363a13.631 13.631 0 0 0-6.921-11.703L527.675 446.389c-6.684-3.779-18.359-1.012-18 8.214l16.47 325.001a13.63 13.63 0 0 0 6.501 11.093Z"
            clip-rule="evenodd"
        />
        <path
            fill="url(#bg8f4c3e2a-V)"
            d="m505.125 626.476 18.009-8.226 133.887 78.107 4.031 171.53-17.851 9.724a3.87 3.87 0 0 1-3.892-.111L512.38 798.679a3.87 3.87 0 0 1-1.825-3.126l-6.936-166.623a2.582 2.582 0 0 1 1.506-2.454Z"
        />
        <path
            fill="url(#bg8f4c3e2a-W)"
            d="m505.125 626.476 18.009-8.226 133.887 78.107 4.031 171.53-17.851 9.724a3.87 3.87 0 0 1-3.892-.111L512.38 798.679a3.87 3.87 0 0 1-1.825-3.126l-6.936-166.623a2.582 2.582 0 0 1 1.506-2.454Z"
        />
        <path
            fill="url(#bg8f4c3e2a-X)"
            d="m505.125 626.476 18.009-8.226 133.887 78.107 4.031 171.53-17.851 9.724a3.87 3.87 0 0 1-3.892-.111L512.38 798.679a3.87 3.87 0 0 1-1.825-3.126l-6.936-166.623a2.582 2.582 0 0 1 1.506-2.454Z"
        />
        <path
            fill="url(#bg8f4c3e2a-Y)"
            d="m505.125 626.476 18.009-8.226 133.887 78.107 4.031 171.53-17.851 9.724a3.87 3.87 0 0 1-3.892-.111L512.38 798.679a3.87 3.87 0 0 1-1.825-3.126l-6.936-166.623a2.582 2.582 0 0 1 1.506-2.454Z"
        />
        <path
            fill="url(#bg8f4c3e2a-Z)"
            d="m505.125 626.476 18.009-8.226 133.887 78.107 4.031 171.53-17.851 9.724a3.87 3.87 0 0 1-3.892-.111L512.38 798.679a3.87 3.87 0 0 1-1.825-3.126l-6.936-166.623a2.582 2.582 0 0 1 1.506-2.454Z"
        />
        <path
            fill="url(#bg8f4c3e2a-aa)"
            d="m505.125 626.476 18.009-8.226 133.887 78.107 4.031 171.53-17.851 9.724a3.87 3.87 0 0 1-3.892-.111L512.38 798.679a3.87 3.87 0 0 1-1.825-3.126l-6.936-166.623a2.582 2.582 0 0 1 1.506-2.454Z"
        />
        <path fill="url(#bg8f4c3e2a-ab)" d="m634.641 686.177-129.35-75.885a3.871 3.871 0 0 1-1.909-3.183l-7.17-180.057 152.991 87.844 4.997 163.325-15.846 8.067a3.866 3.866 0 0 1-3.713-.111Z" />
        <path fill="url(#bg8f4c3e2a-ac)" d="m634.641 686.177-129.35-75.885a3.871 3.871 0 0 1-1.909-3.183l-7.17-180.057 152.991 87.844 4.997 163.325-15.846 8.067a3.866 3.866 0 0 1-3.713-.111Z" />
        <path fill="url(#bg8f4c3e2a-ad)" d="m634.641 686.177-129.35-75.885a3.871 3.871 0 0 1-1.909-3.183l-7.17-180.057 152.991 87.844 4.997 163.325-15.846 8.067a3.866 3.866 0 0 1-3.713-.111Z" />
        <path fill="url(#bg8f4c3e2a-ae)" d="m634.641 686.177-129.35-75.885a3.871 3.871 0 0 1-1.909-3.183l-7.17-180.057 152.991 87.844 4.997 163.325-15.846 8.067a3.866 3.866 0 0 1-3.713-.111Z" />
        <path
            fill="url(#bg8f4c3e2a-af)"
            d="m654.261 719.409 4.398 167.333a3.868 3.868 0 0 0 1.849 3.2l131.221 80.228c.852.52 1.928.503 2.763-.045l2.865-1.883-3.577-188.186-123.459-72.011-14.082 7.886a3.87 3.87 0 0 0-1.978 3.478Z"
        />
        <path
            fill="url(#bg8f4c3e2a-ag)"
            d="m654.261 719.409 4.398 167.333a3.868 3.868 0 0 0 1.849 3.2l131.221 80.228c.852.52 1.928.503 2.763-.045l2.865-1.883-3.577-188.186-123.459-72.011-14.082 7.886a3.87 3.87 0 0 0-1.978 3.478Z"
        />
        <path
            fill="url(#bg8f4c3e2a-ah)"
            d="m654.261 719.409 4.398 167.333a3.868 3.868 0 0 0 1.849 3.2l131.221 80.228c.852.52 1.928.503 2.763-.045l2.865-1.883-3.577-188.186-123.459-72.011-14.082 7.886a3.87 3.87 0 0 0-1.978 3.478Z"
        />
        <path
            fill="url(#bg8f4c3e2a-ai)"
            d="m654.261 719.409 4.398 167.333a3.868 3.868 0 0 0 1.849 3.2l131.221 80.228c.852.52 1.928.503 2.763-.045l2.865-1.883-3.577-188.186-123.459-72.011-14.082 7.886a3.87 3.87 0 0 0-1.978 3.478Z"
        />
        <path fill="url(#bg8f4c3e2a-aj)" d="m787.328 591.456-133.32-73.899c-2.621-1.453-5.828.497-5.744 3.492l4.909 174.882a3.867 3.867 0 0 0 1.878 3.209l138.759 83.224-3.161-185.378a6.447 6.447 0 0 0-3.321-5.53Z" />
        <path fill="url(#bg8f4c3e2a-ak)" d="m787.328 591.456-133.32-73.899c-2.621-1.453-5.828.497-5.744 3.492l4.909 174.882a3.867 3.867 0 0 0 1.878 3.209l138.759 83.224-3.161-185.378a6.447 6.447 0 0 0-3.321-5.53Z" />
        <path fill="url(#bg8f4c3e2a-al)" d="m787.328 591.456-133.32-73.899c-2.621-1.453-5.828.497-5.744 3.492l4.909 174.882a3.867 3.867 0 0 0 1.878 3.209l138.759 83.224-3.161-185.378a6.447 6.447 0 0 0-3.321-5.53Z" />
        <path fill="url(#bg8f4c3e2a-am)" d="m787.328 591.456-133.32-73.899c-2.621-1.453-5.828.497-5.744 3.492l4.909 174.882a3.867 3.867 0 0 0 1.878 3.209l138.759 83.224-3.161-185.378a6.447 6.447 0 0 0-3.321-5.53Z" />
        <path
            fill="url(#bg8f4c3e2a-an)"
            d="M719.329 404.741c2.089 61.06-92.159 113.84-210.508 117.889-118.349 4.048-215.983-42.168-218.071-103.228-2.089-61.06 92.158-113.841 210.507-117.889 118.349-4.049 215.786 36.388 218.072 103.228Z"
        />
        <path
            fill="url(#bg8f4c3e2a-ao)"
            d="M719.329 404.741c2.089 61.06-92.159 113.84-210.508 117.889-118.349 4.048-215.983-42.168-218.071-103.228-2.089-61.06 92.158-113.841 210.507-117.889 118.349-4.049 215.786 36.388 218.072 103.228Z"
        />
        <path
            fill="url(#bg8f4c3e2a-ap)"
            d="M719.329 404.741c2.089 61.06-92.159 113.84-210.508 117.889-118.349 4.048-215.983-42.168-218.071-103.228-2.089-61.06 92.158-113.841 210.507-117.889 118.349-4.049 215.786 36.388 218.072 103.228Z"
        />
        <path
            fill="url(#bg8f4c3e2a-aq)"
            d="M708.203 398.04c1.89 55.237-87.564 103.128-199.802 106.967-112.237 3.84-204.755-37.826-206.645-93.063-1.889-55.237 87.565-103.127 199.803-106.967 112.237-3.839 204.576 32.598 206.644 93.063Z"
        />
        <path
            fill="url(#bg8f4c3e2a-ar)"
            d="M708.203 398.04c1.89 55.237-87.564 103.128-199.802 106.967-112.237 3.84-204.755-37.826-206.645-93.063-1.889-55.237 87.565-103.127 199.803-106.967 112.237-3.839 204.576 32.598 206.644 93.063Z"
        />
        <path
            fill="url(#bg8f4c3e2a-as)"
            d="M708.203 398.04c1.89 55.237-87.564 103.128-199.802 106.967-112.237 3.84-204.755-37.826-206.645-93.063-1.889-55.237 87.565-103.127 199.803-106.967 112.237-3.839 204.576 32.598 206.644 93.063Z"
        />
        <path
            fill="url(#bg8f4c3e2a-at)"
            d="m514.362 401.237 148.705-65.472-5.522-2.982-149.223 66.584a2.578 2.578 0 0 0-1.528 2.355v1.228c0 .465.25.894.655 1.123l129.927 73.465 7.093-3.224-130.129-72.616a.258.258 0 0 1 .022-.461Z"
        />
        <path
            fill="url(#bg8f4c3e2a-au)"
            d="m514.362 401.237 148.705-65.472-5.522-2.982-149.223 66.584a2.578 2.578 0 0 0-1.528 2.355v1.228c0 .465.25.894.655 1.123l129.927 73.465 7.093-3.224-130.129-72.616a.258.258 0 0 1 .022-.461Z"
        />
    </g>
    <defs>
        <radialGradient id="bg8f4c3e2a-d" cx="0" cy="0" r="1" gradientTransform="matrix(83.42229 -116.75663 809.58545 578.44652 336.257 609.324)" gradientUnits="userSpaceOnUse">
            <stop stop-color="#D2D9E7" />
            <stop offset=".59" stop-color="#EDEFF2" stop-opacity="0" />
        </radialGradient>
        <radialGradient id="bg8f4c3e2a-e" cx="0" cy="0" r="1" gradientTransform="matrix(1627.3811 1160.27263 -261.86465 367.28745 165.561 172.703)" gradientUnits="userSpaceOnUse">
            <stop offset=".433" stop-color="#EEEAE6" />
            <stop offset=".513" stop-color="#F5E8DF" stop-opacity=".39" />
            <stop offset=".556" stop-color="#E5E4E3" />
            <stop offset=".588" stop-color="#F1EBE7" stop-opacity=".36" />
            <stop offset=".656" stop-color="#EEEAE6" stop-opacity="0" />
        </radialGradient>
        <radialGradient id="bg8f4c3e2a-f" cx="0" cy="0" r="1" gradientTransform="matrix(-231.0159 301.62131 -354.6392 -271.62304 278.503 238.378)" gradientUnits="userSpaceOnUse">
            <stop offset=".218" stop-color="#FAEEE2" />
            <stop offset=".603" stop-color="#ECE4E8" />
            <stop offset="1" stop-color="#ECEEF2" stop-opacity="0" />
        </radialGradient>
        <radialGradient id="bg8f4c3e2a-h" cx="0" cy="0" r="1" gradientTransform="rotate(125.127 204.061 201.67) scale(419.343 4214.71)" gradientUnits="userSpaceOnUse">
            <stop offset=".07" stop-color="#F4EDE1" />
            <stop offset=".226" stop-color="#ECEEF2" stop-opacity="0" />
        </radialGradient>
        <radialGradient id="bg8f4c3e2a-i" cx="0" cy="0" r="1" gradientTransform="rotate(23.834 -484.887 1210.8) scale(559.826 261.767)" gradientUnits="userSpaceOnUse">
            <stop offset=".216" stop-color="#EFF1F4" />
            <stop offset=".557" stop-color="#EFF1F4" stop-opacity="0" />
        </radialGradient>
        <radialGradient id="bg8f4c3e2a-j" cx="0" cy="0" r="1" gradientTransform="rotate(-146.067 98.36 136.169) scale(309.375 379.438)" gradientUnits="userSpaceOnUse">
            <stop offset=".032" stop-color="#ECE4E8" />
            <stop offset="1" stop-color="#ECEEF2" stop-opacity="0" />
        </radialGradient>
        <radialGradient id="bg8f4c3e2a-k" cx="0" cy="0" r="1" gradientTransform="rotate(-5.091 2145.078 456.927) scale(301.51 190.183)" gradientUnits="userSpaceOnUse">
            <stop offset=".436" stop-color="#EAE4EA" stop-opacity="0" />
            <stop offset=".556" stop-color="#E5E2EA" />
            <stop offset=".741" stop-color="#F1EBE7" stop-opacity="0" />
        </radialGradient>
        <radialGradient id="bg8f4c3e2a-l" cx="0" cy="0" r="1" gradientTransform="rotate(43.46 -127.095 186.862) scale(212.178 140.901)" gradientUnits="userSpaceOnUse">
            <stop offset=".143" stop-color="#DCE5F6" />
            <stop offset=".808" stop-color="#F1EBE7" stop-opacity="0" />
        </radialGradient>
        <radialGradient id="bg8f4c3e2a-m" cx="0" cy="0" r="1" gradientTransform="matrix(-6.09635 7.60133 -248.14762 -199.01715 1235.29 630.608)" gradientUnits="userSpaceOnUse">
            <stop offset=".387" stop-color="#D5D3CA" />
            <stop offset="1" stop-color="#ECEEF2" stop-opacity="0" />
        </radialGradient>
        <radialGradient id="bg8f4c3e2a-n" cx="0" cy="0" r="1" gradientTransform="rotate(127.505 318.763 379.244) scale(16.8642 275.176)" gradientUnits="userSpaceOnUse">
            <stop offset=".387" stop-color="#D5D3CA" />
            <stop offset="1" stop-color="#ECEEF2" stop-opacity="0" />
        </radialGradient>
        <radialGradient id="bg8f4c3e2a-o" cx="0" cy="0" r="1" gradientTransform="rotate(127.117 382.742 648.81) scale(119.685 1641.26)" gradientUnits="userSpaceOnUse">
            <stop offset=".853" stop-color="#D5D3CA" />
            <stop offset=".909" stop-color="#ECEEF2" />
        </radialGradient>
        <radialGradient id="bg8f4c3e2a-q" cx="0" cy="0" r="1" gradientTransform="rotate(112.011 279.44 461.67) scale(16.3454 245.088)" gradientUnits="userSpaceOnUse">
            <stop offset=".387" stop-color="#D5D3CA" />
            <stop offset="1" stop-color="#F3EEE4" stop-opacity="0" />
        </radialGradient>
        <radialGradient id="bg8f4c3e2a-r" cx="0" cy="0" r="1" gradientTransform="rotate(110.362 258.94 382.935) scale(66.7194 1000.41)" gradientUnits="userSpaceOnUse">
            <stop offset=".163" stop-color="#F3EDE4" />
            <stop offset=".356" stop-color="#F5EEE2" stop-opacity="0" />
        </radialGradient>
        <radialGradient id="bg8f4c3e2a-s" cx="0" cy="0" r="1" gradientTransform="matrix(-42.25866 51.4795 -708.15652 -581.31384 337.793 672.766)" gradientUnits="userSpaceOnUse">
            <stop offset=".655" stop-color="#D3E3EF" />
            <stop offset="1" stop-color="#ECEBEF" />
        </radialGradient>
        <radialGradient id="bg8f4c3e2a-t" cx="0" cy="0" r="1" gradientTransform="matrix(-36.88071 46.10058 -634.1645 -507.33509 332.415 678.145)" gradientUnits="userSpaceOnUse">
            <stop offset=".655" stop-color="#CBCBCB" />
            <stop offset="1" stop-color="#DDE2E6" stop-opacity="0" />
        </radialGradient>
        <radialGradient id="bg8f4c3e2a-v" cx="0" cy="0" r="1" gradientTransform="rotate(32.858 -474.11 -.91) scale(1115.91 191.425)" gradientUnits="userSpaceOnUse">
            <stop offset=".135" stop-color="#EDE6EA" />
            <stop offset=".451" stop-color="#EDE6EA" stop-opacity="0" />
        </radialGradient>
        <radialGradient id="bg8f4c3e2a-w" cx="0" cy="0" r="1" gradientTransform="matrix(324.68063 285.9928 -20.05024 22.76254 343.705 672.262)" gradientUnits="userSpaceOnUse">
            <stop offset=".335" stop-color="#E1E3EB" />
            <stop offset=".563" stop-color="#E1E3EB" stop-opacity="0" />
        </radialGradient>
        <radialGradient id="bg8f4c3e2a-x" cx="0" cy="0" r="1" gradientTransform="rotate(67.876 251.454 1413.682) scale(322.012 185.682)" gradientUnits="userSpaceOnUse">
            <stop offset=".684" stop-color="#B0FEDB" />
            <stop offset=".706" stop-color="#72E1B0" />
            <stop offset=".717" stop-color="#87C95B" />
        </radialGradient>
        <radialGradient id="bg8f4c3e2a-y" cx="0" cy="0" r="1" gradientTransform="rotate(32.609 -264.92 3037.866) scale(246.498 152.066)" gradientUnits="userSpaceOnUse">
            <stop offset=".174" stop-color="#48B235" />
            <stop offset=".66" stop-color="#82C956" stop-opacity="0" />
        </radialGradient>
        <radialGradient id="bg8f4c3e2a-z" cx="0" cy="0" r="1" gradientTransform="matrix(152.18488 545.54285 -175.0967 48.84506 1573.43 643.56)" gradientUnits="userSpaceOnUse">
            <stop offset=".136" stop-color="#48B335" />
            <stop offset=".174" stop-color="#E1FFDC" />
            <stop offset=".207" stop-color="#82C956" stop-opacity="0" />
        </radialGradient>
        <radialGradient id="bg8f4c3e2a-A" cx="0" cy="0" r="1" gradientTransform="matrix(14.18676 104.4661 -36.01938 4.89152 1625.02 708.045)" gradientUnits="userSpaceOnUse">
            <stop offset=".174" stop-color="#88CA5C" />
            <stop offset=".66" stop-color="#82C956" stop-opacity="0" />
        </radialGradient>
        <radialGradient id="bg8f4c3e2a-B" cx="0" cy="0" r="1" gradientTransform="matrix(36.11159 164.43649 -56.69721 12.45117 1562.47 575.851)" gradientUnits="userSpaceOnUse">
            <stop offset=".174" stop-color="#88CA5C" />
            <stop offset=".66" stop-color="#82C956" stop-opacity="0" />
        </radialGradient>
        <radialGradient id="bg8f4c3e2a-D" cx="0" cy="0" r="1" gradientTransform="matrix(90.28093 234.72445 -145.9449 56.13409 1440.583 665.474)" gradientUnits="userSpaceOnUse">
            <stop offset=".871" stop-color="#EAF2E9" stop-opacity="0" />
            <stop offset=".933" stop-color="#D2F9D0" />
            <stop offset=".991" stop-color="#CEE3CE" />
        </radialGradient>
        <radialGradient id="bg8f4c3e2a-F" cx="0" cy="0" r="1" gradientTransform="matrix(-166.37149 550.70156 -332.76203 -100.53016 1040.79 567.468)" gradientUnits="userSpaceOnUse">
            <stop offset=".572" stop-color="#CFCFFF" />
            <stop offset=".592" stop-color="#A68DE3" stop-opacity="0" />
        </radialGradient>
        <radialGradient id="bg8f4c3e2a-G" cx="0" cy="0" r="1" gradientTransform="matrix(-412.05844 206.35249 -19.77776 -39.49355 1077.54 247.622)" gradientUnits="userSpaceOnUse">
            <stop offset=".489" stop-color="#CFCFFF" />
            <stop offset=".674" stop-color="#A68DE3" stop-opacity="0" />
        </radialGradient>
        <radialGradient id="bg8f4c3e2a-H" cx="0" cy="0" r="1" gradientTransform="matrix(-213.44491 94.14932 -9.0237 -20.45754 971.144 281.155)" gradientUnits="userSpaceOnUse">
            <stop offset=".489" stop-color="#CFCFFF" />
            <stop offset=".872" stop-color="#A68DE3" stop-opacity="0" />
        </radialGradient>
        <radialGradient id="bg8f4c3e2a-I" cx="0" cy="0" r="1" gradientTransform="rotate(119.745 334.145 446.914) scale(114.377 105.014)" gradientUnits="userSpaceOnUse">
            <stop offset=".593" stop-color="#CFCFFF" />
            <stop offset=".674" stop-color="#A68DE3" stop-opacity="0" />
        </radialGradient>
        <radialGradient id="bg8f4c3e2a-K" cx="0" cy="0" r="1" gradientTransform="matrix(568.75802 397.22727 -215.88347 309.1063 781.558 608.738)" gradientUnits="userSpaceOnUse">
            <stop offset=".433" stop-color="#EEEAE6" />
            <stop offset=".513" stop-color="#F5E8DF" stop-opacity=".39" />
            <stop offset=".545" stop-color="#E5E4E3" />
            <stop offset=".609" stop-color="#F1EBE7" stop-opacity=".36" />
            <stop offset=".656" stop-color="#EEEAE6" stop-opacity="0" />
        </radialGradient>
        <radialGradient id="bg8f4c3e2a-L" cx="0" cy="0" r="1" gradientTransform="matrix(245.03278 -23.21454 29.67062 313.17763 1311.63 87.7)" gradientUnits="userSpaceOnUse">
            <stop offset=".498" stop-color="#F0E3D7" />
            <stop offset=".856" stop-color="#F1E8E0" stop-opacity="0" />
        </radialGradient>
        <radialGradient id="bg8f4c3e2a-O" cx="0" cy="0" r="1" gradientTransform="rotate(154.372 324.467 477.336) scale(105.852 10.1819)" gradientUnits="userSpaceOnUse">
            <stop offset=".159" stop-color="#4AC5EA" />
            <stop offset=".841" stop-color="#7AE5FB" stop-opacity="0" />
        </radialGradient>
        <radialGradient id="bg8f4c3e2a-P" cx="0" cy="0" r="1" gradientTransform="matrix(-87.86049 41.27098 -4.17714 -8.89259 822.989 786.717)" gradientUnits="userSpaceOnUse">
            <stop offset=".159" stop-color="#4AC5EA" />
            <stop offset=".841" stop-color="#7AE5FB" stop-opacity="0" />
        </radialGradient>
        <radialGradient id="bg8f4c3e2a-Q" cx="0" cy="0" r="1" gradientTransform="rotate(139.604 290.668 454.693) scale(136.321 78.7545)" gradientUnits="userSpaceOnUse">
            <stop offset=".225" stop-color="#7AE5FB" />
            <stop offset=".414" stop-color="#7AE5FB" stop-opacity="0" />
        </radialGradient>
        <radialGradient id="bg8f4c3e2a-R" cx="0" cy="0" r="1" gradientTransform="matrix(0 -217.959 12.9498 0 788.651 798.324)" gradientUnits="userSpaceOnUse">
            <stop offset=".672" stop-color="#93F0FF" />
            <stop offset=".904" stop-color="#7AE5FB" stop-opacity="0" />
        </radialGradient>
        <radialGradient id="bg8f4c3e2a-S" cx="0" cy="0" r="1" gradientTransform="matrix(19.02316 -258.26234 15.34443 1.13024 778.656 788.006)" gradientUnits="userSpaceOnUse">
            <stop offset=".672" stop-color="#93F0FF" />
            <stop offset=".792" stop-color="#7AE5FB" stop-opacity="0" />
        </radialGradient>
        <radialGradient id="bg8f4c3e2a-T" cx="0" cy="0" r="1" gradientTransform="rotate(157.649 336.304 374.984) scale(68.6773 8.13132)" gradientUnits="userSpaceOnUse">
            <stop offset=".159" stop-color="#4AC5EA" />
            <stop offset=".841" stop-color="#7AE5FB" stop-opacity="0" />
        </radialGradient>
        <radialGradient id="bg8f4c3e2a-X" cx="0" cy="0" r="1" gradientTransform="matrix(.96735 42.39887 -16.9259 .38617 645.012 723.842)" gradientUnits="userSpaceOnUse">
            <stop offset=".525" stop-color="#F2F1EE" />
            <stop offset=".599" stop-color="#EFEEEB" stop-opacity="0" />
        </radialGradient>
        <radialGradient id="bg8f4c3e2a-Z" cx="0" cy="0" r="1" gradientTransform="matrix(40.9481 24.82641 -6.75415 11.14013 628.722 691.913)" gradientUnits="userSpaceOnUse">
            <stop offset=".525" stop-color="#EDEDED" />
            <stop offset=".786" stop-color="#EFEEEB" stop-opacity="0" />
        </radialGradient>
        <radialGradient id="bg8f4c3e2a-aa" cx="0" cy="0" r="1" gradientTransform="rotate(-27.288 1767.404 -981.045) scale(22.8564 3.43503)" gradientUnits="userSpaceOnUse">
            <stop offset=".3" stop-color="#C8D8DF" />
            <stop offset=".786" stop-color="#C8D8DF" stop-opacity="0" />
        </radialGradient>
        <radialGradient id="bg8f4c3e2a-ad" cx="0" cy="0" r="1" gradientTransform="matrix(-1.25508 62.25185 -24.95063 -.50304 640.335 512.653)" gradientUnits="userSpaceOnUse">
            <stop offset=".525" stop-color="#F2F1EE" />
            <stop offset=".599" stop-color="#EFEEEB" stop-opacity="0" />
        </radialGradient>
        <radialGradient id="bg8f4c3e2a-ai" cx="0" cy="0" r="1" gradientTransform="matrix(-32.40451 92.63641 -27.01847 -9.45115 806.223 746.897)" gradientUnits="userSpaceOnUse">
            <stop offset=".525" stop-color="#EFF1EE" />
            <stop offset=".599" stop-color="#EFEEEB" stop-opacity="0" />
        </radialGradient>
        <radialGradient id="bg8f4c3e2a-am" cx="0" cy="0" r="1" gradientTransform="matrix(-.36273 10.76089 -5.20107 -.17532 794.455 779.18)" gradientUnits="userSpaceOnUse">
            <stop offset=".553" stop-color="#DEDFE0" />
            <stop offset=".9" stop-color="#DEDFE0" stop-opacity="0" />
        </radialGradient>
        <radialGradient id="bg8f4c3e2a-an" cx="0" cy="0" r="1" gradientTransform="matrix(6.97123 279.86519 -563.77412 14.0432 505.039 404.966)" gradientUnits="userSpaceOnUse">
            <stop offset=".367" stop-color="#FFD3A0" />
            <stop offset=".383" stop-color="#FF9E2D" />
        </radialGradient>
        <radialGradient id="bg8f4c3e2a-ao" cx="0" cy="0" r="1" gradientTransform="matrix(-62.54986 94.14868 -416.06065 -276.41956 329.518 504.917)" gradientUnits="userSpaceOnUse">
            <stop offset=".262" stop-color="#F76929" />
            <stop offset=".44" stop-color="#FF9E2D" stop-opacity="0" />
        </radialGradient>
        <radialGradient id="bg8f4c3e2a-ap" cx="0" cy="0" r="1" gradientTransform="matrix(37.40138 -181.84759 1286.84392 264.67078 699.017 344.35)" gradientUnits="userSpaceOnUse">
            <stop offset=".023" stop-color="#F76929" />
            <stop offset=".689" stop-color="#FF9E2D" stop-opacity="0" />
        </radialGradient>
        <radialGradient id="bg8f4c3e2a-aq" cx="0" cy="0" r="1" gradientTransform="rotate(84.999 10.401 497.38) scale(139.82 284.104)" gradientUnits="userSpaceOnUse">
            <stop offset=".832" stop-color="#F5ECE3" />
            <stop offset=".945" stop-color="#F3F1F1" />
        </radialGradient>
        <radialGradient id="bg8f4c3e2a-ar" cx="0" cy="0" r="1" gradientTransform="rotate(117.283 154.877 416.28) scale(47.83 293.299)" gradientUnits="userSpaceOnUse">
            <stop offset=".114" stop-color="#D9ECFA" />
            <stop offset=".741" stop-color="#F3F1F1" stop-opacity="0" />
        </radialGradient>
        <radialGradient id="bg8f4c3e2a-as" cx="0" cy="0" r="1" gradientTransform="matrix(7.09333 14.1867 -100.98356 50.49167 586.491 370.788)" gradientUnits="userSpaceOnUse">
            <stop offset=".391" stop-color="#F3F1F1" />
            <stop offset=".832" stop-color="#F5ECE3" stop-opacity="0" />
        </radialGradient>
        <linearGradient id="bg8f4c3e2a-b" x1="0" x2="1863.75" y1="0" y2="1183.2" gradientUnits="userSpaceOnUse">
            <stop stop-color="#EFF1F4" />
            <stop offset="1" stop-color="#EAECF0" />
        </linearGradient>
        <linearGradient id="bg8f4c3e2a-c" x1="1560.64" x2="1891.61" y1="598.378" y2="-15.312" gradientUnits="userSpaceOnUse">
            <stop offset=".12" stop-color="#EDEFF2" stop-opacity="0" />
            <stop offset=".421" stop-color="#D7DAE0" />
            <stop offset=".878" stop-color="#D7DAE0" />
        </linearGradient>
        <linearGradient id="bg8f4c3e2a-g" x1="364.492" x2="22.854" y1="666.486" y2="1098.09" gradientUnits="userSpaceOnUse">
            <stop stop-color="#EDEFF2" stop-opacity="0" />
            <stop offset=".457" stop-color="#D7DAE0" />
            <stop offset=".878" stop-color="#D7DAE0" />
        </linearGradient>
        <linearGradient id="bg8f4c3e2a-p" x1="1150.41" x2="1087.22" y1="518.46" y2="608.739" gradientUnits="userSpaceOnUse">
            <stop offset=".925" stop-color="#ECEEF2" stop-opacity="0" />
            <stop offset=".972" stop-color="#ECEEF2" />
        </linearGradient>
        <linearGradient id="bg8f4c3e2a-u" x1="267.105" x2="332.415" y1="610.53" y2="536.769" gradientUnits="userSpaceOnUse">
            <stop offset=".123" stop-color="#E8E7EC" />
            <stop offset=".25" stop-color="#E4E8EF" stop-opacity="0" />
        </linearGradient>
        <linearGradient id="bg8f4c3e2a-C" x1="1590.2" x2="1381.27" y1="588.103" y2="753.184" gradientUnits="userSpaceOnUse">
            <stop offset=".345" stop-color="#E8F0E7" />
            <stop offset="1" stop-color="#E9E5E3" />
        </linearGradient>
        <linearGradient id="bg8f4c3e2a-E" x1="811.866" x2="1316.78" y1="588.103" y2="544.253" gradientUnits="userSpaceOnUse">
            <stop stop-color="#A46DDD" />
            <stop offset=".154" stop-color="#A68DE3" />
            <stop offset="1" stop-color="#A8A8E9" />
        </linearGradient>
        <linearGradient id="bg8f4c3e2a-J" x1="1398.03" x2="1068.52" y1="450.105" y2="884.734" gradientUnits="userSpaceOnUse">
            <stop offset=".49" stop-color="#EEEAE6" />
            <stop offset=".545" stop-color="#E2DEDA" />
            <stop offset=".613" stop-color="#EEE6DF" />
            <stop offset=".656" stop-color="#EEEAE6" />
        </linearGradient>
        <linearGradient id="bg8f4c3e2a-M" x1="728.68" x2="542.963" y1="539.095" y2="872.482" gradientUnits="userSpaceOnUse">
            <stop offset=".007" stop-color="#62D5FF" />
            <stop offset=".026" stop-color="#64D2F6" />
            <stop offset=".036" stop-color="#93F0FF" />
            <stop offset="1" stop-color="#2BC3EB" />
        </linearGradient>
        <linearGradient id="bg8f4c3e2a-N" x1="495.244" x2="812.833" y1="611.963" y2="599.71" gradientUnits="userSpaceOnUse">
            <stop stop-color="#62D5FF" />
            <stop offset=".02" stop-color="#64D2F6" />
            <stop offset=".031" stop-color="#82E5FC" />
            <stop offset=".076" stop-color="#93F0FF" />
            <stop offset=".113" stop-color="#93F0FF" stop-opacity="0" />
            <stop offset=".825" stop-color="#93F0FF" stop-opacity="0" />
            <stop offset=".925" stop-color="#8BEBFF" stop-opacity=".168" />
            <stop offset=".966" stop-color="#63D6FF" />
        </linearGradient>
        <linearGradient id="bg8f4c3e2a-U" x1="752.54" x2="786.072" y1="968.564" y2="918.911" gradientUnits="userSpaceOnUse">
            <stop offset=".337" stop-color="#4AC5EA" />
            <stop offset=".873" stop-color="#7AE5FB" stop-opacity="0" />
        </linearGradient>
        <linearGradient id="bg8f4c3e2a-V" x1="652.265" x2="568.43" y1="694.503" y2="832.285" gradientUnits="userSpaceOnUse">
            <stop offset=".004" stop-color="#BFCFD5" />
            <stop offset=".016" stop-color="#CDE4EB" />
            <stop offset=".03" stop-color="#E8E7E6" />
            <stop offset=".113" stop-color="#F1F0ED" />
            <stop offset=".13" stop-color="#CFDCE1" />
            <stop offset=".139" stop-color="#DBEAEF" />
            <stop offset=".171" stop-color="#F1F0ED" />
            <stop offset=".401" stop-color="#F1F0ED" />
            <stop offset=".871" stop-color="#CFE2E9" />
            <stop offset=".925" stop-color="#9AE3F3" />
            <stop offset=".99" stop-color="#7DE6FB" />
            <stop offset=".998" stop-color="#A1F5F1" />
        </linearGradient>
        <linearGradient id="bg8f4c3e2a-W" x1="507.449" x2="610.763" y1="595.898" y2="784.388" gradientUnits="userSpaceOnUse">
            <stop offset=".113" stop-color="#F1F0ED" />
            <stop offset=".125" stop-color="#CFDCE1" />
            <stop offset=".134" stop-color="#DBEAEF" />
            <stop offset=".144" stop-color="#D7E6EB" stop-opacity="0" />
        </linearGradient>
        <linearGradient id="bg8f4c3e2a-Y" x1="487.229" x2="661.013" y1="760.982" y2="755.072" gradientUnits="userSpaceOnUse">
            <stop offset=".113" stop-color="#F2F1EE" />
            <stop offset=".128" stop-color="#CFDCE1" />
            <stop offset=".146" stop-color="#97E4F4" />
            <stop offset=".221" stop-color="#97E4F4" stop-opacity="0" />
            <stop offset=".829" stop-color="#D7E6EB" stop-opacity="0" />
            <stop offset=".846" stop-color="#D1E6EB" stop-opacity=".419" />
            <stop offset=".854" stop-color="#C9E5EB" />
            <stop offset=".865" stop-color="#C7D7DD" />
            <stop offset=".872" stop-color="#DADDE2" />
            <stop offset=".891" stop-color="#D7E6EB" stop-opacity="0" />
            <stop offset=".925" stop-color="#D7E6EB" stop-opacity="0" />
            <stop offset=".959" stop-color="#D7E6EB" stop-opacity="0" />
            <stop offset=".974" stop-color="#D7E6EB" />
            <stop offset=".986" stop-color="#DAC7DA" />
        </linearGradient>
        <linearGradient id="bg8f4c3e2a-ab" x1="657.747" x2="573.377" y1="497.824" y2="644.096" gradientUnits="userSpaceOnUse">
            <stop offset=".005" stop-color="#DFDFDF" />
            <stop offset=".089" stop-color="#F1F0ED" />
            <stop offset=".105" stop-color="#D1DBE0" />
            <stop offset=".13" stop-color="#CFDCE1" />
            <stop offset=".139" stop-color="#DBEAEF" />
            <stop offset=".171" stop-color="#F1F0ED" />
            <stop offset=".401" stop-color="#F1F0ED" />
            <stop offset=".871" stop-color="#F3F3EF" />
        </linearGradient>
        <linearGradient id="bg8f4c3e2a-ac" x1="531.356" x2="618.95" y1="649.041" y2="500.366" gradientUnits="userSpaceOnUse">
            <stop offset=".118" stop-color="#DFDFDF" />
            <stop offset=".128" stop-color="#CFDCE1" />
            <stop offset=".139" stop-color="#DBEAEF" />
            <stop offset=".151" stop-color="#E4ECEE" stop-opacity="0" />
        </linearGradient>
        <linearGradient id="bg8f4c3e2a-ae" x1="481.542" x2="654.144" y1="572.143" y2="563.711" gradientUnits="userSpaceOnUse">
            <stop offset=".113" stop-color="#F2F1EE" />
            <stop offset=".125" stop-color="#CFDCE1" />
            <stop offset=".142" stop-color="#97E4F4" />
            <stop offset=".221" stop-color="#97E4F4" stop-opacity="0" />
            <stop offset=".829" stop-color="#D7E6EB" stop-opacity="0" />
            <stop offset=".846" stop-color="#D1E6EB" stop-opacity=".419" />
            <stop offset=".854" stop-color="#C9E5EB" />
            <stop offset=".865" stop-color="#C7D7DD" />
            <stop offset=".872" stop-color="#DADDE2" />
            <stop offset=".891" stop-color="#D7E6EB" stop-opacity="0" />
            <stop offset=".925" stop-color="#D7E6EB" stop-opacity="0" />
            <stop offset=".951" stop-color="#D7E6EB" stop-opacity="0" />
            <stop offset=".976" stop-color="#D7E6EB" />
            <stop offset=".988" stop-color="#DAC7DA" />
        </linearGradient>
        <linearGradient id="bg8f4c3e2a-af" x1="797.357" x2="711.914" y1="778.978" y2="919.556" gradientUnits="userSpaceOnUse">
            <stop offset=".005" stop-color="#ECF1EE" />
            <stop offset=".113" stop-color="#F1F0ED" />
            <stop offset=".13" stop-color="#CFDCE1" />
            <stop offset=".139" stop-color="#DBEAEF" />
            <stop offset=".171" stop-color="#F1F0ED" />
            <stop offset=".401" stop-color="#F1F0ED" />
            <stop offset=".871" stop-color="#CFE2E9" />
            <stop offset=".925" stop-color="#9AE3F3" />
            <stop offset=".99" stop-color="#7DE6FB" />
            <stop offset=".998" stop-color="#A1F5F1" />
        </linearGradient>
        <linearGradient id="bg8f4c3e2a-ag" x1="657.747" x2="767.694" y1="685.475" y2="866.033" gradientUnits="userSpaceOnUse">
            <stop offset=".113" stop-color="#F1F0ED" />
            <stop offset=".125" stop-color="#CFDCE1" />
            <stop offset=".134" stop-color="#DBEAEF" />
            <stop offset=".144" stop-color="#D7E6EB" stop-opacity="0" />
        </linearGradient>
        <linearGradient id="bg8f4c3e2a-ah" x1="639.368" x2="797.357" y1="852.169" y2="847.332" gradientUnits="userSpaceOnUse">
            <stop offset=".113" stop-color="#F1F0ED" />
            <stop offset=".125" stop-color="#CFDCE1" />
            <stop offset=".132" stop-color="#DBEAEF" />
            <stop offset=".144" stop-color="#D7E6EB" stop-opacity="0" />
            <stop offset=".936" stop-color="#D7E6EB" stop-opacity="0" />
            <stop offset=".952" stop-color="#C9E5EB" />
            <stop offset=".963" stop-color="#C7D7DD" />
            <stop offset=".974" stop-color="#DADDE2" />
        </linearGradient>
        <linearGradient id="bg8f4c3e2a-aj" x1="793.81" x2="706.627" y1="570.692" y2="729.785" gradientUnits="userSpaceOnUse">
            <stop offset=".005" stop-color="#DFDFDF" />
            <stop offset=".113" stop-color="#F1F0ED" />
            <stop offset=".13" stop-color="#CFDCE1" />
            <stop offset=".139" stop-color="#DBEAEF" />
            <stop offset=".171" stop-color="#F1F0ED" />
            <stop offset=".401" stop-color="#F1F0ED" />
            <stop offset=".871" stop-color="#F3F3EF" />
        </linearGradient>
        <linearGradient id="bg8f4c3e2a-ak" x1="632.975" x2="795.422" y1="661.197" y2="658.406" gradientUnits="userSpaceOnUse">
            <stop offset=".113" stop-color="#F1F0ED" />
            <stop offset=".125" stop-color="#CFDCE1" />
            <stop offset=".132" stop-color="#DBEAEF" />
            <stop offset=".144" stop-color="#D7E6EB" stop-opacity="0" />
            <stop offset=".936" stop-color="#D7E6EB" stop-opacity="0" />
            <stop offset=".952" stop-color="#C9E5EB" />
            <stop offset=".963" stop-color="#C7D7DD" />
            <stop offset=".974" stop-color="#DADDE2" />
        </linearGradient>
        <linearGradient id="bg8f4c3e2a-al" x1="679.672" x2="778.866" y1="740.932" y2="574.364" gradientUnits="userSpaceOnUse">
            <stop offset=".118" stop-color="#DFDFDF" />
            <stop offset=".128" stop-color="#CFDCE1" />
            <stop offset=".139" stop-color="#DBEAEF" />
            <stop offset=".151" stop-color="#E4ECEE" stop-opacity="0" />
        </linearGradient>
        <linearGradient id="bg8f4c3e2a-at" x1="552.636" x2="618.411" y1="431.082" y2="314.042" gradientUnits="userSpaceOnUse">
            <stop offset=".02" stop-color="#F86A2A" />
            <stop offset=".033" stop-color="#FF9F2E" />
            <stop offset=".52" stop-color="#FF9F2E" />
            <stop offset=".856" stop-color="#FC8D2D" />
            <stop offset=".999" stop-color="#F76C2B" />
        </linearGradient>
        <linearGradient id="bg8f4c3e2a-au" x1="586.813" x2="584.93" y1="369.015" y2="364.824" gradientUnits="userSpaceOnUse">
            <stop offset=".448" stop-color="#FFA02F" stop-opacity="0" />
            <stop offset=".534" stop-color="#FEBB6C" stop-opacity=".497" />
            <stop offset=".92" stop-color="#FCD7AA" />
        </linearGradient>
        <clipPath id="bg8f4c3e2a-a"><path fill="#fff" d="M0 0h1920v1080H0z" /></clipPath>
    </defs>
</svg>
