<svg xmlns="http://www.w3.org/2000/svg" width="693.172" height="438.156" viewBox="0 0 693.172 438.156">
  <g id="error" transform="translate(-0.003 -0.004)">
    <g id="Group_96" data-name="Group 96">
      <path id="Path_192" data-name="Path 192" d="M676.68,151.77c-7.88-28.38-60.41,2.49-60.41,2.49l13.75-24.94a54.651,54.651,0,0,0,4.35-7.9c6.9-15.44,6.81-31.95-.04-46.34-1.88-8.73-7.59-21.21-23.32-34.89C581.24,14.32,481.43-3.38,452.54.55s26.27,16.09,26.27,16.09l-4.37-.04C390.29,7.68,305.62,6.53,221.61,8.27c-21.07.44-42.2,1.13-62.82,4.69-5.94,1.02-12.32,2.59-15.85,7.38-15.68,21.27,48.47,23.34,58.53,22.93-44.06,5.73-93.02,7.48-134,24.51-5.72,2.38-11.38,5.19-15.69,9.59S44.66,88,45.64,94.27c2.82,18.2,27.89,23.59,42.11,27.63,0,0-81.72,54.34-72.09,81.92a96.8,96.8,0,0,0,20.91,35.22A135.826,135.826,0,0,0,20.52,263.9c-2.61,5.34-6.03,12.66-3.11,18.8C32.29,314.03,258.02,421.56,438.9,390.87c48.05-8.15,95.91-21.63,138.03-45.48,41.92-23.73,84.64-62.92,95.2-112.35.35-1.63.6-3.21.78-4.74,6.55-22.78,10.38-52.78,3.79-76.52Z" fill="#a3c0e6"/>
      <path id="Path_193" data-name="Path 193" d="M676.68,151.77c-7.88-28.38-60.41,2.49-60.41,2.49l13.75-24.94a54.651,54.651,0,0,0,4.35-7.9c6.9-15.44,6.81-31.95-.04-46.34-1.88-8.73-7.59-21.21-23.32-34.89C581.24,14.32,481.43-3.38,452.54.55s26.27,16.09,26.27,16.09l-4.37-.04C390.29,7.68,305.62,6.53,221.61,8.27c-21.07.44-42.2,1.13-62.82,4.69-5.94,1.02-12.32,2.59-15.85,7.38-15.68,21.27,48.47,23.34,58.53,22.93-44.06,5.73-93.02,7.48-134,24.51-5.72,2.38-11.38,5.19-15.69,9.59s-5.99,10.56-6.14,16.9c-.4,16.78,26.56,23.01,42.11,27.63,0,0-81.72,54.34-72.09,81.92a96.8,96.8,0,0,0,20.91,35.22A135.826,135.826,0,0,0,20.52,263.9c-2.61,5.34-6.03,12.66-3.11,18.8C32.29,314.03,258.02,421.56,438.9,390.87c48.05-8.15,95.91-21.63,138.03-45.48,41.92-23.73,84.64-62.92,95.2-112.35.35-1.63.6-3.21.78-4.74,6.55-22.78,10.38-52.78,3.79-76.52Z" fill="#fff" opacity="0.595"/>
    </g>
    <g id="Group_97" data-name="Group 97">
      <path id="Path_194" data-name="Path 194" d="M530.45,120.76s1.02-3.06,6.12-4.08,11.22,4.59,11.22,4.59,4.08-8.16,8.16-8.67,8.67,3.06,8.67,3.06" fill="none" stroke="#263238" stroke-miterlimit="10" stroke-width="1"/>
      <path id="Path_195" data-name="Path 195" d="M517.18,140.15s1.02-3.06,6.12-4.08,11.22,4.59,11.22,4.59,4.08-8.16,8.16-8.67,8.67,3.06,8.67,3.06" fill="none" stroke="#263238" stroke-miterlimit="10" stroke-width="1"/>
      <path id="Path_196" data-name="Path 196" d="M565.65,140.27s.78-2.33,4.66-3.11,8.54,3.5,8.54,3.5,3.11-6.21,6.21-6.6,6.6,2.33,6.6,2.33" fill="none" stroke="#263238" stroke-miterlimit="10" stroke-width="1"/>
      <path id="Path_197" data-name="Path 197" d="M622.35,160.81s.51-1.53,3.06-2.04,5.6,2.29,5.6,2.29,2.04-4.08,4.07-4.33,4.33,1.53,4.33,1.53" fill="none" stroke="#263238" stroke-miterlimit="10" stroke-width="1"/>
    </g>
    <path id="Path_198" data-name="Path 198" d="M350.63,115.35c-5.27-23.69-32.58-41.34-56.37-37.96a29.791,29.791,0,0,0-16.16,7.16c-6.08,5.59-4.64,11.94-7.64,18.87a6.5,6.5,0,0,1-4.53,3.99c-5.92,1.01-10.69-4.89-16.68-4.93-4.48-.03-10.21,2.44-12.71,6.31-2.33,3.6-.71,9.89-4.89,12.28-4.68,2.68-10.38-2.41-15.45-.57-6.29,2.29-3.43,6.86-5.72,9.73s-6.86,1.72-13.16,1.14-11.44,6.86-11.44,6.86H384.39s1.72-2.86-5.72-14.3-17.73-3.43-22.31-3.43-5.72-5.14-5.72-5.15Z" fill="none" stroke="#263238" stroke-miterlimit="10" stroke-width="1"/>
    <path id="Path_199" data-name="Path 199" d="M405.91,77.31c-2.12-9.5-13.07-16.59-22.62-15.23a12,12,0,0,0-6.48,2.87c-2.44,2.24-1.86,4.79-3.07,7.57a2.606,2.606,0,0,1-1.82,1.6c-2.37.41-4.29-1.96-6.69-1.98a6.492,6.492,0,0,0-5.1,2.53c-.93,1.45-.28,3.97-1.96,4.93-1.88,1.07-4.16-.97-6.2-.23-2.52.92-1.38,2.75-2.3,3.9s-2.75.69-5.28.46-4.59,2.75-4.59,2.75h79.64s.69-1.15-2.3-5.74-7.11-1.38-8.95-1.38-2.29-2.06-2.3-2.07Z" fill="none" stroke="#263238" stroke-miterlimit="10" stroke-width="1"/>
    <path id="Path_200" data-name="Path 200" d="M575.82,193.77c-2.12-9.5-13.07-16.59-22.62-15.23a12,12,0,0,0-6.48,2.87c-2.44,2.24-1.86,4.79-3.07,7.57a2.606,2.606,0,0,1-1.82,1.6c-2.37.41-4.29-1.96-6.69-1.98a6.492,6.492,0,0,0-5.1,2.53c-.93,1.45-.28,3.97-1.96,4.93-1.88,1.07-4.16-.97-6.2-.23-2.52.92-1.38,2.75-2.3,3.9s-2.75.69-5.28.46-4.59,2.75-4.59,2.75h79.64s.69-1.15-2.3-5.74-7.11-1.38-8.95-1.38-2.29-2.06-2.3-2.07Z" fill="none" stroke="#263238" stroke-miterlimit="10" stroke-width="1"/>
    <path id="Path_201" data-name="Path 201" d="M448.07,183.37c-3.24-14.56-20.02-25.4-34.64-23.32a18.341,18.341,0,0,0-9.93,4.4c-3.73,3.44-2.85,7.34-4.7,11.59a3.968,3.968,0,0,1-2.79,2.45c-3.64.62-6.57-3-10.25-3.03-2.75-.02-6.27,1.5-7.81,3.88-1.43,2.21-.43,6.08-3.01,7.55-2.88,1.64-6.38-1.48-9.49-.35-3.87,1.41-2.11,4.22-3.52,5.98s-4.22,1.05-8.09.7-7.03,4.22-7.03,4.22H468.79s1.05-1.76-3.52-8.79-10.9-2.11-13.71-2.11-3.51-3.16-3.52-3.16Z" fill="none" stroke="#263238" stroke-miterlimit="10" stroke-width="1"/>
    <path id="Path_202" data-name="Path 202" d="M476.76,351.06s-7.29-7.55-5.24-7.33,5.88,5.88,5.88,5.88.05-12.45,1.87-9.72-.42,9.78-.42,9.78,5.2-8.11,5.19-6.79c-.04,4.1-4.01,7.31-4.01,7.31s8.33-6.17,6.96-3.67-6.69,4.87-6.69,4.87,9.6-1.94,6.19-.57-6.66,2.3-6.66,2.3h-2.65s-9.06-4.55-5.65-3.87a16.853,16.853,0,0,1,5.23,1.82Z" fill="#263238"/>
    <path id="Path_203" data-name="Path 203" d="M573.05,327.43s-5.67-5.88-4.08-5.7,4.57,4.57,4.57,4.57.04-9.69,1.46-7.57-.32,7.61-.32,7.61,4.05-6.31,4.04-5.28c-.03,3.19-3.12,5.69-3.12,5.69s6.48-4.8,5.42-2.85-5.21,3.79-5.21,3.79,7.47-1.51,4.82-.45-5.18,1.79-5.18,1.79h-2.06s-7.05-3.54-4.4-3.01a13.128,13.128,0,0,1,4.07,1.42Z" fill="#263238"/>
    <path id="Path_204" data-name="Path 204" d="M662.44,306.34s-5.67-5.88-4.08-5.7,4.57,4.57,4.57,4.57.04-9.69,1.46-7.57-.32,7.61-.32,7.61,4.05-6.31,4.04-5.28c-.03,3.19-3.12,5.69-3.12,5.69s6.48-4.8,5.42-2.85-5.21,3.79-5.21,3.79,7.47-1.51,4.82-.45-5.18,1.79-5.18,1.79h-2.06s-7.05-3.54-4.4-3.01a13.128,13.128,0,0,1,4.07,1.42Z" fill="#263238"/>
    <path id="Path_205" data-name="Path 205" d="M548.51,354.51s-6.78-7.02-4.88-6.81,5.46,5.46,5.46,5.46.05-11.58,1.74-9.04-.39,9.09-.39,9.09,4.83-7.54,4.82-6.31c-.03,3.81-3.72,6.79-3.72,6.79s7.74-5.73,6.47-3.41-6.22,4.52-6.22,4.52,8.92-1.8,5.75-.53-6.19,2.14-6.19,2.14h-2.47s-8.43-4.23-5.26-3.59a15.606,15.606,0,0,1,4.86,1.69Z" fill="#92e3a9"/>
    <g id="Group_98" data-name="Group 98">
      <path id="Path_206" data-name="Path 206" d="M414.38,324.04l-59.96-67.23-13.14,10.51-65.74-98.99-57.23,12.76L201.2,149.12l-16.64-.88L153.04,86.08,105.9,129.09l-22.74-8.11L.36,205.41" fill="none" stroke="#263238" stroke-miterlimit="10" stroke-width="1"/>
      <line id="Line_1" data-name="Line 1" x1="6.29" y1="7.05" transform="translate(419.34 329.6)" fill="none" stroke="#263238" stroke-miterlimit="10" stroke-width="1"/>
      <line id="Line_2" data-name="Line 2" x1="4.96" y2="1.34" transform="translate(182.62 189.31)" fill="none" stroke="#263238" stroke-miterlimit="10" stroke-width="1"/>
      <line id="Line_3" data-name="Line 3" x1="25.03" y2="6.78" transform="translate(193.16 181.02)" fill="none" stroke="#263238" stroke-miterlimit="10" stroke-width="1"/>
      <path id="Path_207" data-name="Path 207" d="M123.75,152.24l14.02-20.69-.95-7.1L152.91,91.8" fill="none" stroke="#263238" stroke-miterlimit="10" stroke-width="1"/>
      <line id="Line_4" data-name="Line 4" y1="5.19" x2="3.51" transform="translate(117.9 155.7)" fill="none" stroke="#263238" stroke-miterlimit="10" stroke-width="1"/>
      <line id="Line_5" data-name="Line 5" x1="22.73" y2="30.82" transform="translate(73.41 173.13)" fill="none" stroke="#263238" stroke-miterlimit="10" stroke-width="1"/>
      <path id="Path_208" data-name="Path 208" d="M84.3,124.45l5.68,12.78,12.77,10.41-1.42,18.45-3.09,4.2" fill="none" stroke="#263238" stroke-miterlimit="10" stroke-width="1"/>
      <path id="Path_209" data-name="Path 209" d="M201.2,149.12l-11.85,11.29-4.26-7.1" fill="none" stroke="#263238" stroke-miterlimit="10" stroke-width="1"/>
      <path id="Path_210" data-name="Path 210" d="M679.5,275.6l-92.02-64.9-27.93,39.43-34.51-11.5-53.4,74.76L437.13,306l-17.25,14.79" fill="none" stroke="#263238" stroke-miterlimit="10" stroke-width="1"/>
      <path id="Path_211" data-name="Path 211" d="M587.48,210.7l-10.94,48.09-12.9-5.65" fill="none" stroke="#263238" stroke-miterlimit="10" stroke-width="1"/>
      <path id="Path_212" data-name="Path 212" d="M525.34,241.45l-27.02,78.62-18.54-3.22" fill="none" stroke="#263238" stroke-miterlimit="10" stroke-width="1"/>
    </g>
    <g id="Group_99" data-name="Group 99">
      <path id="Path_213" data-name="Path 213" d="M524.09,235.83a43.21,43.21,0,0,0-43.36,43.06,42.7,42.7,0,0,0,11.04,28.7,33.213,33.213,0,0,1,15.19,1.38,41.757,41.757,0,0,1,14.75,8.61h3.89a41.649,41.649,0,0,1,14.75-8.61,33.136,33.136,0,0,1,15.96-1.26,42.729,42.729,0,0,0,11.15-28.82,43.21,43.21,0,0,0-43.36-43.06Z" fill="#a2c6f5"/>
      <path id="Path_214" data-name="Path 214" d="M544.27,296.17c-1.33.65-2.66,1.31-3.96,2.01a37.406,37.406,0,0,0-3.79,2.34c-.45.31-.9.64-1.34.96l7.1-13.23-9.75,15.26c-.99.79-1.96,1.61-2.91,2.43q-2.355,2.055-4.6,4.2l-.49-14.35,10.2-15.52-10.27,13.35-.44-12.85-.73,14.38h0l-.73,14.41q-1.95-1.845-3.99-3.62-1.605-1.395-3.27-2.73l-9.22-15.75,6.77,13.89c-.39-.28-.78-.57-1.17-.84a39.3,39.3,0,0,0-3.79-2.34c-1.3-.7-2.63-1.36-3.96-2.01a82.225,82.225,0,0,0-8.2-3.47,82.053,82.053,0,0,1,7.91,3.94c1.28.72,2.54,1.46,3.78,2.23a36.416,36.416,0,0,1,3.51,2.49,76.9,76.9,0,0,1,6.36,5.72c1.77,1.75,3.48,3.57,5.12,5.41l-.93,18.29h4.27l-.6-17.54c1.83-2.1,3.78-4.16,5.78-6.15a76.728,76.728,0,0,1,6.36-5.72,37.693,37.693,0,0,1,3.51-2.49q1.86-1.155,3.78-2.23a79.807,79.807,0,0,1,7.91-3.94,82.222,82.222,0,0,0-8.2,3.47Z" fill="#263238"/>
    </g>
    <g id="Group_100" data-name="Group 100">
      <path id="Path_215" data-name="Path 215" d="M191.2,294.92c0,12.37-6.94,13.31-15.5,13.31s-15.5-.93-15.5-13.31,6.94-38.24,15.5-38.24S191.2,282.54,191.2,294.92Z" fill="#b1cbeb"/>
      <path id="Path_216" data-name="Path 216" d="M180.94,300.54l-2.56.17,6.68-4.5-4.77,2.41.65-1.88-2.18,2.65-2.56,1.3-.2-8.89,1.36-3.29-1.39,1.85-.12-5.15,4.25-5.66-4.28,4.38-.26-11.34-.23,7.25-2.72-3.03,2.68,4.43-.36,11.49-2.37-1.55-2.17-3.83.87,2.99-4.24-2.78,7.86,6.78-1.19,37.73h3.23l-.68-29.91.75-.51Z" fill="#263238"/>
    </g>
    <g id="Group_101" data-name="Group 101">
      <path id="Path_217" data-name="Path 217" d="M608.01,252.31c0,24.18-13.56,26-30.28,26s-30.28-1.83-30.28-26,13.56-74.71,30.28-74.71S608.01,228.14,608.01,252.31Z" fill="#a7c3e6"/>
      <path id="Path_218" data-name="Path 218" d="M608.01,252.31c0,24.18-13.56,26-30.28,26s-30.28-1.83-30.28-26,13.56-74.71,30.28-74.71S608.01,228.14,608.01,252.31Z" fill="#fff" opacity="0.31"/>
      <path id="Path_219" data-name="Path 219" d="M587.97,263.28l-5.01.35,13.04-8.8-9.31,4.71,1.28-3.68-4.26,5.19-5,2.52-.4-17.36,2.65-6.42-2.71,3.61-.23-10.07,8.3-11.06-8.36,8.56-.5-22.16-.45,14.18-5.32-5.94,5.23,8.66-.71,22.47-4.63-3.03-4.22-7.49,1.69,5.83-8.29-5.42,15.36,13.24-2.33,73.73h6.32l-1.33-58.45,1.46-.99Z" fill="#263238"/>
    </g>
    <g id="Group_102" data-name="Group 102">
      <path id="Path_221" data-name="Path 221" d="M672.83,261.83c0,12.37-6.94,13.31-15.5,13.31s-15.5-.93-15.5-13.31,6.94-38.24,15.5-38.24S672.83,249.45,672.83,261.83Z" fill="#fff" opacity="0.5"/>
      <path id="Path_220" data-name="Path 220" d="M672.83,261.83c0,12.37-6.94,13.31-15.5,13.31s-15.5-.93-15.5-13.31,6.94-38.24,15.5-38.24S672.83,249.45,672.83,261.83Z" fill="#b1cbeb"/>
      <path id="Path_222" data-name="Path 222" d="M662.57,267.44l-2.56.18,6.67-4.5-4.77,2.41.66-1.89-2.18,2.66-2.56,1.29-.2-8.88,1.35-3.29-1.38,1.85-.12-5.15,4.25-5.67-4.28,4.38-.26-11.34-.23,7.26-2.72-3.04,2.68,4.43-.36,11.5-2.38-1.55-2.16-3.83.87,2.98-4.24-2.77,7.85,6.78-1.18,37.73h3.23l-.68-29.92.74-.5Z" fill="#263238"/>
    </g>
    <g id="Group_103" data-name="Group 103">
      <path id="Path_224" data-name="Path 224" d="M41.16,251.37c0,12.37-6.94,13.31-15.5,13.31s-15.5-.93-15.5-13.31,6.94-38.24,15.5-38.24S41.16,238.99,41.16,251.37Z" fill="#fff" opacity="0.5"/>
      <path id="Path_223" data-name="Path 223" d="M41.16,251.37c0,12.37-6.94,13.31-15.5,13.31s-15.5-.93-15.5-13.31,6.94-38.24,15.5-38.24S41.16,238.99,41.16,251.37Z" fill="#629be6"/>
      <path id="Path_225" data-name="Path 225" d="M30.9,256.98l-2.56.18,6.67-4.5-4.77,2.41.66-1.89-2.18,2.66-2.56,1.29-.2-8.89,1.35-3.28-1.38,1.85-.12-5.16,4.25-5.66-4.28,4.38-.26-11.34-.23,7.26-2.72-3.04,2.68,4.43-.36,11.5-2.38-1.55-2.16-3.83.87,2.98-4.24-2.77,7.85,6.77-1.18,37.73h3.23L26.2,258.6l.74-.5Z" fill="#263238"/>
    </g>
    <g id="Group_104" data-name="Group 104">
      <path id="Path_227" data-name="Path 227" d="M117.95,223.31a43.21,43.21,0,0,0-43.36,43.06,42.7,42.7,0,0,0,11.04,28.7,33.213,33.213,0,0,1,15.19,1.38,41.756,41.756,0,0,1,14.75,8.61h3.89a41.649,41.649,0,0,1,14.75-8.61,33.136,33.136,0,0,1,15.96-1.26,42.729,42.729,0,0,0,11.15-28.82,43.21,43.21,0,0,0-43.36-43.06Z" fill="#fff" opacity="0.33"/>
      <path id="Path_226" data-name="Path 226" d="M117.95,223.31a43.21,43.21,0,0,0-43.36,43.06,42.7,42.7,0,0,0,11.04,28.7,33.213,33.213,0,0,1,15.19,1.38,41.756,41.756,0,0,1,14.75,8.61h3.89a41.649,41.649,0,0,1,14.75-8.61,33.136,33.136,0,0,1,15.96-1.26,42.729,42.729,0,0,0,11.15-28.82,43.21,43.21,0,0,0-43.36-43.06Z" fill="#629be6"/>
      <path id="Path_228" data-name="Path 228" d="M138.13,283.64c-1.33.65-2.66,1.31-3.96,2.01a37.411,37.411,0,0,0-3.79,2.34c-.45.31-.9.64-1.34.96l7.1-13.23-9.75,15.26c-.99.79-1.96,1.61-2.91,2.43q-2.355,2.055-4.6,4.21l-.49-14.35,10.2-15.53-10.27,13.35-.44-12.85-.73,14.38h0l-.73,14.41q-1.95-1.845-3.99-3.62-1.6-1.395-3.27-2.73l-9.22-15.75,6.77,13.89c-.39-.28-.78-.57-1.17-.84a39.3,39.3,0,0,0-3.79-2.34c-1.3-.7-2.63-1.36-3.96-2.01a82.224,82.224,0,0,0-8.2-3.47,82.054,82.054,0,0,1,7.91,3.94c1.28.72,2.54,1.46,3.78,2.23a36.414,36.414,0,0,1,3.51,2.49,76.9,76.9,0,0,1,6.36,5.72c1.77,1.75,3.48,3.57,5.12,5.41l-.93,18.29h4.27L119,300.7c1.83-2.1,3.78-4.16,5.78-6.15a76.722,76.722,0,0,1,6.36-5.72,37.7,37.7,0,0,1,3.51-2.49q1.86-1.155,3.78-2.23a79.8,79.8,0,0,1,7.91-3.94,82.224,82.224,0,0,0-8.2,3.47Z" fill="#263238"/>
    </g>
    <g id="Group_105" data-name="Group 105">
      <path id="Path_229" data-name="Path 229" d="M692.6,269.8c-65.38,42.86-194.49,72.03-343.1,72.03S63.87,310.85.56,265.82V438.16H692.6Z" fill="#f5f6fa"/>
      <path id="Path_230" data-name="Path 230" d="M678.4,278.35c-68.82,38.14-190.4,63.48-328.9,63.48-153.16,0-285.63-30.99-348.94-76.01" fill="none" stroke="#263238" stroke-miterlimit="10" stroke-width="1"/>
      <path id="Path_231" data-name="Path 231" d="M692.9,269.61q-4.425,2.91-9.23,5.73" fill="none" stroke="#263238" stroke-miterlimit="10" stroke-width="1"/>
    </g>
    <g id="Group_107" data-name="Group 107">
      <g id="Group_106" data-name="Group 106">
        <path id="Path_232" data-name="Path 232" d="M650.86,259.82c0,25.28-14.18,27.19-31.66,27.19s-31.66-1.91-31.66-27.19,14.18-78.13,31.66-78.13S650.86,234.54,650.86,259.82Z" fill="#629be6"/>
        <path id="Path_233" data-name="Path 233" d="M629.9,271.29l-5.23.36,13.64-9.2-9.75,4.93,1.34-3.85-4.45,5.42-5.23,2.64-.41-18.15,2.77-6.72-2.84,3.78-.24-10.53,8.68-11.57-8.74,8.95-.53-23.17-.46,14.83-5.57-6.21,5.48,9.06-.75,23.49-4.84-3.17-4.42-7.83,1.77,6.1-8.66-5.67,16.05,13.85-2.43,77.09h6.61l-1.4-61.12,1.53-1.03Z" fill="#263238"/>
      </g>
      <path id="Path_234" data-name="Path 234" d="M617.06,336.4s-11.69-12.11-8.41-11.74,9.42,9.42,9.42,9.42.08-19.96,3-15.59-.67,15.67-.67,15.67,8.34-13,8.32-10.88c-.06,6.57-6.42,11.71-6.42,11.71s13.35-9.89,11.16-5.88-10.72,7.8-10.72,7.8,15.39-3.1,9.92-.92-10.67,3.69-10.67,3.69h-4.25s-14.53-7.29-9.06-6.2a26.864,26.864,0,0,1,8.38,2.92Z" fill="#263238"/>
    </g>
    <g id="Group_109" data-name="Group 109">
      <path id="Path_235" data-name="Path 235" d="M57.22,321.37s-10.11-10.47-7.27-10.16,8.15,8.15,8.15,8.15.07-17.26,2.6-13.48-.58,13.55-.58,13.55,7.21-11.25,7.19-9.41c-.05,5.68-5.55,10.13-5.55,10.13s11.54-8.55,9.65-5.08-9.27,6.74-9.27,6.74,13.31-2.68,8.58-.79-9.23,3.19-9.23,3.19H57.81s-12.57-6.3-7.84-5.36a23.611,23.611,0,0,1,7.25,2.52Z" fill="#263238"/>
      <g id="Group_108" data-name="Group 108">
        <path id="Path_236" data-name="Path 236" d="M93.75,246.04c0,25.31-14.19,27.22-31.7,27.22s-31.7-1.91-31.7-27.22,14.19-78.21,31.7-78.21,31.7,52.9,31.7,78.21Z" fill="#b1cbeb"/>
        <path id="Path_237" data-name="Path 237" d="M72.77,257.52l-5.24.36,13.66-9.21-9.76,4.93,1.34-3.85-4.46,5.43-5.23,2.64-.41-18.17,2.77-6.72-2.84,3.78-.24-10.54,8.69-11.58-8.75,8.95-.53-23.19-.47,14.84-5.57-6.21,5.48,9.07-.74,23.51-4.85-3.17-4.42-7.84,1.77,6.11-8.68-5.68,16.08,13.86-2.44,77.18h6.62l-1.4-61.19,1.53-1.03Z" fill="#263238"/>
      </g>
    </g>
    <path id="Path_238" data-name="Path 238" d="M167.88,347.68s-10.11-10.47-7.27-10.16,8.15,8.15,8.15,8.15.07-17.26,2.6-13.48-.58,13.55-.58,13.55,7.21-11.25,7.19-9.41c-.05,5.68-5.55,10.13-5.55,10.13s11.54-8.55,9.65-5.08-9.27,6.74-9.27,6.74,13.31-2.68,8.58-.79-9.23,3.19-9.23,3.19h-3.68s-12.57-6.3-7.84-5.36a23.611,23.611,0,0,1,7.25,2.52Z" fill="#263238"/>
    <path id="Path_239" data-name="Path 239" d="M221.53,370.63s-10.11-10.47-7.27-10.16,8.15,8.15,8.15,8.15.07-17.26,2.6-13.48-.58,13.55-.58,13.55,7.21-11.25,7.19-9.41c-.05,5.68-5.55,10.13-5.55,10.13s11.54-8.55,9.65-5.08-9.27,6.74-9.27,6.74,13.31-2.68,8.58-.79-9.23,3.19-9.23,3.19h-3.68s-12.57-6.3-7.84-5.36a23.29,23.29,0,0,1,7.25,2.52Z" fill="#263238"/>
    <path id="Path_240" data-name="Path 240" d="M365.43,355.22s-7.29-7.55-5.24-7.33,5.88,5.88,5.88,5.88.05-12.45,1.87-9.72-.42,9.78-.42,9.78,5.2-8.11,5.19-6.79c-.04,4.1-4.01,7.31-4.01,7.31s8.33-6.17,6.96-3.67-6.69,4.87-6.69,4.87,9.6-1.94,6.19-.57-6.66,2.3-6.66,2.3h-2.65s-9.06-4.55-5.65-3.87a16.853,16.853,0,0,1,5.23,1.82Z" fill="#263238"/>
    <path id="Path_241" data-name="Path 241" d="M648.46,337.14s-5.67-5.88-4.08-5.7,4.57,4.57,4.57,4.57.04-9.69,1.46-7.57-.32,7.61-.32,7.61,4.05-6.31,4.04-5.28c-.03,3.19-3.12,5.69-3.12,5.69s6.48-4.8,5.42-2.85-5.21,3.79-5.21,3.79,7.47-1.51,4.82-.45-5.18,1.79-5.18,1.79H648.8s-7.05-3.54-4.4-3.01a13.128,13.128,0,0,1,4.07,1.42Z" fill="#263238"/>
    <path id="Path_242" data-name="Path 242" d="M266.39,355.26s-10.11-10.47-7.27-10.16,8.15,8.15,8.15,8.15.07-17.26,2.6-13.48-.58,13.55-.58,13.55,7.21-11.25,7.19-9.41c-.05,5.68-5.55,10.13-5.55,10.13s11.54-8.55,9.65-5.08-9.27,6.74-9.27,6.74,13.31-2.68,8.58-.79-9.23,3.19-9.23,3.19h-3.68s-12.57-6.3-7.84-5.36a23.611,23.611,0,0,1,7.25,2.52Z" fill="#629be6"/>
    <path id="Path_243" data-name="Path 243" d="M193.45,348.3s-6.78-7.02-4.88-6.81,5.46,5.46,5.46,5.46.05-11.58,1.74-9.04-.39,9.09-.39,9.09,4.83-7.54,4.82-6.31c-.03,3.81-3.72,6.79-3.72,6.79s7.74-5.73,6.47-3.41-6.22,4.52-6.22,4.52,8.92-1.8,5.75-.53-6.19,2.14-6.19,2.14h-2.47s-8.43-4.23-5.26-3.59a15.606,15.606,0,0,1,4.86,1.69Z" fill="#b1cbeb"/>
    <path id="Path_244" data-name="Path 244" d="M108.75,376.04s-6.78-7.02-4.88-6.81,5.46,5.46,5.46,5.46.05-11.58,1.74-9.04-.39,9.09-.39,9.09,4.83-7.54,4.82-6.31c-.03,3.81-3.72,6.79-3.72,6.79s7.74-5.73,6.47-3.41-6.22,4.52-6.22,4.52,8.92-1.8,5.75-.53-6.19,2.14-6.19,2.14h-2.47s-8.43-4.23-5.26-3.59a15.606,15.606,0,0,1,4.86,1.69Z" fill="#629be6"/>
    <path id="Path_245" data-name="Path 245" d="M335.52,377.4s-6.78-7.02-4.88-6.81,5.46,5.46,5.46,5.46.05-11.58,1.74-9.04-.39,9.09-.39,9.09,4.83-7.54,4.82-6.31c-.03,3.81-3.72,6.79-3.72,6.79s7.74-5.73,6.47-3.41-6.22,4.52-6.22,4.52,8.92-1.8,5.75-.53-6.19,2.14-6.19,2.14h-2.47s-8.43-4.23-5.26-3.59a15.605,15.605,0,0,1,4.86,1.69Z" fill="#a2c6f5"/>
    <path id="Path_246" data-name="Path 246" d="M445.49,377.77s-6.78-7.02-4.88-6.81,5.46,5.46,5.46,5.46.05-11.58,1.74-9.04-.39,9.09-.39,9.09,4.83-7.54,4.82-6.31c-.03,3.81-3.72,6.79-3.72,6.79s7.74-5.73,6.47-3.41-6.22,4.52-6.22,4.52,8.92-1.8,5.75-.53-6.19,2.14-6.19,2.14h-2.47s-8.43-4.23-5.26-3.59a15.605,15.605,0,0,1,4.86,1.69Z" fill="#629be6"/>
    <path id="Path_247" data-name="Path 247" d="M649.96,355.8s-10.32-10.69-7.42-10.37,8.32,8.32,8.32,8.32.08-17.63,2.65-13.76-.59,13.84-.59,13.84,7.36-11.48,7.34-9.61c-.05,5.8-5.67,10.34-5.67,10.34s11.79-8.73,9.86-5.19-9.47,6.89-9.47,6.89,13.59-2.74,8.76-.81-9.42,3.26-9.42,3.26h-3.75s-12.83-6.44-8-5.47a24.119,24.119,0,0,1,7.4,2.57Z" fill="#a2c6f5"/>
    <path id="Path_248" data-name="Path 248" d="M35.03,355.8s-10.32-10.69-7.42-10.37,8.32,8.32,8.32,8.32.08-17.63,2.65-13.76-.59,13.84-.59,13.84,7.36-11.48,7.34-9.61c-.05,5.8-5.67,10.34-5.67,10.34s11.79-8.73,9.86-5.19-9.47,6.89-9.47,6.89,13.59-2.74,8.76-.81-9.42,3.26-9.42,3.26H35.64s-12.83-6.44-8-5.47a24.119,24.119,0,0,1,7.4,2.57Z" fill="#bdd5f5"/>
    <g id="Group_110" data-name="Group 110">
      <path id="Path_249" data-name="Path 249" d="M85.94,340.7s-10.56-18.21-7.55-19.62,9.24,12.45,9.24,12.45-1.2-26.11,1.61-23.7,5.42,20.89,5.42,20.89,5.62-20.08,7.43-15.87-1.44,16.98-1.44,16.98,8.07-15.37,8.88-10.35-3.82,13.25-3.82,13.25,10.64-10.64,11.45-6.43-2.81,8.43-2.81,8.43,14.06-7.63,10.64-3.41-8.43,9.64-8.43,9.64,13.46-4.82,11.85-2.01-7.63,5.82-7.63,5.82,11.05-2.01,9.84-.2a16.1,16.1,0,0,1-4.01,3.58H76.6s-13.25-4.79-8.03-5.19a22.966,22.966,0,0,1,10.04,1.81s-16.27-11.05-8.64-11.85,13.86,8.84,13.86,8.84S72.99,328.5,76.8,330.91l9.16,9.78Z" fill="#629be6"/>
      <path id="Path_250" data-name="Path 250" d="M86.62,345.88s-13.64-14.13-9.81-13.7S87.8,343.17,87.8,343.17s.1-23.29,3.5-18.19-.78,18.28-.78,18.28,9.73-15.17,9.7-12.69c-.07,7.67-7.49,13.66-7.49,13.66s15.57-11.54,13.02-6.86-12.51,9.1-12.51,9.1,17.95-3.62,11.57-1.07-12.45,4.3-12.45,4.3H87.4s-16.95-8.51-10.57-7.23a31.8,31.8,0,0,1,9.78,3.4Z" fill="#263238" stroke="#263238" stroke-miterlimit="10" stroke-width="1"/>
    </g>
    <g id="Group_111" data-name="Group 111">
      <path id="Path_251" data-name="Path 251" d="M535.69,372.75s-19.96-34.43-14.27-37.08,17.46,23.53,17.46,23.53-2.28-49.35,3.04-44.79,10.25,39.48,10.25,39.48,10.63-37.96,14.04-29.99-2.73,32.09-2.73,32.09,15.26-29.05,16.78-19.57-7.21,25.05-7.21,25.05,20.12-20.12,21.64-12.15-5.31,15.94-5.31,15.94,26.57-14.42,20.12-6.45-15.94,18.22-15.94,18.22,25.43-9.11,22.4-3.8-14.42,11.01-14.42,11.01,20.88-3.8,18.6-.38-7.58,6.77-7.58,6.77H518.03s-25.05-9.05-15.18-9.81,18.98,3.42,18.98,3.42-30.75-20.88-16.32-22.4,26.19,16.7,26.19,16.7-20.5-28.85-13.29-24.29l17.31,18.48Z" fill="#629be6"/>
      <path id="Path_252" data-name="Path 252" d="M536.98,382.54s-25.77-26.7-18.54-25.9,20.77,20.77,20.77,20.77.19-44.02,6.62-34.38-1.47,34.56-1.47,34.56,18.38-28.68,18.34-23.99c-.13,14.49-14.16,25.82-14.16,25.82s29.44-21.8,24.61-12.96-23.64,17.2-23.64,17.2,33.93-6.84,21.88-2.02-23.53,8.13-23.53,8.13h-9.38s-32.04-16.08-19.98-13.66,18.49,6.43,18.49,6.43Z" fill="#263238" stroke="#263238" stroke-miterlimit="10" stroke-width="1"/>
    </g>
    <g id="Group_114" data-name="Group 114">
      <g id="Group_112" data-name="Group 112">
        <path id="Path_253" data-name="Path 253" d="M120.34,341.73s2.04-1.85,3.79-1.85,7.1,2.57,7.1,2.57,2.14,3.3,2.33,3.49,2.82,1.32,3.01,1.78.58,1.98.58,1.98H120.81l-3.02-7.91,2.53-.07Z" fill="#fff" stroke="#263238" stroke-miterlimit="10" stroke-width="1"/>
        <path id="Path_254" data-name="Path 254" d="M124.13,339.89l-.1,1.56s4.18,2.43,4.08,3.31a16.556,16.556,0,0,1-.97,2.92l2.14,2.24H117.9l.88-6.71s2.43-3.5,5.35-3.31Z" fill="#263238"/>
      </g>
      <g id="Group_113" data-name="Group 113">
        <path id="Path_255" data-name="Path 255" d="M99.04,340.76s8.17-12.25,10.02-12.45a9.083,9.083,0,0,1,7.2,3.89,44.89,44.89,0,0,1,2.92,7.78c.1.29.49.49,2.72,4.08s2.14,5.64,2.14,5.64H92.43a19.123,19.123,0,0,1,1.85-5.06,7.259,7.259,0,0,1,3.89-2.53l.88-1.36Z" fill="#fff" stroke="#263238" stroke-miterlimit="10" stroke-width="1"/>
        <path id="Path_256" data-name="Path 256" d="M111.58,349.52s-.88-2.14-.97-2.43-.1-3.11-.39-4.28a29.969,29.969,0,0,0-2.72-4.77l1.75-5.06-.88-.68,1.46-3.6-.82-.38c-1.92.34-9.98,12.44-9.98,12.44l-.88,1.36a7.259,7.259,0,0,0-3.89,2.53,18.062,18.062,0,0,0-1.8,4.86h19.12Z" fill="#263238"/>
      </g>
    </g>
    <g id="Group_117" data-name="Group 117">
      <g id="Group_115" data-name="Group 115">
        <path id="Path_257" data-name="Path 257" d="M435.33,344.78a4.573,4.573,0,0,1,2.38-1.16c1.1,0,4.45,1.61,4.45,1.61s1.34,2.07,1.46,2.19,1.77.83,1.89,1.12.37,1.24.37,1.24H435.64l-1.89-4.96,1.59-.04Z" fill="#fff" stroke="#263238" stroke-miterlimit="10" stroke-width="1"/>
        <path id="Path_258" data-name="Path 258" d="M437.71,343.62l-.06.98s2.62,1.52,2.56,2.07a10.155,10.155,0,0,1-.61,1.83l1.34,1.4h-7.13l.55-4.21S435.88,343.49,437.71,343.62Z" fill="#263238"/>
      </g>
      <g id="Group_116" data-name="Group 116">
        <path id="Path_259" data-name="Path 259" d="M421.98,344.17s5.12-7.68,6.28-7.81a5.668,5.668,0,0,1,4.51,2.44,28.53,28.53,0,0,1,1.83,4.88c.06.18.3.3,1.71,2.56a7.035,7.035,0,0,1,1.34,3.54H417.83a12.128,12.128,0,0,1,1.16-3.17,4.556,4.556,0,0,1,2.44-1.59l.55-.85Z" fill="#fff" stroke="#263238" stroke-miterlimit="10" stroke-width="1"/>
        <path id="Path_260" data-name="Path 260" d="M429.84,349.66s-.55-1.34-.61-1.52-.06-1.95-.24-2.68a18.747,18.747,0,0,0-1.71-2.99l1.1-3.17-.55-.43.91-2.26-.51-.24c-1.2.22-6.26,7.8-6.26,7.8l-.55.85a4.556,4.556,0,0,0-2.44,1.59,11.171,11.171,0,0,0-1.13,3.05h11.99Z" fill="#263238"/>
      </g>
    </g>
    <g id="Group_120" data-name="Group 120">
      <g id="Group_118" data-name="Group 118">
        <path id="Path_261" data-name="Path 261" d="M600.71,374.7s3.86-3.49,7.17-3.49,13.42,4.86,13.42,4.86,4.04,6.23,4.41,6.6,5.33,2.49,5.7,3.36,1.1,3.74,1.1,3.74H601.63l-5.7-14.95,4.78-.12Z" fill="#f5f6fa" stroke="#263238" stroke-miterlimit="10" stroke-width="1"/>
        <path id="Path_262" data-name="Path 262" d="M607.88,371.21l-.18,2.94s7.9,4.6,7.72,6.25a30.635,30.635,0,0,1-1.84,5.51l4.04,4.23H596.11l1.65-12.68s4.6-6.62,10.11-6.25Z" fill="#263238"/>
      </g>
      <g id="Group_119" data-name="Group 119">
        <path id="Path_263" data-name="Path 263" d="M560.46,372.86s15.44-23.16,18.93-23.53,10.85,2.57,13.6,7.35,5.33,14.15,5.51,14.71.92.92,5.15,7.72,4.04,10.66,4.04,10.66H547.95s1.29-6.07,3.49-9.56,7.35-4.78,7.35-4.78l1.65-2.57Z" fill="#f5f6fa" stroke="#263238" stroke-miterlimit="10" stroke-width="1"/>
        <path id="Path_264" data-name="Path 264" d="M584.17,389.41s-1.65-4.04-1.84-4.6-.18-5.88-.74-8.09-5.15-9.01-5.15-9.01l3.31-9.56-1.65-1.29,2.76-6.8-1.54-.72c-3.62.65-18.86,23.51-18.86,23.51l-1.65,2.57s-5.15,1.29-7.35,4.78c-1.89,2.99-3.1,7.84-3.41,9.19h36.13Z" fill="#263238"/>
      </g>
    </g>
  </g>
</svg>
