<svg xmlns="http://www.w3.org/2000/svg" width="1814.821" height="1712.075" viewBox="0 0 1814.821 1712.075">
  <g id="Sandy_Bld-02_Single-06_Converted_" data-name="Sandy_Bld-02_Single-06 [Converted]" transform="translate(-348.583 -376.585)">
    <g id="Illustration">
      <g id="Access_control_system">
        <path id="Path_192" data-name="Path 192" d="M2116.82,1228.56h-18.38a169.189,169.189,0,0,0-6.98-26.04l15.91-9.17-31.1-53.78-15.94,9.19a171.63,171.63,0,0,0-19.08-19.05l9.21-15.92-53.88-31.05-9.18,15.88a170.633,170.633,0,0,0-26.09-6.97V1073.3H1899.1v18.35a169.789,169.789,0,0,0-26.09,6.97l-9.18-15.88-53.88,31.05,9.21,15.92a171.6,171.6,0,0,0-19.08,19.05l-15.94-9.19-31.1,53.78,15.91,9.17a170.344,170.344,0,0,0-6.98,26.04h-18.38v62.1h18.38a169.2,169.2,0,0,0,6.98,26.04l-15.91,9.17,31.1,53.78,15.94-9.19a171.619,171.619,0,0,0,19.08,19.05l-9.21,15.92,53.88,31.05,9.18-15.88a169.463,169.463,0,0,0,26.09,6.96v18.35h62.21v-18.35a170.913,170.913,0,0,0,26.09-6.96l9.18,15.88,53.88-31.05-9.21-15.92a171.6,171.6,0,0,0,19.08-19.05l15.94,9.19,31.1-53.78-15.91-9.17a170.33,170.33,0,0,0,6.98-26.04h18.38v-62.1Zm-58.5,81.19a128.959,128.959,0,0,1-77.9,77.76c-113.86,40.63-219.06-64.37-178.35-178.03a128.959,128.959,0,0,1,77.9-77.76C1993.83,1091.09,2099.03,1196.09,2058.32,1309.75Z" fill="#f5f6fa"/>
        <g id="Group_99" data-name="Group 99">
          <g id="Group_97" data-name="Group 97">
            <g id="Group_96" data-name="Group 96">
              <path id="Path_193" data-name="Path 193" d="M1722.2,1978.15H992.09L1374.07,597.64h730.12Z" fill="#a2bfe5"/>
              <path id="Path_194" data-name="Path 194" d="M1672.67,2060.67H991.46c-20.46,0-37.69-7.84-48.52-22.08-11.45-15.04-14.45-35.25-8.46-56.88L1322.21,580.44c11.97-43.25,56.82-78.43,99.99-78.43h681.21c20.46,0,37.69,7.84,48.52,22.08,11.45,15.04,14.45,35.24,8.46,56.88L1772.66,1982.24c-11.97,43.25-56.82,78.43-99.99,78.43ZM1422.19,504.01c-42.33,0-86.32,34.53-98.06,76.96L936.4,1982.24c-5.82,21.02-2.93,40.6,8.13,55.14,10.45,13.73,27.11,21.29,46.93,21.29h681.21c42.33,0,86.32-34.53,98.06-76.96L2158.46,580.44c5.82-21.02,2.93-40.6-8.13-55.14-10.45-13.73-27.11-21.29-46.93-21.29H1422.19Z" fill="#639ce6"/>
            </g>
            <path id="Path_195" data-name="Path 195" d="M1875.63,1289.39H1214.77l156.04-563.94h660.86Z" fill="#f5f6fa"/>
          </g>
          <path id="Path_196" data-name="Path 196" d="M1551.51,1895.76H1124.26l31.92-112.46h427.25Z" fill="#f5f6fa"/>
          <g id="Group_98" data-name="Group 98">
            <path id="Path_197" data-name="Path 197" d="M1727.93,1557.11l6.01-22.16-325.9,1.82-12.02,44.32,325.9-1.81Z" fill="#f5f6fa"/>
            <path id="Path_198" data-name="Path 198" d="M1703.42,1523.79l-113.06.63,5.68-20.95,113.06-.63Z" fill="#f5f6fa"/>
            <path id="Path_199" data-name="Path 199" d="M1691.36,1460.56l-83.82.47,5.68-20.95,83.82-.47Z" fill="#f5f6fa"/>
            <path id="Path_200" data-name="Path 200" d="M1711.94,1492.37l-113.06.63,5.67-20.94,113.07-.63Z" fill="#f5f6fa"/>
            <path id="Path_201" data-name="Path 201" d="M1462.77,1465.16c-37.91-51.77-122.26-51.3-188.4,1.05s-89.03,136.76-51.12,188.53,122.26,51.3,188.4-1.05S1500.68,1516.93,1462.77,1465.16Zm-175.56,135.68-29.59-40.41,51.63-40.86,29.59,40.41Z" fill="#f5f6fa"/>
          </g>
        </g>
        <g id="Group_105" data-name="Group 105">
          <rect id="Rectangle_30" data-name="Rectangle 30" width="454.63" height="272.8" transform="translate(478.22 789.26)" fill="#a2bfe5"/>
          <g id="Group_101" data-name="Group 101">
            <rect id="Rectangle_31" data-name="Rectangle 31" width="241.2" height="191.75" transform="translate(507.73 870.32)" fill="#f5f6fa"/>
            <g id="Group_100" data-name="Group 100">
              <path id="Path_202" data-name="Path 202" d="M737.18,906.88H519.49a1,1,0,0,1,0-2H737.18a1,1,0,0,1,0,2Z" fill="#a2bfe5"/>
              <path id="Path_203" data-name="Path 203" d="M737.18,935.66H519.49a1,1,0,0,1,0-2H737.18a1,1,0,0,1,0,2Z" fill="#a2bfe5"/>
              <path id="Path_204" data-name="Path 204" d="M737.18,964.44H519.49a1,1,0,0,1,0-2H737.18a1,1,0,0,1,0,2Z" fill="#a2bfe5"/>
              <path id="Path_205" data-name="Path 205" d="M737.18,993.21H519.49a1,1,0,0,1,0-2H737.18a1,1,0,0,1,0,2Z" fill="#a2bfe5"/>
              <path id="Path_206" data-name="Path 206" d="M737.18,1021.99H519.49a1,1,0,0,1,0-2H737.18a1,1,0,0,1,0,2Z" fill="#a2bfe5"/>
            </g>
          </g>
          <path id="Path_207" data-name="Path 207" d="M1016.485,394.85l-237.6,214v453.21h475.21V608.85Z" transform="translate(0.19)" fill="#f5f6fa"/>
          <path id="Path_208" data-name="Path 208" d="M1254.28,592.08a.961.961,0,0,1-.67-.26L1016.58,378.93,779.55,591.82a1,1,0,1,1-1.33-1.49l237.7-213.49a1.008,1.008,0,0,1,1.34,0l237.7,213.49a1,1,0,0,1-.66,1.74Z" fill="#438ae8"/>
          <g id="Group_102" data-name="Group 102">
            <rect id="Rectangle_32" data-name="Rectangle 32" width="141.38" height="210.38" transform="translate(1040.5 808.38)" fill="#a2bfe5"/>
            <rect id="Rectangle_33" data-name="Rectangle 33" width="102.5" height="210.38" transform="translate(1595.56 973.6) rotate(180)" fill="#a2bfe5"/>
          </g>
          <rect id="Rectangle_34" data-name="Rectangle 34" width="185.21" height="181.72" transform="translate(818.15 808.38)" fill="#a2bfe5"/>
          <rect id="Rectangle_35" data-name="Rectangle 35" width="394.66" height="52.08" transform="translate(818.15 737.19)" fill="#a2bfe5"/>
          <path id="Path_210" data-name="Path 210" d="M1212.81,710.48H820.34V606.75l196.29-177.47,196.18,177.47Z" fill="#a2bfe5"/>
          <g id="Group_103" data-name="Group 103">
            <path id="Path_211" data-name="Path 211" d="M909.48,702.86a1,1,0,0,1-1-1V536.37a1,1,0,0,1,2,0V701.86A1,1,0,0,1,909.48,702.86Z" fill="#fff"/>
            <path id="Path_212" data-name="Path 212" d="M1123.68,702.86a1,1,0,0,1-1-1V536.37a1,1,0,0,1,2,0V701.86A1,1,0,0,1,1123.68,702.86Z" fill="#fff"/>
          </g>
          <g id="Group_104" data-name="Group 104">
            <path id="Path_213" data-name="Path 213" d="M909.48,702.86a1,1,0,0,1-1-1V536.37a1,1,0,0,1,2,0V701.86A1,1,0,0,1,909.48,702.86Z" fill="#fff"/>
            <path id="Path_214" data-name="Path 214" d="M1123.68,702.86a1,1,0,0,1-1-1V536.37a1,1,0,0,1,2,0V701.86A1,1,0,0,1,1123.68,702.86Z" fill="#fff"/>
          </g>
          <path id="Path_215" data-name="Path 215" d="M910.75,985.04a1,1,0,0,1-1-1V815.2a1,1,0,0,1,2,0V984.04a1,1,0,0,1-1,1Z" fill="#fff"/>
        </g>
        <g id="Group_110" data-name="Group 110">
          <path id="Path_216" data-name="Path 216" d="M1932.96,1236.39H1042.77l180.14-651.02h890.18Z" fill="#363e44"/>
          <path id="Path_217" data-name="Path 217" d="M2027.27,690.07H1247.76l11.53-42.25H2038.8Z" fill="#f5f6fa"/>
          <g id="Group_107" data-name="Group 107">
            <path id="Path_218" data-name="Path 218" d="M1915.77,901.74H1208.29l31.81-114.81h707.48Z" fill="#438ae8"/>
            <g id="Group_106" data-name="Group 106">
              <ellipse id="Ellipse_4" data-name="Ellipse 4" cx="29.55" cy="22.47" rx="29.55" ry="22.47" transform="matrix(0.779, -0.627, 0.627, 0.779, 1242.019, 847.013)" fill="#f5f6fa"/>
              <ellipse id="Ellipse_5" data-name="Ellipse 5" cx="29.55" cy="22.47" rx="29.55" ry="22.47" transform="matrix(0.779, -0.627, 0.627, 0.779, 1318.065, 847.025)" fill="#f5f6fa"/>
              <ellipse id="Ellipse_6" data-name="Ellipse 6" cx="29.55" cy="22.47" rx="29.55" ry="22.47" transform="matrix(0.779, -0.627, 0.627, 0.779, 1394.109, 847.021)" fill="#f5f6fa"/>
              <ellipse id="Ellipse_7" data-name="Ellipse 7" cx="29.55" cy="22.47" rx="29.55" ry="22.47" transform="matrix(0.779, -0.627, 0.627, 0.779, 1470.154, 847.023)" fill="#f5f6fa"/>
              <ellipse id="Ellipse_8" data-name="Ellipse 8" cx="29.55" cy="22.47" rx="29.55" ry="22.47" transform="matrix(0.779, -0.627, 0.627, 0.779, 1546.19, 847.015)" fill="#f5f6fa"/>
              <ellipse id="Ellipse_9" data-name="Ellipse 9" cx="29.55" cy="22.47" rx="29.55" ry="22.47" transform="matrix(0.779, -0.627, 0.627, 0.779, 1622.236, 847.017)" fill="#f5f6fa"/>
              <ellipse id="Ellipse_10" data-name="Ellipse 10" cx="29.55" cy="22.47" rx="29.55" ry="22.47" transform="matrix(0.779, -0.627, 0.627, 0.779, 1698.282, 847.03)" fill="#f5f6fa"/>
            </g>
          </g>
          <g id="Group_109" data-name="Group 109">
            <path id="Path_219" data-name="Path 219" d="M1868.21,1074.41H1160.73l31.81-114.8h707.48Z" fill="#438ae8"/>
            <g id="Group_108" data-name="Group 108">
              <ellipse id="Ellipse_11" data-name="Ellipse 11" cx="29.55" cy="22.47" rx="29.55" ry="22.47" transform="matrix(0.779, -0.627, 0.627, 0.779, 1194.459, 1019.697)" fill="#f5f6fa"/>
              <ellipse id="Ellipse_12" data-name="Ellipse 12" cx="29.55" cy="22.47" rx="29.55" ry="22.47" transform="matrix(0.779, -0.627, 0.627, 0.779, 1270.505, 1019.699)" fill="#f5f6fa"/>
              <ellipse id="Ellipse_13" data-name="Ellipse 13" cx="29.55" cy="22.47" rx="29.55" ry="22.47" transform="matrix(0.779, -0.627, 0.627, 0.779, 1346.541, 1019.701)" fill="#f5f6fa"/>
              <ellipse id="Ellipse_14" data-name="Ellipse 14" cx="29.55" cy="22.47" rx="29.55" ry="22.47" transform="matrix(0.779, -0.627, 0.627, 0.779, 1422.587, 1019.703)" fill="#f5f6fa"/>
            </g>
          </g>
        </g>
        <g id="Group_121" data-name="Group 121">
          <g id="Group_114" data-name="Group 114">
            <g id="Group_111" data-name="Group 111">
              <path id="Path_220" data-name="Path 220" d="M1019.98,1034.53c-.42,0-.83-.02-1.25-.05-5.81-.48-10.97-4.18-14.54-10.43-3.5-6.12-5.05-13.99-4.38-22.16,1.41-16.99,12.19-30.02,24.03-29.04,5.81.48,10.97,4.18,14.54,10.43,3.5,6.12,5.06,13.99,4.38,22.16-1.36,16.39-11.44,29.09-22.78,29.09Zm2.59-59.73c-10.31,0-19.5,11.91-20.77,27.25-.64,7.76.82,15.22,4.12,21,3.23,5.66,7.84,9.01,12.97,9.43,10.79.89,20.56-11.32,21.88-27.21.64-7.76-.82-15.22-4.12-21-3.23-5.66-7.84-9.01-12.97-9.43-.37-.03-.74-.05-1.1-.05Z" fill="#363e44"/>
              <path id="Path_221" data-name="Path 221" d="M1014.91,997.79c3.9-46.49,2.07-73.94-16.44-95.58-24.87-29.09-66.97-26.32-71.36-25.96-2.8.23-42.85,1.06-64.79,34.8-21.67,33.32-17.41,91.05,1.38,125.66l-37.15,85.58c-11.67,25.66-6.98,36.13,18.72,47.78l5.82,2.64a51.15,51.15,0,0,0,67.67-25.37l24.28-53.39c16.93,6.03,31.97,7.15,40.89,1.25,15.98-10.57,26.39-42.66,30.98-97.41Z" fill="#eacfc7"/>
              <path id="Path_222" data-name="Path 222" d="M1040.57,1008.25a.748.748,0,0,1-.21-.02l-82.75-17.94a1,1,0,1,1,.42-1.96l82.75,17.94a1,1,0,0,1-.21,1.98Z" fill="#363e44"/>
              <path id="Path_223" data-name="Path 223" d="M944.35,1094.02a1.089,1.089,0,0,1-.39-.08,1,1,0,0,1-.53-1.31l8.37-19.78a1,1,0,1,1,1.84.78l-8.37,19.78A1,1,0,0,1,944.35,1094.02Z" fill="#363e44"/>
              <path id="Path_224" data-name="Path 224" d="M940.45,1018.01a1.006,1.006,0,0,1-.95-.69c-2.23-6.83-3.55-11.19-4.51-14.37-.47-1.55-.86-2.83-1.23-3.99a1,1,0,0,1,1.91-.61c.37,1.17.76,2.45,1.23,4.02.96,3.17,2.27,7.52,4.5,14.33a1.006,1.006,0,0,1-.64,1.26,1.114,1.114,0,0,1-.31.05Z" fill="#363e44"/>
              <path id="Path_225" data-name="Path 225" d="M1010.49,903.82c-14.99-38.99-90.88-54.83-133.53-31.72-57.68,31.26-72.6,111.46-42.38,154.77,10.14,14.53,28.74,35.14,58.54,34.87,17.4-.16,24.16-22.56,25.69-28-12.3-8.52-16.64-24.5-10.6-37.35,6.08-12.94,21.12-19.35,33.63-16.05,8.3,2.19,13.28,8.07,15.22,10.65,39.74-27.4,64.12-59.4,53.44-87.18Z" fill="#363e44"/>
            </g>
            <g id="Group_113" data-name="Group 113">
              <path id="Path_226" data-name="Path 226" d="M788.95,686.94c-133.42,15.8-126.07-150.42-126.07-150.42L532,722.53c14.75,73.14,80.08,97.37,80.08,97.37-55.58.7-87.09-37.68-102.57-65.4l-36.45,51.81s32.98,127.95,163.26,76.09,210.91,58.66,210.91,58.66l21.65-58.66S922.37,671.13,788.95,686.94Z" fill="#363e44"/>
              <g id="Group_112" data-name="Group 112">
                <path id="Path_227" data-name="Path 227" d="M832.42,914.5a1.042,1.042,0,0,1-.58-.18,1,1,0,0,1-.24-1.39c7.41-10.5,15.07-21.35,20.23-33.33,2.86-6.64,4.22-12.1,4.27-17.2.07-6.35-2.08-12.15-5.89-15.92-4.29-4.24-10.73-5.66-15.68-3.44a12.323,12.323,0,0,0-6.52,7.67,15.275,15.275,0,0,0,1.05,12.14,16.976,16.976,0,0,0,16.41,8.25,1,1,0,0,1,.24,1.98,19.013,19.013,0,0,1-18.39-9.24,17.335,17.335,0,0,1-1.21-13.75,14.34,14.34,0,0,1,7.6-8.88c5.68-2.55,13.04-.98,17.91,3.84,4.19,4.15,6.56,10.48,6.48,17.36-.06,5.37-1.47,11.08-4.43,17.97-5.24,12.17-12.97,23.11-20.43,33.7a.988.988,0,0,1-.82.42Z" fill="#fff"/>
                <path id="Path_228" data-name="Path 228" d="M823.67,908.25a.994.994,0,0,1-.84-1.54l10.05-15.36a1,1,0,0,1,1.67,1.09L824.5,907.8a1,1,0,0,1-.84.45Z" fill="#fff"/>
              </g>
              <path id="Path_229" data-name="Path 229" d="M839.97,929.01a1.008,1.008,0,0,1-.67-.26c-31.52-28.85-75.82-44.24-118.47-41.19-23.69,1.69-46.94,8.75-69.43,15.58-5.18,1.57-10.53,3.2-15.81,4.73-26.44,7.69-57.47,14.8-87.17,9.27-26.7-4.97-56.99-23.68-64.46-54.29a1,1,0,0,1,1.94-.48c7.26,29.74,36.82,47.95,62.88,52.8,29.3,5.45,60.04-1.61,86.25-9.23,5.26-1.53,10.61-3.15,15.78-4.72,22.59-6.86,45.96-13.95,69.87-15.66,43.18-3.09,88.04,12.5,119.96,41.71a1,1,0,0,1-.68,1.73Z" fill="#363e44"/>
              <path id="Path_230" data-name="Path 230" d="M759.5,958.02a22.289,22.289,0,0,1-11.5-3.13,22.655,22.655,0,0,1-10.66-20.9c.62-7.31,5.07-14.75,12.52-20.95a56.5,56.5,0,0,1,82,10.45,1,1,0,1,1-1.63,1.17,54.493,54.493,0,0,0-79.09-10.08c-7.04,5.86-11.23,12.81-11.8,19.58a20.252,20.252,0,0,0,31.08,18.76c4.83-3.08,8.77-9.33,6.93-15.33a9.577,9.577,0,0,0-6.88-6.06,7.158,7.158,0,0,0-6.21,1.08l1.9,2.94a.994.994,0,1,1-1.67,1.08l-2.8-4.32.56-.57a8.9,8.9,0,0,1,8.7-2.16,11.476,11.476,0,0,1,8.32,7.42c2.13,6.95-2.3,14.11-7.77,17.6a22.4,22.4,0,0,1-11.99,3.41Z" fill="#363e44"/>
            </g>
          </g>
          <path id="Path_231" data-name="Path 231" d="M431.1,1820.3s-21.22,110.17,33.8,161.76H1467.45s117.63-280.36-498.61-257.11L431.1,1820.29Z" fill="#363e44"/>
          <g id="Group_120" data-name="Group 120">
            <g id="Group_115" data-name="Group 115">
              <path id="Path_232" data-name="Path 232" d="M426.49,1407.51c-7.08,1.52-37.61,73.71-68.24,150.49-35.03,87.81,29.44,183.31,124.13,183.98l31.32.22L643,1386.37,426.49,1407.5Z" fill="#eacfc7"/>
              <path id="Path_233" data-name="Path 233" d="M531.04,1418.1H376.49l75.56-151.86a223.624,223.624,0,0,1,200.24-123.9H888.25L531.04,1418.1Z" fill="#8b865c"/>
            </g>
            <g id="Group_116" data-name="Group 116">
              <path id="Path_234" data-name="Path 234" d="M1204.83,1224.15c87.32,35.27,167.56,55.54,223.99,96.25,69.87,50.4,97.73,125.86,65.92,159.62-33.35,35.4-165.68,61.25-342.53-18.74,4.11-72.21,9.08-164.83,52.61-237.13Z" fill="#eacfc7"/>
              <path id="Path_235" data-name="Path 235" d="M1353.84,1319.89c21.32-49.92,74.8-161.45,120.5-244.24,47.99-86.94,131.53-208.34,148.4-196.45,9.6,6.77,1.64,25.68-23.01,74.8,3.73-1.24,15.21-2.75,23.09,4.99,11.66,11.45,5.74,23.94,5.65,25.27,1.23-.52,14.66-5.79,23.77.56,10.25,7.15,12.73,17.69,10.75,27.29,3.1-1.2,14.98-4.48,23.55,1.88,8.81,6.54,13.26,19.75,7.58,29.68-10.42,18.22-42.41,71.79-54.79,99.76-24.37,55.03-84.65,262.05-140.94,332.29-41.34-66.01-103.19-89.8-144.53-155.82Z" fill="#eacfc7"/>
              <path id="Path_236" data-name="Path 236" d="M1568.83,974.38a1.03,1.03,0,0,1-.62-.21l-13.1-10.26a1,1,0,1,1,1.23-1.57l13.1,10.26a1,1,0,0,1-.62,1.78Z" fill="#363e44"/>
              <path id="Path_237" data-name="Path 237" d="M1602.11,1000.38a1.03,1.03,0,0,1-.62-.21l-13.1-10.26a1,1,0,1,1,1.23-1.57l13.1,10.26a1,1,0,0,1-.62,1.78Z" fill="#363e44"/>
              <path id="Path_238" data-name="Path 238" d="M1636.28,1026.48a1.03,1.03,0,0,1-.62-.21l-13.1-10.26a1,1,0,1,1,1.23-1.57l13.1,10.26a1,1,0,0,1-.62,1.78Z" fill="#363e44"/>
              <path id="Path_239" data-name="Path 239" d="M1666.79,1050.78a1.03,1.03,0,0,1-.62-.21l-13.1-10.26a1,1,0,1,1,1.23-1.57l13.1,10.26a1,1,0,0,1-.62,1.78Z" fill="#363e44"/>
            </g>
            <g id="Group_119" data-name="Group 119">
              <g id="Group_117" data-name="Group 117">
                <path id="Path_240" data-name="Path 240" d="M798.26,1142.35c251.96-5.95,460.49,89.31,460.49,89.31l-24.12,273.46-107.07,1.98-65.21,219.83-79.23-2.26-52.55,138.92-554.09,6.27,105.28-373.12s54.45-348.2,316.49-354.39Z" fill="#8b865c"/>
                <path id="Path_241" data-name="Path 241" d="M1128.62,1506.34a1,1,0,0,1-1-.96c-.37-8.94-.56-19.95-.75-30.59-.18-10.62-.37-21.6-.74-30.51a1,1,0,0,1,.96-1.04,1.036,1.036,0,0,1,1.04.96c.37,8.93.56,19.93.74,30.56s.37,21.63.74,30.54a1,1,0,0,1-.96,1.04h-.04Z" fill="#363e44"/>
                <path id="Path_242" data-name="Path 242" d="M501.46,1408.51a.9.9,0,0,1-.28-.04.994.994,0,0,1-.68-1.24l30.06-102.89a1,1,0,1,1,1.92.56l-30.06,102.89a1,1,0,0,1-.96.72Z" fill="#363e44"/>
              </g>
              <g id="Group_118" data-name="Group 118">
                <path id="Path_243" data-name="Path 243" d="M652.29,1142.35s23.43-47.6,83.59-47.77,281.23,46.8,281.23,46.8l10.03,24.9s-175.52,103.4-301.6,118.29-120.69-101.05-73.24-142.22Z" fill="#efbc73"/>
                <path id="Path_244" data-name="Path 244" d="M779.18,1194.07c-25.43,0-42.03-4.83-52.86-11.02-15.96-9.12-18.15-20.53-18.23-21.01a1,1,0,1,1,1.97-.35c.04.22,2.26,11.11,17.38,19.7,26.37,14.97,87.55,21.71,229.24-31.22a1,1,0,1,1,.7,1.88c-84.75,31.66-140.95,42.03-178.2,42.03Z" fill="#363e44"/>
              </g>
            </g>
          </g>
        </g>
        <g id="Group_122" data-name="Group 122">
          <path id="Path_245" data-name="Path 245" d="M1823.26,2088.66a220.115,220.115,0,0,1-220.32-219.92V1698.1a1,1,0,0,1,1-1h438.63a1,1,0,0,1,1,1v170.64a220.115,220.115,0,0,1-220.32,219.92ZM1604.94,1699.1v169.64c0,120.16,97.94,217.92,218.32,217.92s218.32-97.76,218.32-217.92V1699.1H1604.95Zm235.82,274.74h-35.01a1,1,0,0,1-1-1v-91.67a51.28,51.28,0,1,1,37.02,0v91.67a1,1,0,0,1-1,1Zm-34.01-2h33.01v-91.36a1.007,1.007,0,0,1,.65-.94,49.28,49.28,0,1,0-34.32,0,1.007,1.007,0,0,1,.65.94v91.36Z" fill="#363e44"/>
          <path id="Path_246" data-name="Path 246" d="M2018.42,1653.22a1,1,0,0,1-1-1c0-106.86-87.1-193.8-194.16-193.8s-194.16,86.94-194.16,193.8a1,1,0,0,1-2,0c0-107.97,88-195.8,196.16-195.8s196.16,87.84,196.16,195.8A1,1,0,0,1,2018.42,1653.22Z" fill="#363e44"/>
        </g>
      </g>
    </g>
  </g>
</svg>
