<svg xmlns="http://www.w3.org/2000/svg" width="447.424" height="446.492" viewBox="0 0 447.424 446.492">
  <g id="notifications" transform="translate(0.002 -0.003)">
    <circle id="Ellipse_1" data-name="Ellipse 1" cx="3.5" cy="3.5" r="3.5" transform="translate(434.68 379.78)" fill="#4e69ff"/>
    <circle id="Ellipse_2" data-name="Ellipse 2" cx="3.5" cy="3.5" r="3.5" transform="translate(416.43 423.08)" fill="#9fbfff" opacity="0.47"/>
    <circle id="Ellipse_3" data-name="Ellipse 3" cx="2.72" cy="2.72" r="2.72" transform="translate(2.24 60.48)" fill="#9fbfff"/>
    <path id="Path_1" data-name="Path 1" d="M214.53,28.46a4.85,4.85,0,1,1-4.85-4.85,4.848,4.848,0,0,1,4.85,4.85Z" fill="#4e69ff"/>
    <path id="Path_2" data-name="Path 2" d="M9.53,100.14a4.57,4.57,0,1,1-4.57-4.57A4.569,4.569,0,0,1,9.53,100.14Z" fill="#4e69ff"/>
    <circle id="Ellipse_4" data-name="Ellipse 4" cx="1.72" cy="1.72" r="1.72" transform="translate(38.17 55.59)" fill="#1b1b25"/>
    <path id="Path_3" data-name="Path 3" d="M439.67,72.43a2.719,2.719,0,1,1,3.77-.76A2.721,2.721,0,0,1,439.67,72.43Z" fill="#9fbfff"/>
    <path id="Path_4" data-name="Path 4" d="M75.54,428.85a2.719,2.719,0,1,1,3.77-.76A2.721,2.721,0,0,1,75.54,428.85Z" fill="#9fbfff"/>
    <circle id="Ellipse_5" data-name="Ellipse 5" cx="4.57" cy="4.57" r="4.57" transform="matrix(0.98, -0.199, 0.199, 0.98, 379.147, 46.167)" fill="#4e69ff"/>
    <path id="Path_5" data-name="Path 5" d="M399.91,103.94a1.717,1.717,0,1,1,2.38-.48A1.72,1.72,0,0,1,399.91,103.94Z" fill="#1b1b25"/>
    <path id="Path_6" data-name="Path 6" d="M54.7,13.67C56.57,4.1,67.62-1.8,79.37.5s27.92,13.52,26.05,23.09-20.38,6.49-31.57,9.1c-15.61,3.64-21.01-9.45-19.14-19.02Z" fill="#9fbfff" opacity="0.41"/>
    <g id="Group_1" data-name="Group 1" opacity="0.18">
      <path id="Path_7" data-name="Path 7" d="M418.21,391.82c18.51-24.07,30.68-56.88,29.07-87.58-1.67-31.85-14.31-60.91-10.14-93.81,2.39-18.81,8.94-37.09,9.27-56.06C447.98,64.78,302.95-7.16,248.63,78.73c-3.72,5.89-6.75,12.36-11.78,17.18a28.456,28.456,0,0,1-24,7.41c-13.8-2.31-25.72-12.59-39.18-16.72a129.31,129.31,0,0,0-37.63-5.62,144.677,144.677,0,0,0-72.43,19.77C19.99,126.13-7.12,173.8,1.64,224.65c5.18,30.09,22.99,56.51,42.9,79.66,38.08,44.28,85.4,80.29,137.23,107.22,41.88,21.76,88.36,37.92,135.42,34.51A139.75,139.75,0,0,0,418.21,391.82Z" fill="#9fbfff"/>
    </g>
    <g id="Group_2" data-name="Group 2" opacity="0.47">
      <path id="Path_8" data-name="Path 8" d="M445.41,301c4.01-28-1.12-60.2-16.47-84.38-15.92-25.09-39.47-42.89-51.14-71.5-6.67-16.36-9.71-34.2-18.11-49.74C319.98,21.95,169.36,29.9,164.57,124.46c-.33,6.48.17,13.12-1.7,19.34a26.518,26.518,0,0,1-16.08,16.99c-12.26,4.44-26.63,1.55-39.45,4.35a120.277,120.277,0,0,0-33.11,12.65,134.96,134.96,0,0,0-49.75,49.18c-23.81,40.55-24,91.64,6.37,128.9,17.97,22.05,44.5,35.35,71.25,45.03,51.16,18.52,106.04,26.1,160.42,24.25,43.94-1.5,89.06-9.64,125.7-33.94A130.2,130.2,0,0,0,445.41,301Z" fill="#9fbfff"/>
    </g>
    <g id="Group_3" data-name="Group 3" opacity="0.47">
      <path id="Path_9" data-name="Path 9" d="M421.25,302.8c3.17-22.15-.89-47.62-13.03-66.75-12.6-19.84-31.23-33.93-40.45-56.56-5.28-12.94-7.68-27.05-14.33-39.34-31.41-58.09-150.56-51.8-154.35,23-.26,5.13.14,10.38-1.34,15.3a20.973,20.973,0,0,1-12.72,13.44c-9.7,3.51-21.06,1.22-31.21,3.44a95.025,95.025,0,0,0-26.19,10.01,106.71,106.71,0,0,0-39.35,38.9c-18.84,32.08-18.99,72.49,5.04,101.97,14.22,17.45,35.2,27.96,56.36,35.62,40.47,14.65,83.89,20.65,126.9,19.18,34.76-1.18,70.45-7.62,99.44-26.85a102.992,102.992,0,0,0,45.24-71.36Z" fill="#9fbfff"/>
    </g>
    <g id="Group_4" data-name="Group 4" opacity="0.31">
      <path id="Path_10" data-name="Path 10" d="M420.86,134.38a6.292,6.292,0,1,1-4.71-7.55A6.3,6.3,0,0,1,420.86,134.38Z" fill="#9fbfff"/>
    </g>
    <g id="Group_5" data-name="Group 5" opacity="0.31">
      <path id="Path_11" data-name="Path 11" d="M435.23,34.9a11.9,11.9,0,1,1-10.21-13.38A11.9,11.9,0,0,1,435.23,34.9Z" fill="#9fbfff"/>
    </g>
    <g id="Group_6" data-name="Group 6" opacity="0.31">
      <circle id="Ellipse_6" data-name="Ellipse 6" cx="19.55" cy="19.55" r="19.55" transform="translate(6.443 413.769) rotate(-37.09)" fill="#9fbfff"/>
    </g>
    <g id="Group_7" data-name="Group 7" opacity="0.31">
      <path id="Path_12" data-name="Path 12" d="M35.45,179.86a4.111,4.111,0,1,1-3.53-4.62A4.112,4.112,0,0,1,35.45,179.86Z" fill="#9fbfff"/>
    </g>
    <path id="Path_13" data-name="Path 13" d="M389.77,339.13,286.23,401.22a15.209,15.209,0,0,1-15.6.03L39.03,263.69a12.754,12.754,0,0,1-6.24-10.66l-.43-18.37,117.68-61.78L395.66,309.52v19.23a12.092,12.092,0,0,1-5.88,10.38Z" fill="#1b1b25"/>
    <path id="Path_14" data-name="Path 14" d="M391.23,315.16,289.97,376.02a24.208,24.208,0,0,1-24.81.08L36.96,241.03a9.385,9.385,0,0,1,.1-16.21L141.7,164.57a16.665,16.665,0,0,1,16.66.02L391.1,299.43A9.135,9.135,0,0,1,391.23,315.16Z" fill="#292930"/>
    <path id="Path_15" data-name="Path 15" d="M56.67,242.03,166.4,177.66,359.85,289.6,246.82,354.41Z" fill="#fff"/>
    <path id="Path_16" data-name="Path 16" d="M323.89,338.8c-7.61,0-13.8-3.89-13.8-8.67s6.19-8.67,13.8-8.67,13.8,3.89,13.8,8.67S331.5,338.8,323.89,338.8Zm0-16.34c-7.06,0-12.8,3.44-12.8,7.67s5.74,7.67,12.8,7.67,12.8-3.44,12.8-7.67S330.95,322.46,323.89,322.46Z" fill="#ccc"/>
    <path id="Path_17" data-name="Path 17" d="M335.02,363.84a2.029,2.029,0,0,1-.95-.24,1.994,1.994,0,0,1-1.06-1.77v-3.6a2.379,2.379,0,0,1,1.11-2.01l19.4-12.18h0a1.656,1.656,0,0,1,2.54,1.32l.17,3.38a2.5,2.5,0,0,1-1.09,2.17l-19,12.6a1.959,1.959,0,0,1-1.11.34Zm19.03-18.96-19.4,12.18a1.367,1.367,0,0,0-.64,1.16v3.6a1.009,1.009,0,0,0,1.57.84l19-12.6a1.477,1.477,0,0,0,.65-1.28l-.17-3.38a.639.639,0,0,0-.35-.55.652.652,0,0,0-.66.03h0Z" fill="#ccc"/>
    <path id="Path_18" data-name="Path 18" d="M80.17,214.92a.5.5,0,0,1-.44-.26.494.494,0,0,1,.19-.68l35.73-20.03a.5.5,0,1,1,.49.87L80.41,214.85a.533.533,0,0,1-.24.06Z" fill="#ccc"/>
    <path id="Path_19" data-name="Path 19" d="M93.56,288.01a2.525,2.525,0,0,1-1.3-.36L62.11,269.61a2.527,2.527,0,0,1-1.23-2.3h0a2.543,2.543,0,0,1,3.82-2.07L94.87,282.9a2.511,2.511,0,0,1,1.25,2.31l-.02.38a2.514,2.514,0,0,1-1.34,2.12,2.571,2.571,0,0,1-1.2.3ZM61.87,267.35a1.519,1.519,0,0,0,.75,1.39l30.15,18.04a1.553,1.553,0,0,0,1.52.04,1.524,1.524,0,0,0,.81-1.29l.02-.38a1.524,1.524,0,0,0-.76-1.4L64.19,266.09a1.539,1.539,0,0,0-2.31,1.26h0Z" fill="#ccc"/>
    <path id="Path_20" data-name="Path 20" d="M133.45,310.12a2.521,2.521,0,0,1-1.27-.34l-30.44-17.54a2.539,2.539,0,0,1-1.27-2.28h0a2.541,2.541,0,0,1,3.79-2.14l30.46,17.16a2.512,2.512,0,0,1,1.29,2.29v.38a2.55,2.55,0,0,1-1.31,2.14,2.5,2.5,0,0,1-1.24.33ZM101.47,290a1.529,1.529,0,0,0,.77,1.38l30.44,17.54a1.542,1.542,0,0,0,2.31-1.29v-.38a1.5,1.5,0,0,0-.77-1.39L103.76,288.7a1.536,1.536,0,0,0-2.29,1.29h0Z" fill="#ccc"/>
    <g id="Group_8" data-name="Group 8" opacity="0.28">
      <path id="Path_21" data-name="Path 21" d="M340.26,294.66l-14.51-7.76-25.92-14.73a4.467,4.467,0,0,0-4.42,0L226.7,311.51a3.675,3.675,0,0,0-.02,6.37l19.84,11.56a7.549,7.549,0,0,0,7.63-.03l60.43-35.88,25.69,1.13Z" fill="#9fbfff"/>
      <path id="Path_22" data-name="Path 22" d="M342.46,285.81l-14.51-7.76-25.92-14.73a4.467,4.467,0,0,0-4.42,0L228.9,302.66a3.675,3.675,0,0,0-.02,6.37l19.84,11.56a7.549,7.549,0,0,0,7.63-.03l60.43-35.88,25.69,1.13Z" fill="#4e69ff"/>
      <path id="Path_23" data-name="Path 23" d="M240.02,305.68a.52.52,0,0,1-.43-.24.5.5,0,0,1,.17-.69l35.78-21.55a.5.5,0,0,1,.52.86l-35.78,21.55a.485.485,0,0,1-.26.07Z" fill="#fff"/>
      <path id="Path_24" data-name="Path 24" d="M246.34,309.83a.507.507,0,0,1-.43-.24.513.513,0,0,1,.17-.69l42.98-25.63a.506.506,0,0,1,.69.17.513.513,0,0,1-.17.69L246.6,309.76a.485.485,0,0,1-.26.07Z" fill="#fff"/>
      <path id="Path_25" data-name="Path 25" d="M253.15,313.64a.5.5,0,0,1-.43-.24.5.5,0,0,1,.17-.69l39.56-24.24a.5.5,0,1,1,.52.86l-39.56,24.24a.485.485,0,0,1-.26.07Z" fill="#fff"/>
      <path id="Path_26" data-name="Path 26" d="M302.9,284.28h-.08a11.54,11.54,0,0,1-6.83-2.14,6.544,6.544,0,0,1-2.89-5.24c.02-4.02,4.38-7.27,9.73-7.27h.08a11.54,11.54,0,0,1,6.83,2.14,6.144,6.144,0,0,1-.06,10.46A11.533,11.533,0,0,1,302.9,284.28Zm-.07-13.65c-4.8,0-8.71,2.8-8.73,6.27a5.58,5.58,0,0,0,2.48,4.44,10.591,10.591,0,0,0,6.24,1.94,10.8,10.8,0,0,0,6.27-1.86,5.156,5.156,0,0,0,.06-8.85,10.591,10.591,0,0,0-6.24-1.94h-.07Z" fill="#fff"/>
      <path id="Path_27" data-name="Path 27" d="M251.54,243.51l-14.51-7.76-25.92-14.73a4.467,4.467,0,0,0-4.42,0l-68.71,39.34a3.675,3.675,0,0,0-.02,6.37l19.84,11.56a7.549,7.549,0,0,0,7.63-.03l60.43-35.88,25.69,1.13Z" fill="#9fbfff"/>
      <path id="Path_28" data-name="Path 28" d="M208.88,212.19l-68.71,39.34a3.675,3.675,0,0,0-.02,6.37l19.84,11.56a7.549,7.549,0,0,0,7.63-.03l71.61-42.52-25.92-14.73a4.467,4.467,0,0,0-4.42,0Z" fill="#4e69ff"/>
      <path id="Path_29" data-name="Path 29" d="M253.73,234.67l-14.51-7.77-11.18,6.64Z" fill="#4e69ff"/>
      <path id="Path_30" data-name="Path 30" d="M151.29,254.53a.52.52,0,0,1-.43-.24.5.5,0,0,1,.17-.69l35.78-21.55a.5.5,0,0,1,.52.86l-35.78,21.55a.484.484,0,0,1-.26.07Z" fill="#fff"/>
      <path id="Path_31" data-name="Path 31" d="M157.62,258.68a.507.507,0,0,1-.43-.24.513.513,0,0,1,.17-.69l42.98-25.63a.5.5,0,1,1,.52.86l-42.98,25.63a.485.485,0,0,1-.26.07Z" fill="#fff"/>
      <path id="Path_32" data-name="Path 32" d="M164.42,262.49a.5.5,0,0,1-.43-.24.511.511,0,0,1,.16-.69l39.56-24.24a.5.5,0,0,1,.52.86l-39.56,24.24a.485.485,0,0,1-.26.07Z" fill="#fff"/>
      <path id="Path_33" data-name="Path 33" d="M214.17,233.14h-.08a11.54,11.54,0,0,1-6.83-2.14,6.544,6.544,0,0,1-2.89-5.24c.02-4.04,4.39-7.33,9.81-7.27a11.593,11.593,0,0,1,6.84,2.14,6.544,6.544,0,0,1,2.89,5.24h0a6.506,6.506,0,0,1-2.95,5.21,11.533,11.533,0,0,1-6.78,2.05Zm-.07-13.65c-4.8,0-8.71,2.8-8.73,6.27a5.58,5.58,0,0,0,2.48,4.44,10.591,10.591,0,0,0,6.24,1.94,10.731,10.731,0,0,0,6.27-1.86,5.156,5.156,0,0,0,.06-8.85,10.591,10.591,0,0,0-6.24-1.94h-.07Z" fill="#fff"/>
      <path id="Path_34" data-name="Path 34" d="M263.1,267.03l-22.37-12.71a4.467,4.467,0,0,0-4.42,0L167.6,293.66a3.675,3.675,0,0,0-.02,6.37l37.16,22.65-3.87-14.58h0l62.28-36.98a2.373,2.373,0,0,0-.04-4.1Z" fill="#9fbfff"/>
      <path id="Path_35" data-name="Path 35" d="M264.06,259.12l-22.4-12.73a4.467,4.467,0,0,0-4.42,0l-68.71,39.34a3.675,3.675,0,0,0-.02,6.37l19.84,11.55a7.493,7.493,0,0,0,1.3.58h-.02l16.03,10.51-3.87-14.58,62.31-37a2.346,2.346,0,0,0-.04-4.06Z" fill="#ffb54a"/>
      <path id="Path_36" data-name="Path 36" d="M194.79,284.17a.507.507,0,0,1-.43-.24.513.513,0,0,1,.17-.69l42.98-25.63a.5.5,0,0,1,.52.86L195.05,284.1a.485.485,0,0,1-.26.07Z" fill="#fff"/>
      <path id="Path_37" data-name="Path 37" d="M201.59,287.97a.5.5,0,0,1-.43-.24.511.511,0,0,1,.16-.69l39.56-24.24a.5.5,0,0,1,.52.86L201.84,287.9a.485.485,0,0,1-.26.07Z" fill="#fff"/>
      <path id="Path_38" data-name="Path 38" d="M177.91,212.33l-22.37-12.71a4.467,4.467,0,0,0-4.42,0L82.41,238.96a3.675,3.675,0,0,0-.02,6.37l37.16,22.65-3.87-14.58h0l62.28-36.98a2.373,2.373,0,0,0-.04-4.1Z" fill="#9fbfff"/>
      <path id="Path_39" data-name="Path 39" d="M178.87,204.43l-22.4-12.73a4.467,4.467,0,0,0-4.42,0L83.34,231.04a3.675,3.675,0,0,0-.02,6.37l19.84,11.56a7.493,7.493,0,0,0,1.3.58h-.02l16.03,10.51-3.87-14.58,62.31-37a2.346,2.346,0,0,0-.04-4.06Z" fill="#ffb54a"/>
      <path id="Path_40" data-name="Path 40" d="M109.59,229.47a.507.507,0,0,1-.43-.24.513.513,0,0,1,.17-.69l42.98-25.63a.5.5,0,0,1,.52.86L109.85,229.4a.484.484,0,0,1-.26.07Z" fill="#fff"/>
      <path id="Path_41" data-name="Path 41" d="M116.39,233.28a.5.5,0,0,1-.43-.24.511.511,0,0,1,.16-.69l39.56-24.24a.5.5,0,0,1,.69.17.511.511,0,0,1-.16.69l-39.56,24.24a.484.484,0,0,1-.26.07Z" fill="#fff"/>
    </g>
    <path id="Path_42" data-name="Path 42" d="M370.71,265.65l-14.51-7.76-25.92-14.73a4.467,4.467,0,0,0-4.42,0L257.15,282.5a3.675,3.675,0,0,0-.02,6.37l19.84,11.56a7.549,7.549,0,0,0,7.63-.03l60.43-35.88,25.69,1.13Z" fill="#9fbfff"/>
    <path id="Path_43" data-name="Path 43" d="M372.91,256.81l-14.51-7.76-25.92-14.73a4.467,4.467,0,0,0-4.42,0l-68.71,39.34a3.675,3.675,0,0,0-.02,6.37l19.84,11.56a7.549,7.549,0,0,0,7.63-.03l60.43-35.88,25.69,1.13Z" fill="#4e69ff"/>
    <path id="Path_44" data-name="Path 44" d="M270.47,276.67a.52.52,0,0,1-.43-.24.5.5,0,0,1,.17-.69l35.78-21.55a.5.5,0,1,1,.52.86L270.73,276.6A.485.485,0,0,1,270.47,276.67Z" fill="#fff"/>
    <path id="Path_45" data-name="Path 45" d="M276.79,280.83a.507.507,0,0,1-.43-.24.513.513,0,0,1,.17-.69l42.98-25.63a.506.506,0,0,1,.69.17.513.513,0,0,1-.17.69l-42.98,25.63A.485.485,0,0,1,276.79,280.83Z" fill="#fff"/>
    <path id="Path_46" data-name="Path 46" d="M283.59,284.63a.5.5,0,0,1-.43-.24.5.5,0,0,1,.17-.69l39.56-24.24a.5.5,0,1,1,.52.86l-39.56,24.24a.485.485,0,0,1-.26.07Z" fill="#fff"/>
    <path id="Path_47" data-name="Path 47" d="M333.35,255.28h-.08a11.54,11.54,0,0,1-6.83-2.14,6.544,6.544,0,0,1-2.89-5.24c.02-4.02,4.38-7.27,9.73-7.27h.08a11.54,11.54,0,0,1,6.83,2.14,6.144,6.144,0,0,1-.06,10.46,11.562,11.562,0,0,1-6.78,2.06Zm-.07-13.65c-4.8,0-8.71,2.8-8.73,6.27a5.58,5.58,0,0,0,2.48,4.44,10.591,10.591,0,0,0,6.24,1.94h.07a10.571,10.571,0,0,0,6.19-1.86,5.546,5.546,0,0,0,2.54-4.41h0a5.58,5.58,0,0,0-2.48-4.44,10.591,10.591,0,0,0-6.24-1.94Z" fill="#fff"/>
    <path id="Path_48" data-name="Path 48" d="M281.99,214.5l-14.51-7.76-25.92-14.73a4.467,4.467,0,0,0-4.42,0l-68.71,39.34a3.675,3.675,0,0,0-.02,6.37l19.84,11.56a7.549,7.549,0,0,0,7.63-.03l60.43-35.88L282,214.5Z" fill="#9fbfff"/>
    <path id="Path_49" data-name="Path 49" d="M239.33,183.18l-68.71,39.34a3.675,3.675,0,0,0-.02,6.37l19.84,11.56a7.549,7.549,0,0,0,7.63-.03l71.61-42.52-25.92-14.73a4.467,4.467,0,0,0-4.42,0Z" fill="#4e69ff"/>
    <path id="Path_50" data-name="Path 50" d="M284.18,205.66l-14.51-7.76-11.18,6.63Z" fill="#4e69ff"/>
    <path id="Path_51" data-name="Path 51" d="M181.74,225.52a.52.52,0,0,1-.43-.24.5.5,0,0,1,.17-.69l35.78-21.55a.5.5,0,1,1,.52.86L182,225.45a.484.484,0,0,1-.26.07Z" fill="#fff"/>
    <path id="Path_52" data-name="Path 52" d="M188.07,229.68a.507.507,0,0,1-.43-.24.513.513,0,0,1,.17-.69l42.98-25.63a.5.5,0,1,1,.52.86l-42.98,25.63a.484.484,0,0,1-.26.07Z" fill="#fff"/>
    <path id="Path_53" data-name="Path 53" d="M194.87,233.48a.5.5,0,0,1-.43-.24.5.5,0,0,1,.17-.69l39.56-24.24a.513.513,0,0,1,.69.16.5.5,0,0,1-.17.69L195.13,233.4a.484.484,0,0,1-.26.07Z" fill="#fff"/>
    <path id="Path_54" data-name="Path 54" d="M244.62,204.13h-.08a11.54,11.54,0,0,1-6.83-2.14,6.135,6.135,0,0,1,.06-10.45,11.724,11.724,0,0,1,6.86-2.06,11.593,11.593,0,0,1,6.84,2.14,6.135,6.135,0,0,1-.06,10.45,11.539,11.539,0,0,1-6.78,2.06Zm-.07-13.65a10.571,10.571,0,0,0-6.19,1.86,5.156,5.156,0,0,0-.06,8.85,10.591,10.591,0,0,0,6.24,1.94h.08a10.571,10.571,0,0,0,6.19-1.86,5.156,5.156,0,0,0,.06-8.85,10.591,10.591,0,0,0-6.24-1.94Z" fill="#fff"/>
    <path id="Path_55" data-name="Path 55" d="M293.55,238.02l-22.37-12.71a4.467,4.467,0,0,0-4.42,0l-68.71,39.34a3.675,3.675,0,0,0-.02,6.37l37.16,22.65-3.87-14.58h0l62.28-36.98a2.373,2.373,0,0,0-.04-4.1Z" fill="#9fbfff"/>
    <path id="Path_56" data-name="Path 56" d="M294.51,230.12l-22.4-12.73a4.467,4.467,0,0,0-4.42,0l-68.71,39.34a3.675,3.675,0,0,0-.02,6.37l19.84,11.56a7.493,7.493,0,0,0,1.3.58h-.02l16.03,10.51-3.87-14.58,62.31-37a2.346,2.346,0,0,0-.04-4.06Z" fill="#ffb54a"/>
    <path id="Path_57" data-name="Path 57" d="M225.23,255.16a.507.507,0,0,1-.43-.24.513.513,0,0,1,.17-.69l42.98-25.63a.5.5,0,1,1,.52.86l-42.98,25.63a.484.484,0,0,1-.26.07Z" fill="#fff"/>
    <path id="Path_58" data-name="Path 58" d="M232.04,258.97a.52.52,0,0,1-.43-.24.5.5,0,0,1,.17-.69l39.56-24.24a.5.5,0,1,1,.52.86L232.3,258.9A.485.485,0,0,1,232.04,258.97Z" fill="#fff"/>
    <path id="Path_59" data-name="Path 59" d="M208.35,183.33l-22.37-12.71a4.467,4.467,0,0,0-4.42,0l-68.71,39.34a3.675,3.675,0,0,0-.02,6.37l37.16,22.65-3.87-14.58h0l62.28-36.98a2.373,2.373,0,0,0-.04-4.1Z" fill="#9fbfff"/>
    <path id="Path_60" data-name="Path 60" d="M209.31,175.42l-22.4-12.73a4.467,4.467,0,0,0-4.42,0l-68.71,39.34a3.675,3.675,0,0,0-.02,6.37l19.84,11.56a7.493,7.493,0,0,0,1.3.58h-.02l16.03,10.51-3.87-14.58,62.31-37a2.346,2.346,0,0,0-.04-4.06Z" fill="#ffb54a"/>
    <path id="Path_61" data-name="Path 61" d="M140.04,200.46a.507.507,0,0,1-.43-.24.513.513,0,0,1,.17-.69l42.98-25.63a.5.5,0,0,1,.52.86L140.3,200.39a.484.484,0,0,1-.26.07Z" fill="#fff"/>
    <path id="Path_62" data-name="Path 62" d="M146.84,204.27a.52.52,0,0,1-.43-.24.511.511,0,0,1,.16-.69l39.56-24.24a.511.511,0,0,1,.69.16.5.5,0,0,1-.17.69l-39.56,24.24a.484.484,0,0,1-.26.07Z" fill="#fff"/>
    <g id="Group_9" data-name="Group 9" opacity="0.5">
      <path id="Path_63" data-name="Path 63" d="M312.26,142.07l-3.2.03a14.541,14.541,0,0,1-14.66-14.42l-.13-16.23a14.541,14.541,0,0,1,14.42-14.66l30.32-.25a15.6,15.6,0,0,0-2.38-.19l-31.48.26a15,15,0,0,0-14.87,15.11l.14,16.73c.07,8.28,6.84,16.02,15.11,15.96l3.85-.03,12.33,11.57,11.56-11.81h0l-9.29,9.44-11.71-11.52Z" fill="#9fbfff"/>
      <path id="Path_64" data-name="Path 64" d="M321.72,156.66l-12.54-11.77-3.65.03a14.825,14.825,0,0,1-11.01-5.01,17.291,17.291,0,0,1-4.61-11.44l-.14-16.73a15.5,15.5,0,0,1,15.37-15.62l31.48-.26a15.925,15.925,0,0,1,2.46.19l-.07.99-30.32.25a14.046,14.046,0,0,0-13.92,14.16l.13,16.23a14.061,14.061,0,0,0,14.04,13.93h.12l3.41-.03,11.5,11.32,8.94-9.09.71.7h0l-11.9,12.16Zm-12.15-12.77,12.12,11.37,1.6-1.64-11.23-11.05-2.99.02h-.13a15.062,15.062,0,0,1-15.04-14.92l-.13-16.23a15.062,15.062,0,0,1,9.88-14.25,14.493,14.493,0,0,0-12.88,14.52l.14,16.73a16.283,16.283,0,0,0,4.35,10.77,13.8,13.8,0,0,0,10.16,4.69h.11l4.05-.03Z" fill="#fff"/>
      <path id="Path_65" data-name="Path 65" d="M353.89,110.95a14.541,14.541,0,0,0-14.66-14.42h-.22l-30.32.25a14.541,14.541,0,0,0-14.42,14.66l.13,16.23a14.541,14.541,0,0,0,14.66,14.42l3.2-.03,11.71,11.52,9.29-9.44,2.23-2.27,4.1-.03a14.541,14.541,0,0,0,14.42-14.66l-.13-16.23Z" fill="#9fbfff"/>
      <path id="Path_66" data-name="Path 66" d="M323.98,154.3l-11.92-11.73-2.99.02h-.13a15.062,15.062,0,0,1-15.04-14.92l-.13-16.23a15.049,15.049,0,0,1,14.92-15.16l30.54-.25h.13a15.039,15.039,0,0,1,15.03,14.92l.13,16.23a15.064,15.064,0,0,1-14.92,15.17l-3.9.03L323.97,154.3Zm-11.52-12.73,11.5,11.32,11.32-11.5,4.31-.04a14.052,14.052,0,0,0,13.92-14.16l-.13-16.23a14.032,14.032,0,0,0-14.03-13.92h-.12l-30.54.25a14.046,14.046,0,0,0-13.92,14.16l.13,16.23a14.061,14.061,0,0,0,14.04,13.93h.12l3.41-.03Z" fill="#fff"/>
      <path id="Path_67" data-name="Path 67" d="M312.98,121.93a3.8,3.8,0,1,1-1.89-5.03A3.8,3.8,0,0,1,312.98,121.93Z" fill="#9fbfff"/>
      <path id="Path_68" data-name="Path 68" d="M309.51,124.66a4.135,4.135,0,0,1-1.77-.39,4.313,4.313,0,0,1-2.14-5.7,4.264,4.264,0,0,1,2.41-2.25,4.3,4.3,0,0,1,5.43,5.81h0a4.316,4.316,0,0,1-3.92,2.52Zm0-7.61a3.346,3.346,0,0,0-1.16.21,3.3,3.3,0,1,0,4.16,4.46h0a3.31,3.31,0,0,0-3-4.67Zm3.46,4.88Z" fill="#fff"/>
      <path id="Path_69" data-name="Path 69" d="M327.52,121.52a3.8,3.8,0,1,1-1.89-5.03A3.8,3.8,0,0,1,327.52,121.52Z" fill="#9fbfff"/>
      <path id="Path_70" data-name="Path 70" d="M324.06,124.25a4.135,4.135,0,0,1-1.77-.39,4.321,4.321,0,1,1,1.78.38Zm0-7.61a3.346,3.346,0,0,0-1.16.21,3.267,3.267,0,1,0,1.16-.21Z" fill="#fff"/>
      <path id="Path_71" data-name="Path 71" d="M341.72,121.11a3.8,3.8,0,1,1-1.89-5.03A3.8,3.8,0,0,1,341.72,121.11Z" fill="#9fbfff"/>
      <path id="Path_72" data-name="Path 72" d="M338.26,123.84a4.32,4.32,0,0,1-4.03-2.8,4.3,4.3,0,1,1,7.95.27h0a4.264,4.264,0,0,1-2.41,2.25A4.386,4.386,0,0,1,338.26,123.84Zm0-7.61a3.308,3.308,0,0,0-1.37,6.32,3.358,3.358,0,0,0,2.53.09,3.275,3.275,0,0,0,1.85-1.73h0a3.313,3.313,0,0,0-3-4.68Z" fill="#fff"/>
    </g>
    <path id="Path_73" data-name="Path 73" d="M270.86,164.17l-2.58.02a11.73,11.73,0,0,1-11.82-11.62l-.11-13.08a11.73,11.73,0,0,1,11.62-11.82l24.44-.2a11.136,11.136,0,0,0-1.92-.15l-25.38.21a12.082,12.082,0,0,0-11.98,12.18l.11,13.49c.06,6.67,5.51,12.92,12.18,12.86l3.1-.02,9.94,9.33,9.32-9.52h0l-7.49,7.61-9.44-9.29Z" fill="#c12736"/>
    <path id="Path_74" data-name="Path 74" d="M304.41,139.08a11.711,11.711,0,0,0-11.82-11.62h-.18l-24.44.2a11.711,11.711,0,0,0-11.62,11.82l.11,13.08a11.711,11.711,0,0,0,11.82,11.62l2.58-.02,9.44,9.29,7.49-7.61,1.8-1.83,3.31-.03a11.711,11.711,0,0,0,11.62-11.82l-.11-13.08Z" fill="#f13c45"/>
    <path id="Path_75" data-name="Path 75" d="M280.25,158.2a.432.432,0,0,1-.28-.13c-2.61-2.15-5.16-4.46-7.62-6.7l-.45-.41c-2.13-1.93-4.54-4.59-4.3-8.03a6.66,6.66,0,0,1,6.68-6.27h0a6.882,6.882,0,0,1,5.95,3.49,6.888,6.888,0,0,1,5.96-3.48h0a6.944,6.944,0,0,1,6.34,4.24,6.323,6.323,0,0,1,.5,2.66c-.09,3.25-2.51,5.72-4.76,7.78l-.33.31c-5.99,5.52-7.22,6.55-7.7,6.55Zm-5.97-20.55a5.588,5.588,0,0,0-5.68,5.34c-.21,3.02,2.02,5.45,3.97,7.22l.45.41c2.37,2.16,4.82,4.38,7.33,6.46.54-.4,2.18-1.79,6.93-6.16l.33-.31c2.2-2.01,4.35-4.22,4.44-7.07h0a5.515,5.515,0,0,0-.42-2.25,5.941,5.941,0,0,0-5.42-3.62h0a5.9,5.9,0,0,0-5.49,3.83l-.47,1.26-.47-1.26a5.909,5.909,0,0,0-5.49-3.85h0Z" fill="#fff"/>
    <path id="Path_76" data-name="Path 76" d="M312.26,203.26l-3.2.03a14.541,14.541,0,0,1-14.66-14.42l-.13-16.23a14.541,14.541,0,0,1,14.42-14.66l30.32-.25a15.6,15.6,0,0,0-2.38-.19l-31.48.26a15,15,0,0,0-14.87,15.11l.14,16.73c.07,8.28,6.84,16.02,15.11,15.96l3.85-.03,12.33,11.57,11.56-11.81h0l-9.29,9.44-11.71-11.52Z" fill="#3a5ce8"/>
    <path id="Path_77" data-name="Path 77" d="M353.89,172.14a14.541,14.541,0,0,0-14.66-14.42h-.22l-30.32.25a14.541,14.541,0,0,0-14.42,14.66l.13,16.23a14.541,14.541,0,0,0,14.66,14.42l3.2-.03,11.71,11.52,9.29-9.44,2.23-2.27,4.1-.03a14.541,14.541,0,0,0,14.42-14.66l-.13-16.23Z" fill="#4e69ff"/>
    <path id="Path_78" data-name="Path 78" d="M345.47,173.73H304.29a.5.5,0,0,1,0-1h41.18a.5.5,0,0,1,0,1Z" fill="#fff"/>
    <path id="Path_79" data-name="Path 79" d="M345.47,189.43H304.29a.5.5,0,0,1,0-1h41.18a.5.5,0,0,1,0,1Z" fill="#fff"/>
    <path id="Path_80" data-name="Path 80" d="M324.14,181.67H304.29a.5.5,0,0,1,0-1h19.85a.5.5,0,0,1,0,1Z" fill="#fff"/>
    <path id="Path_81" data-name="Path 81" d="M345.47,181.67h-16a.5.5,0,0,1,0-1h16a.5.5,0,0,1,0,1Z" fill="#fff"/>
    <g id="Group_10" data-name="Group 10" opacity="0.43">
      <path id="Path_82" data-name="Path 82" d="M124.14,115.01l-5.98.05A27.176,27.176,0,0,1,90.77,88.12L90.52,57.8a27.176,27.176,0,0,1,26.94-27.39l56.81-.47a28.238,28.238,0,0,0-4.62-.35l-58.81.49A28.006,28.006,0,0,0,83.07,58.31l.26,31.26c.13,15.46,12.77,29.93,28.23,29.8l7.18-.05,23.03,21.62,21.59-22.05h0l-17.35,17.64-21.88-21.52Z" fill="#fff"/>
      <path id="Path_83" data-name="Path 83" d="M141.79,141.64l-23.24-21.81-6.98.05h-.2c-15.09,0-28.4-14.11-28.54-30.3l-.26-31.26a28.493,28.493,0,0,1,28.26-28.73l58.81-.49a30.227,30.227,0,0,1,4.71.35l-.07.99-56.81.47A26.649,26.649,0,0,0,91.03,57.79l.25,30.32a26.7,26.7,0,0,0,26.66,26.44h.22l6.19-.05,21.67,21.31,17-17.28.71.7-21.94,22.4Zm-22.85-22.82,22.82,21.42,3.59-3.67-21.41-21.06-5.77.05h-.23A27.7,27.7,0,0,1,90.28,88.13l-.25-30.32a27.682,27.682,0,0,1,21.6-27.23h-.78A27.5,27.5,0,0,0,83.58,58.31l.26,31.26c.13,15.66,12.97,29.31,27.54,29.31h.19l7.38-.05Z" fill="#9fbfff"/>
      <path id="Path_84" data-name="Path 84" d="M201.89,56.88A27.163,27.163,0,0,0,174.5,29.94h-.24l-56.81.47A27.17,27.17,0,0,0,90.51,57.8l.25,30.32a27.17,27.17,0,0,0,27.39,26.94l5.98-.05,21.88,21.52,17.35-17.64,4.17-4.24,7.67-.06A27.17,27.17,0,0,0,202.14,87.2l-.25-30.32Z" fill="#fff"/>
      <path id="Path_85" data-name="Path 85" d="M146.02,137.24l-22.09-21.73-5.77.05h-.23A27.7,27.7,0,0,1,90.27,88.13l-.25-30.32a27.656,27.656,0,0,1,27.43-27.89l57.05-.47a27.656,27.656,0,0,1,27.89,27.43l.25,30.32a27.7,27.7,0,0,1-27.43,27.89l-7.46.06-21.73,22.09Zm-21.68-22.73,21.67,21.31,21.31-21.67,7.87-.07A26.692,26.692,0,0,0,201.63,87.2l-.25-30.32A26.649,26.649,0,0,0,174.5,30.44l-57.05.47A26.649,26.649,0,0,0,91.01,57.79l.25,30.32a26.7,26.7,0,0,0,26.66,26.44h.22l6.19-.05Z" fill="#9fbfff"/>
      <path id="Path_86" data-name="Path 86" d="M125.47,77.39a7.1,7.1,0,1,1-3.53-9.4A7.1,7.1,0,0,1,125.47,77.39Z" fill="#fff"/>
      <path id="Path_87" data-name="Path 87" d="M119,82.05a7.612,7.612,0,1,1,6.93-4.46A7.551,7.551,0,0,1,119,82.05Zm.02-14.2a6.6,6.6,0,1,0,2.72.59,6.608,6.608,0,0,0-2.72-.59Z" fill="#9fbfff"/>
      <path id="Path_88" data-name="Path 88" d="M152.65,76.61a7.1,7.1,0,1,1-3.53-9.4A7.1,7.1,0,0,1,152.65,76.61Z" fill="#fff"/>
      <path id="Path_89" data-name="Path 89" d="M146.18,81.28a7.507,7.507,0,0,1-3.14-.69,7.615,7.615,0,0,1-3.78-10.07,7.588,7.588,0,1,1,6.91,10.75Zm.01-14.21a6.6,6.6,0,1,0,2.31,12.78,6.547,6.547,0,0,0,3.69-3.45h0a6.6,6.6,0,0,0-6-9.33Z" fill="#9fbfff"/>
      <path id="Path_90" data-name="Path 90" d="M179.16,75.85a7.1,7.1,0,1,1-3.53-9.4A7.1,7.1,0,0,1,179.16,75.85Z" fill="#fff"/>
      <path id="Path_91" data-name="Path 91" d="M172.69,80.52a7.6,7.6,0,1,1,6.95-4.45h0a7.611,7.611,0,0,1-6.93,4.46Zm.02-14.2a6.6,6.6,0,1,0,6,9.33h0a6.6,6.6,0,0,0-6-9.33Zm6.46,9.54Z" fill="#9fbfff"/>
      <path id="Path_92" data-name="Path 92" d="M196.26,122.95l-3.01.02a13.679,13.679,0,0,1-13.79-13.56l-.13-15.26a13.679,13.679,0,0,1,13.56-13.79l28.51-.24a15.043,15.043,0,0,0-2.24-.18l-29.61.25A14.1,14.1,0,0,0,175.57,94.4l.13,15.74c.06,7.79,6.43,15.07,14.21,15l3.62-.03,11.6,10.88L216,124.89h0l-8.73,8.88-11.02-10.83Z" fill="#fff"/>
      <path id="Path_93" data-name="Path 93" d="M205.15,136.71l-11.81-11.08-3.42.02a13.873,13.873,0,0,1-10.37-4.72,16.3,16.3,0,0,1-4.34-10.78l-.13-15.74a14.618,14.618,0,0,1,14.48-14.72l29.61-.25a15.183,15.183,0,0,1,2.32.18l-.07.99-28.51.24a13.179,13.179,0,0,0-13.06,13.29l.13,15.26a13.179,13.179,0,0,0,13.29,13.06l3.22-.03,10.81,10.63,8.38-8.52.71.7h0l-11.21,11.45Zm-11.42-12.08,11.39,10.69,1.47-1.5-10.53-10.36-2.8.02h-.12a14.169,14.169,0,0,1-14.17-14.06l-.13-15.26a14.193,14.193,0,0,1,9.05-13.34,13.611,13.611,0,0,0-11.8,13.59l.13,15.74a15.309,15.309,0,0,0,4.08,10.11,12.833,12.833,0,0,0,9.63,4.4l3.82-.03Z" fill="#9fbfff"/>
      <path id="Path_94" data-name="Path 94" d="M235.41,93.68a13.679,13.679,0,0,0-13.79-13.56h-.21l-28.51.24a13.679,13.679,0,0,0-13.56,13.79l.13,15.26a13.679,13.679,0,0,0,13.79,13.56l3.01-.02,11.02,10.83,8.73-8.88,2.1-2.14,3.86-.03a13.679,13.679,0,0,0,13.56-13.79Z" fill="#fff"/>
      <path id="Path_95" data-name="Path 95" d="M207.28,134.49l-11.22-11.04-2.8.02a14.169,14.169,0,0,1-14.29-14.06l-.13-15.26A14.17,14.17,0,0,1,192.9,79.86l28.72-.24a13.865,13.865,0,0,1,10.06,4.07,14.075,14.075,0,0,1,4.23,9.99h0l.13,15.26a14.17,14.17,0,0,1-14.06,14.29l-3.65.03-11.04,11.23Zm-10.82-12.04,10.81,10.63,10.63-10.81,4.07-.03a13.179,13.179,0,0,0,13.06-13.29l-.13-15.26a13.179,13.179,0,0,0-13.18-13.06h-.11l-28.72.24a13.179,13.179,0,0,0-13.06,13.29l.13,15.26a13.179,13.179,0,0,0,13.29,13.06l3.22-.03Z" fill="#9fbfff"/>
      <path id="Path_96" data-name="Path 96" d="M207.19,116.26a16.683,16.683,0,0,1-5.25-.81,11.441,11.441,0,0,1-4.26-2.49,11.614,11.614,0,0,1-2.85-4.23,16.144,16.144,0,0,1-1.04-6.08,16.657,16.657,0,0,1,1.02-6.08,12.228,12.228,0,0,1,2.9-4.47,12.47,12.47,0,0,1,4.51-2.76,18.813,18.813,0,0,1,11.59-.07,10.93,10.93,0,0,1,4.06,2.52,10.23,10.23,0,0,1,2.42,4.01,16.576,16.576,0,0,1,.79,5.3,10.675,10.675,0,0,1-1.73,6.47,5.971,5.971,0,0,1-5.11,2.33,4.414,4.414,0,0,1-1.57-.26,3.733,3.733,0,0,1-1.14-.67,3,3,0,0,1-.71-.91,3.432,3.432,0,0,1-.31-1.02h-.14a5.6,5.6,0,0,1-2.35,2.02,7.048,7.048,0,0,1-3,.67,4.205,4.205,0,0,1-3.59-1.67,7.334,7.334,0,0,1-1.24-4.47,10.287,10.287,0,0,1,.59-3.57,8.185,8.185,0,0,1,1.68-2.83,7.442,7.442,0,0,1,2.66-1.85,8.983,8.983,0,0,1,3.5-.66,11.926,11.926,0,0,1,2.71.35c.59.14,1.19.32,1.8.53a1.52,1.52,0,0,1,.98,1.71L213,103.11c-.05.3-.09.6-.14.91a5.477,5.477,0,0,0-.07.88,2.142,2.142,0,0,0,.36,1.29,1.5,1.5,0,0,0,1.29.5,2.26,2.26,0,0,0,2.05-1.48,9.266,9.266,0,0,0,.74-4.11,9.5,9.5,0,0,0-2.24-6.7q-2.25-2.415-6.94-2.42a12.4,12.4,0,0,0-4.28.71,8.908,8.908,0,0,0-3.3,2.07,9.341,9.341,0,0,0-2.11,3.35,14.235,14.235,0,0,0,0,9.06,8.467,8.467,0,0,0,2.04,3.14,7.993,7.993,0,0,0,3.04,1.83,11.7,11.7,0,0,0,3.75.59,16.179,16.179,0,0,0,3.16-.36c.76-.16,1.56-.34,2.37-.56a1.512,1.512,0,0,1,1.83.98l.16.49a1.506,1.506,0,0,1-1.04,1.93c-.95.26-1.87.47-2.75.65a20.039,20.039,0,0,1-3.73.4Zm-1.28-9.77a3.325,3.325,0,0,0,2.26-.95,5.194,5.194,0,0,0,1.43-3.02l.52-2.92a1.507,1.507,0,0,0-1.44-1.78h-.02a4.175,4.175,0,0,0-1.9.43,4.318,4.318,0,0,0-1.48,1.21,5.917,5.917,0,0,0-.97,1.83,7.346,7.346,0,0,0-.35,2.3,4.341,4.341,0,0,0,.45,2.09,1.558,1.558,0,0,0,1.48.81Z" fill="#fff"/>
      <path id="Path_97" data-name="Path 97" d="M207.19,116.76a17.077,17.077,0,0,1-5.41-.84,11.7,11.7,0,0,1-7.42-7,16.719,16.719,0,0,1-1.07-6.27,17.141,17.141,0,0,1,1.05-6.26,12.659,12.659,0,0,1,3.02-4.65,13.054,13.054,0,0,1,4.68-2.87,17.661,17.661,0,0,1,6.01-.98,17.871,17.871,0,0,1,5.92.91,11.358,11.358,0,0,1,4.24,2.64,10.893,10.893,0,0,1,2.54,4.2,17.293,17.293,0,0,1,.82,5.46,11.2,11.2,0,0,1-1.82,6.77,6.461,6.461,0,0,1-5.51,2.53,4.936,4.936,0,0,1-1.75-.29,4.022,4.022,0,0,1-1.29-.77,3.48,3.48,0,0,1-.83-1.07c-.04-.09-.08-.17-.12-.26a6,6,0,0,1-2.02,1.5,7.549,7.549,0,0,1-3.21.72,4.666,4.666,0,0,1-3.99-1.88,7.841,7.841,0,0,1-1.34-4.77,11.033,11.033,0,0,1,.62-3.74,8.756,8.756,0,0,1,1.78-3,7.887,7.887,0,0,1,2.83-1.97,10.281,10.281,0,0,1,6.52-.34,17.66,17.66,0,0,1,1.86.55,2.039,2.039,0,0,1,1.31,2.28l-1.25,6.73a5.84,5.84,0,0,0-.06.81,1.649,1.649,0,0,0,.27,1c.14.2.44.29.89.29a1.818,1.818,0,0,0,1.61-1.21,8.854,8.854,0,0,0,.69-3.89,9.04,9.04,0,0,0-2.11-6.36c-1.39-1.5-3.6-2.26-6.57-2.26a11.931,11.931,0,0,0-4.11.68,8.452,8.452,0,0,0-3.12,1.96,8.83,8.83,0,0,0-1.99,3.17,12.515,12.515,0,0,0-.71,4.37,12.109,12.109,0,0,0,.71,4.34,8.162,8.162,0,0,0,1.92,2.96,7.594,7.594,0,0,0,2.85,1.72,11.255,11.255,0,0,0,3.59.56,15.939,15.939,0,0,0,3.06-.35c.74-.15,1.53-.34,2.34-.55a2.015,2.015,0,0,1,2.43,1.31l.16.49a2.051,2.051,0,0,1-.14,1.59,1.988,1.988,0,0,1-1.24.99c-.96.26-1.9.48-2.79.65a20.251,20.251,0,0,1-3.82.41Zm.86-27.87a16.692,16.692,0,0,0-5.67.92,12.209,12.209,0,0,0-4.33,2.65,11.67,11.67,0,0,0-2.78,4.29,16.581,16.581,0,0,0-.99,5.9,16.036,16.036,0,0,0,1,5.89,10.729,10.729,0,0,0,6.8,6.43,16.247,16.247,0,0,0,5.09.79,18.983,18.983,0,0,0,3.63-.39c.87-.17,1.78-.38,2.72-.64a.987.987,0,0,0,.62-.49,1.015,1.015,0,0,0,.07-.8l-.16-.49a1.012,1.012,0,0,0-1.22-.66c-.83.22-1.64.41-2.4.57a16.349,16.349,0,0,1-3.26.37,12.461,12.461,0,0,1-3.91-.61,8.646,8.646,0,0,1-3.23-1.94,9.236,9.236,0,0,1-2.16-3.32,12.872,12.872,0,0,1-.78-4.71,13.384,13.384,0,0,1,.77-4.72,9.882,9.882,0,0,1,2.22-3.53,9.466,9.466,0,0,1,3.48-2.19,12.943,12.943,0,0,1,4.45-.74c3.26,0,5.72.87,7.31,2.58a9.983,9.983,0,0,1,2.38,7.04,9.78,9.78,0,0,1-.8,4.33,2.732,2.732,0,0,1-2.5,1.76,1.962,1.962,0,0,1-1.7-.71,2.671,2.671,0,0,1-.46-1.59,8.025,8.025,0,0,1,.07-.95l.14-.92,1.11-5.85a1.03,1.03,0,0,0-.66-1.15,18.1,18.1,0,0,0-1.75-.52,9.309,9.309,0,0,0-5.91.29,7.077,7.077,0,0,0-2.48,1.72,7.686,7.686,0,0,0-1.57,2.66,10.079,10.079,0,0,0-.56,3.41,6.855,6.855,0,0,0,1.14,4.17,3.7,3.7,0,0,0,3.19,1.47,6.494,6.494,0,0,0,2.79-.63,5.156,5.156,0,0,0,2.14-1.84l.15-.22h.84l.06.43a2.912,2.912,0,0,0,.27.87,2.446,2.446,0,0,0,.59.76,3.082,3.082,0,0,0,.99.58,3.891,3.891,0,0,0,1.39.23,5.445,5.445,0,0,0,4.71-2.13,10.275,10.275,0,0,0,1.63-6.18,16.179,16.179,0,0,0-.77-5.14,9.719,9.719,0,0,0-2.3-3.81,10.333,10.333,0,0,0-3.87-2.4,16.62,16.62,0,0,0-5.58-.85Zm-2.14,18.09a2.053,2.053,0,0,1-1.92-1.07,4.783,4.783,0,0,1-.51-2.33,7.72,7.72,0,0,1,.37-2.45,6.514,6.514,0,0,1,1.05-1.99,4.955,4.955,0,0,1,1.65-1.34,4.714,4.714,0,0,1,2.12-.48,1.949,1.949,0,0,1,1.5.7,2,2,0,0,1,.44,1.66l-.52,2.92a5.734,5.734,0,0,1-1.59,3.31,3.806,3.806,0,0,1-2.6,1.08Zm2.78-8.67a3.749,3.749,0,0,0-1.69.38,4,4,0,0,0-1.32,1.07,5.211,5.211,0,0,0-.88,1.67,6.959,6.959,0,0,0-.32,2.14,3.767,3.767,0,0,0,.39,1.85,1.071,1.071,0,0,0,1.05.55,2.858,2.858,0,0,0,1.93-.82,4.785,4.785,0,0,0,1.28-2.74l.52-2.92a1.023,1.023,0,0,0-.23-.84.92.92,0,0,0-.72-.34Z" fill="#9fbfff"/>
    </g>
    <path id="Path_98" data-name="Path 98" d="M85.22,135.23l-5.98.05a27.176,27.176,0,0,1-27.39-26.94L51.6,78.02A27.169,27.169,0,0,1,78.54,50.63l56.81-.47a28.238,28.238,0,0,0-4.62-.35l-58.81.49A28.006,28.006,0,0,0,44.15,78.53l.26,31.26c.13,15.46,12.77,29.93,28.23,29.8l7.18-.05,23.03,21.62,21.59-22.05h0l-17.35,17.64L85.21,135.23Z" fill="#3a5ce8"/>
    <path id="Path_99" data-name="Path 99" d="M162.97,77.1a27.163,27.163,0,0,0-27.39-26.94h-.24l-56.81.47A27.17,27.17,0,0,0,51.59,78.02l.25,30.32a27.17,27.17,0,0,0,27.39,26.94l5.98-.05,21.88,21.52,17.35-17.64,4.17-4.24,7.67-.06a27.17,27.17,0,0,0,26.94-27.39Z" fill="#4e69ff"/>
    <path id="Path_100" data-name="Path 100" d="M80.09,102.27a7.507,7.507,0,0,1-3.14-.69,7.615,7.615,0,0,1-3.78-10.07,7.59,7.59,0,1,1,6.91,10.76Zm0-14.21a6.65,6.65,0,0,0-2.32.42,6.6,6.6,0,1,0,8.33,8.91h0a6.6,6.6,0,0,0-6.01-9.33Z" fill="#fff"/>
    <path id="Path_101" data-name="Path 101" d="M107.25,101.49a7.6,7.6,0,1,1,6.93-4.45h0a7.611,7.611,0,0,1-6.93,4.46Zm.01-14.21a6.65,6.65,0,0,0-2.32.42,6.614,6.614,0,1,0,2.32-.42Z" fill="#fff"/>
    <path id="Path_102" data-name="Path 102" d="M133.78,100.74a1.381,1.381,0,1,0,0-.01Zm0-14.21a6.65,6.65,0,0,0-2.32.42,6.6,6.6,0,1,0,8.33,8.91h0a6.619,6.619,0,0,0-6.01-9.34Z" fill="#fff"/>
    <path id="Path_103" data-name="Path 103" d="M157.35,143.17l-3.01.02a13.679,13.679,0,0,1-13.79-13.56l-.13-15.26a13.679,13.679,0,0,1,13.56-13.79l28.51-.24a15.043,15.043,0,0,0-2.24-.18l-29.61.25a14.1,14.1,0,0,0-13.98,14.21l.13,15.74c.06,7.79,6.43,15.07,14.21,15.01l3.62-.03,11.6,10.88,10.86-11.09-8.72,8.86-11.02-10.83Z" fill="#e29837"/>
    <path id="Path_104" data-name="Path 104" d="M196.49,113.9a13.679,13.679,0,0,0-13.79-13.56h-.21l-28.51.24a13.679,13.679,0,0,0-13.56,13.79l.13,15.26a13.679,13.679,0,0,0,13.79,13.56l3.01-.02L168.37,154l8.72-8.86,2.12-2.15,3.86-.03a13.679,13.679,0,0,0,13.56-13.79l-.13-15.26Z" fill="#ffb54a"/>
    <path id="Path_105" data-name="Path 105" d="M168.28,136.48a16.683,16.683,0,0,1-5.25-.81,11.441,11.441,0,0,1-4.26-2.49,11.614,11.614,0,0,1-2.85-4.23,16.144,16.144,0,0,1-1.04-6.08,16.657,16.657,0,0,1,1.02-6.08,12.228,12.228,0,0,1,2.9-4.47,12.47,12.47,0,0,1,4.51-2.76,18.813,18.813,0,0,1,11.59-.07,10.93,10.93,0,0,1,4.06,2.52,10.23,10.23,0,0,1,2.42,4.01,16.576,16.576,0,0,1,.79,5.3,10.675,10.675,0,0,1-1.73,6.47,5.971,5.971,0,0,1-5.11,2.33,4.414,4.414,0,0,1-1.57-.26,3.732,3.732,0,0,1-1.14-.67,3,3,0,0,1-.71-.91,3.432,3.432,0,0,1-.31-1.02h-.14a5.6,5.6,0,0,1-2.35,2.02,7.048,7.048,0,0,1-3,.67,4.205,4.205,0,0,1-3.59-1.67,7.334,7.334,0,0,1-1.24-4.47,10.287,10.287,0,0,1,.59-3.57,8.185,8.185,0,0,1,1.68-2.83,7.442,7.442,0,0,1,2.66-1.85,8.983,8.983,0,0,1,3.5-.66,11.926,11.926,0,0,1,2.71.35c.59.14,1.19.32,1.8.53a1.52,1.52,0,0,1,.98,1.71l-1.11,5.84c-.05.3-.09.6-.14.91a5.477,5.477,0,0,0-.07.88,2.142,2.142,0,0,0,.36,1.29,1.5,1.5,0,0,0,1.29.5,2.26,2.26,0,0,0,2.05-1.48,9.266,9.266,0,0,0,.74-4.11,9.5,9.5,0,0,0-2.24-6.7q-2.25-2.415-6.94-2.42a12.4,12.4,0,0,0-4.28.71,8.908,8.908,0,0,0-3.3,2.07,9.341,9.341,0,0,0-2.11,3.35,14.235,14.235,0,0,0,0,9.06,8.467,8.467,0,0,0,2.04,3.14,7.993,7.993,0,0,0,3.04,1.83,11.7,11.7,0,0,0,3.75.59,16.179,16.179,0,0,0,3.16-.36c.76-.16,1.56-.34,2.37-.56a1.512,1.512,0,0,1,1.83.98l.16.49a1.506,1.506,0,0,1-1.04,1.93c-.95.26-1.87.47-2.75.65a20.039,20.039,0,0,1-3.73.4ZM167,126.71a3.325,3.325,0,0,0,2.26-.95,5.194,5.194,0,0,0,1.43-3.02l.52-2.92a1.507,1.507,0,0,0-1.44-1.78h-.02a4.175,4.175,0,0,0-1.9.43,4.318,4.318,0,0,0-1.48,1.21,5.917,5.917,0,0,0-.97,1.83,7.346,7.346,0,0,0-.35,2.3,4.341,4.341,0,0,0,.45,2.09,1.558,1.558,0,0,0,1.48.81Z" fill="#fff"/>
  </g>
</svg>
