<svg xmlns="http://www.w3.org/2000/svg" width="345.655" height="290.891" viewBox="0 0 345.655 290.891">
  <g id="upgrade" transform="translate(0.006 0.021)">
    <g id="Group_27" data-name="Group 27">
      <path id="Path_30" data-name="Path 30" d="M73.12,290.87a.493.493,0,0,1-.23-.06.472.472,0,0,1-.2-.65,266.5,266.5,0,0,1,34.09-49.85.482.482,0,0,1,.73.63,266.155,266.155,0,0,0-33.96,49.67A.493.493,0,0,1,73.12,290.87Z" fill="#fff"/>
      <path id="Path_31" data-name="Path 31" d="M61.12,281.4a.46.46,0,0,1-.27-.09.481.481,0,0,1-.12-.67,286.315,286.315,0,0,1,34.3-40.8.481.481,0,1,1,.68.68,285.552,285.552,0,0,0-34.18,40.66.488.488,0,0,1-.4.21Z" fill="#fff"/>
      <path id="Path_32" data-name="Path 32" d="M.48,248.89a.492.492,0,0,1-.48-.41.484.484,0,0,1,.4-.55,279.875,279.875,0,0,0,89.5-29.91.481.481,0,1,1,.45.85A281.059,281.059,0,0,1,.54,248.88H.47Z" fill="#fff"/>
      <path id="Path_33" data-name="Path 33" d="M3.57,281.4a.48.48,0,0,1-.25-.89l85.65-53.02a.48.48,0,1,1,.5.82L3.83,281.32a.475.475,0,0,1-.25.07Z" fill="#fff"/>
    </g>
    <g id="Group_28" data-name="Group 28">
      <path id="Path_34" data-name="Path 34" d="M121.14,121.39a2.72,2.72,0,1,1,2.72,2.72A2.723,2.723,0,0,1,121.14,121.39Z" fill="#fff"/>
      <path id="Path_35" data-name="Path 35" d="M123.85,124.6a3.2,3.2,0,1,1,3.2-3.2A3.2,3.2,0,0,1,123.85,124.6Zm0-5.44a2.24,2.24,0,1,0,2.24,2.24A2.243,2.243,0,0,0,123.85,119.16Z"/>
    </g>
    <g id="Group_29" data-name="Group 29">
      <path id="Path_36" data-name="Path 36" d="M236.54,63.5a2.72,2.72,0,1,1,2.72,2.72A2.723,2.723,0,0,1,236.54,63.5Z" fill="#fff"/>
      <path id="Path_37" data-name="Path 37" d="M239.26,66.7a3.2,3.2,0,1,1,3.2-3.2A3.2,3.2,0,0,1,239.26,66.7Zm0-5.44a2.24,2.24,0,1,0,2.24,2.24,2.243,2.243,0,0,0-2.24-2.24Z"/>
    </g>
    <g id="Group_30" data-name="Group 30">
      <path id="Path_38" data-name="Path 38" d="M243.07,215.67a4.58,4.58,0,1,1,4.58,4.58A4.579,4.579,0,0,1,243.07,215.67Z" fill="#fff"/>
      <path id="Path_39" data-name="Path 39" d="M247.66,220.74a5.07,5.07,0,1,1,5.07-5.07A5.077,5.077,0,0,1,247.66,220.74Zm0-9.17a4.1,4.1,0,1,0,4.1,4.1A4.106,4.106,0,0,0,247.66,211.57Z"/>
    </g>
    <g id="Group_33" data-name="Group 33">
      <g id="Group_31" data-name="Group 31">
        <path id="Path_40" data-name="Path 40" d="M330.66,162.13l-64.41,1.62c-5.95.15-12.52.09-17.01-3.75-5.09-4.36-5.14-13.16-.11-17.56s13.96-3.36,17.82,2.08c-.12-8.8,8.91-16.12,17.89-15.78s16.91,7.06,20.16,15.28c-.63-5.53,6.03-10.01,11.53-8.57s8.99,7.16,9.23,12.72c4.03-5.75,14.3-5.45,18.02.51a8.528,8.528,0,0,1,1.35,5.31c-.41,3.94-4.11,6.93-8.04,7.88s-8.05.29-6.42.26Z" fill="#fff"/>
        <path id="Path_41" data-name="Path 41" d="M263.59,164.28c-5.43,0-10.79-.59-14.66-3.91a12.529,12.529,0,0,1-.11-18.29,12.525,12.525,0,0,1,9.75-2.76,12.783,12.783,0,0,1,7.95,3.9,15.345,15.345,0,0,1,4.76-9.57,18.866,18.866,0,0,1,13.58-5.4c8,.3,15.86,5.83,19.75,13.69a8.383,8.383,0,0,1,2.83-4.64,10.481,10.481,0,0,1,9.21-2.34c5.55,1.46,8.84,6.91,9.49,11.95a11.369,11.369,0,0,1,8.76-3.38,11.091,11.091,0,0,1,9.29,4.87,9.063,9.063,0,0,1,1.42,5.62c-.46,4.42-4.68,7.4-8.41,8.3-2.54.61-6.09.67-7.05.29l-63.87,1.61c-.89.02-1.78.04-2.67.04Zm-6.71-24.09a11.217,11.217,0,0,0-7.43,2.63,11.569,11.569,0,0,0,.1,16.83c4.24,3.64,10.31,3.8,16.68,3.63l64.27-1.62h.15a.508.508,0,0,1,.39.19,19.829,19.829,0,0,0,5.93-.43c3.41-.82,7.27-3.51,7.67-7.46a8.064,8.064,0,0,0-1.28-5.01,10.96,10.96,0,0,0-17.21-.49.483.483,0,0,1-.88-.25c-.21-5-3.33-10.82-8.87-12.27a9.5,9.5,0,0,0-8.34,2.13,6.87,6.87,0,0,0-2.59,5.92.481.481,0,0,1-.36.52.489.489,0,0,1-.57-.29c-3.36-8.51-11.47-14.66-19.73-14.97a17.829,17.829,0,0,0-12.87,5.12,14.02,14.02,0,0,0-4.52,10.18.5.5,0,0,1-.33.47.461.461,0,0,1-.54-.18,11.476,11.476,0,0,0-8.11-4.53,13.905,13.905,0,0,0-1.57-.09Zm73.56,22.44Z"/>
      </g>
      <g id="Group_32" data-name="Group 32" opacity="0.13">
        <path id="Path_42" data-name="Path 42" d="M342.33,156.24l-.02.02a9.543,9.543,0,0,1-2.34,1.62,14.932,14.932,0,0,1-4.84.96c-2.04.11-4.06-.27-6.11-.28-5.47-.02-10.95.14-16.42.06-7.04.09-14.07.18-21.11.33-2.47.1-4.92.34-7.38.51-2.85.18-5.7.27-8.55.44-4.27.09-8.55.42-12.81.12-.69-.06-1.48-.29-2.02.29a1.375,1.375,0,0,0,.97,2.33,59.44,59.44,0,0,0,8.95.21q1.725-.03,3.45-.09a.827.827,0,0,0,.75.44c3.49.28,7.01.13,10.51.25q12.345.42,24.68-.31c3.05-.17,6.1-.26,9.15-.39l3.22-.15a1.149,1.149,0,0,0,.91-.26.819.819,0,0,0,.24-.57c1.96.02,3.93.03,5.89,0,.48,0,.99,0,1.52-.02a.782.782,0,0,0,.39.72,1.564,1.564,0,0,0,.98.06c.59-.05,1.17-.13,1.76-.2a26.161,26.161,0,0,0,3.02-.64,5.689,5.689,0,0,0,1.3-.44.74.74,0,0,0,.33-.59,9.708,9.708,0,0,0,4.2-2.57c.33-.38.87-.7.88-1.25a.869.869,0,0,0-1.47-.61Z"/>
      </g>
    </g>
    <g id="Group_36" data-name="Group 36">
      <g id="Group_34" data-name="Group 34">
        <path id="Path_43" data-name="Path 43" d="M216.64,282.92q18.48.285,36.95-.9a12.363,12.363,0,0,0,4.68-.93c3.64-1.79,4.47-7.38,1.69-10.33s-8.15-2.62-10.76.49c-.25-4.55-3.78-9.02-8.32-9.33a10.176,10.176,0,0,0-7.78,3.36,21.859,21.859,0,0,0-4.36,7.52,4.7,4.7,0,0,0-4.27-3.47,10.032,10.032,0,0,0-5.62,1.52c-2.35,1.29-4.59,3.1-5.47,5.64s.06,6.4,3.27,6.45Z" fill="#fff"/>
        <path id="Path_44" data-name="Path 44" d="M223.76,283.46q-3.57,0-7.13-.05h0a3.712,3.712,0,0,1-3.09-1.64,6.379,6.379,0,0,1-.62-5.45c.79-2.28,2.71-4.26,5.69-5.9a10.167,10.167,0,0,1,5.89-1.57,5.523,5.523,0,0,1,4.24,2.59,20.565,20.565,0,0,1,3.99-6.49,10.644,10.644,0,0,1,8.16-3.5c4.25.29,7.95,4.12,8.66,8.75a8.044,8.044,0,0,1,5.1-1.93,7.452,7.452,0,0,1,5.64,2.18,7.116,7.116,0,0,1,1.66,6.17,6.629,6.629,0,0,1-3.49,4.92,12.736,12.736,0,0,1-4.86.98c-9.89.64-19.91.96-29.86.96Zm-7.11-1.02c12.26.19,24.68-.11,36.91-.9a11.927,11.927,0,0,0,4.49-.88,5.639,5.639,0,0,0,2.96-4.22,6.178,6.178,0,0,0-1.41-5.34,6.488,6.488,0,0,0-4.91-1.88,7.043,7.043,0,0,0-5.14,2.35.488.488,0,0,1-.52.15.472.472,0,0,1-.33-.43c-.25-4.61-3.78-8.59-7.88-8.88a9.679,9.679,0,0,0-7.4,3.21,21.58,21.58,0,0,0-4.26,7.35.491.491,0,0,1-.5.31.478.478,0,0,1-.43-.4c-.32-1.79-2.22-2.92-3.84-3.07a9.32,9.32,0,0,0-5.34,1.46c-2.77,1.52-4.54,3.33-5.25,5.37a5.385,5.385,0,0,0,.5,4.58,2.756,2.756,0,0,0,2.31,1.23h0Z"/>
      </g>
      <g id="Group_35" data-name="Group 35" opacity="0.13">
        <path id="Path_45" data-name="Path 45" d="M261.69,276.12a1.08,1.08,0,0,0-1.61-.79,1.235,1.235,0,0,0-.4.42.3.3,0,0,0-.05.07,4.152,4.152,0,0,1-1.45,1.54c-.77.54-6,1.54-6.73,1.55a64.215,64.215,0,0,1-7.72.31c-1.35-.07-2.7,0-4.05.01-1.48,0-2.97-.08-4.45,0-3.82.12-7.63.43-11.45.65-1.83.02-3.67.09-5.5.15-.61.02-1.22.05-1.83.08a1.217,1.217,0,0,0-.88.37,1.257,1.257,0,0,0,.88,2.13c2.95-.15,5.91-.08,8.86-.18,3.18-.13,6.34-.38,9.52-.39,1.8-.08,3.59.07,5.38.1,1.85-.03,3.71,0,5.56-.02,2.57-.13,4.77-.41,6.72-.68a1.046,1.046,0,0,0,1.3.75,15.189,15.189,0,0,0,4-.91,3.638,3.638,0,0,0,1.58-1.05,1.028,1.028,0,0,0,.08-.91c.22-.15.44-.31.66-.49a4.9,4.9,0,0,0,1.52-2.21.127.127,0,0,1,.01-.06h0a.938.938,0,0,0,.02-.44Z"/>
      </g>
    </g>
    <g id="Group_75" data-name="Group 75">
      <g id="Group_37" data-name="Group 37">
        <path id="Path_46" data-name="Path 46" d="M108.04,13.65c-.75.2-1.16-.91-.5-1.32l.05-.03c1.99-1.15,8.37-2.08,9.27-2.16,1.03-.09,2.05-.18,2.94-.29-2.5-1.03-6.4-3.59-9.14-3.65h0a.658.658,0,0,1-.37-1.22c.07-.04.14-.07.2-.1a4.415,4.415,0,0,1,1.81-.24c3.23.04,6.34,1.98,9.46,2.77a31.626,31.626,0,0,0,3.19.79,18,18,0,0,1,1.27-7.13.977.977,0,0,1,1.82.06v.03c.04,1.88-.41,2.6.46,6.48.26,1.14,1.72,2.36,2.2,3.42a30.755,30.755,0,0,1,1.28,4.77,13.755,13.755,0,0,0,4.16,6.62,4.448,4.448,0,0,1-3.12,2.24c-1.7-2.67-4.58-4.52-7.45-5.86a8.707,8.707,0,0,0-4.02-1.06,13.957,13.957,0,0,0-2.7.57c-2.51.61-6.47,1.67-6.47,1.67-1.03-.2-.39-1.05,0-1.15l3.47-1.65a5.981,5.981,0,0,0,3.09-1.72c-1.95-.92-6.05.73-9.8,1.41-1.23.22-1.06-.71-.72-1.2,1.06-1.16,9.27-2.47,10.9-3.04,0,0-8.2.17-11.29,1Z" fill="#fff"/>
        <path id="Path_47" data-name="Path 47" d="M133.03,25.16a.491.491,0,0,1-.41-.22c-1.4-2.2-3.77-4.05-7.25-5.68a8.151,8.151,0,0,0-3.79-1.02,9.233,9.233,0,0,0-1.94.38c-.22.06-.44.12-.67.17-2.48.61-6.42,1.65-6.46,1.67a.375.375,0,0,1-.21,0c-.83-.16-.94-.69-.95-.91a1.323,1.323,0,0,1,.85-1.17l3.44-1.63s.05-.02.08-.03A6.713,6.713,0,0,0,118,15.7a17.3,17.3,0,0,0-5.31.85c-1.14.29-2.31.58-3.46.79-.82.15-1.2-.14-1.37-.4a1.456,1.456,0,0,1,.16-1.54c.01-.02.03-.04.04-.06.63-.69,2.88-1.3,5.91-1.98a35.873,35.873,0,0,0-5.82.74,1.131,1.131,0,0,1-1.34-.67,1.2,1.2,0,0,1,.47-1.52l.06-.03c2.18-1.25,8.82-2.16,9.46-2.22.4-.04.8-.07,1.2-.11-.32-.16-.65-.33-.98-.5-2.14-1.09-4.58-2.33-6.39-2.38a1.138,1.138,0,0,1-.59-2.12,2.1,2.1,0,0,1,.26-.13,4.906,4.906,0,0,1,2-.28,17.94,17.94,0,0,1,6.16,1.6,28.871,28.871,0,0,0,3.42,1.18c.15.04.39.11.68.19.54.15,1.36.38,1.93.51a17.7,17.7,0,0,1,1.3-6.75,1.46,1.46,0,0,1,2.72.08.584.584,0,0,1,.04.18c0,.52-.02.95-.05,1.37a14.818,14.818,0,0,0,.49,5.01,5.4,5.4,0,0,0,1.13,1.8,8.327,8.327,0,0,1,1.05,1.52,14.829,14.829,0,0,1,.92,3.19c.11.55.23,1.11.38,1.65a13.242,13.242,0,0,0,4.01,6.38.491.491,0,0,1,.15.47c-.21.91-1.78,2.25-3.49,2.6-.03,0-.07.01-.1.01Zm-11.24-7.89a9.657,9.657,0,0,1,3.99,1.11c3.5,1.63,5.95,3.51,7.46,5.74a4.644,4.644,0,0,0,2.32-1.56,14.236,14.236,0,0,1-4.04-6.62c-.16-.57-.28-1.14-.39-1.7a13.612,13.612,0,0,0-.86-2.99,6.934,6.934,0,0,0-.92-1.32,6,6,0,0,1-1.31-2.19,16.083,16.083,0,0,1-.51-5.28c.02-.39.05-.77.04-1.21a.511.511,0,0,0-.44-.3.489.489,0,0,0-.47.3,17.618,17.618,0,0,0-1.23,6.96.479.479,0,0,1-.52.47,19.184,19.184,0,0,1-2.62-.63c-.27-.08-.51-.14-.65-.18a30.059,30.059,0,0,1-3.53-1.22,16.951,16.951,0,0,0-5.81-1.54,4.171,4.171,0,0,0-1.61.2,1.093,1.093,0,0,0-.15.08.145.145,0,0,0-.07.18.156.156,0,0,0,.18.13c2.06.05,4.6,1.34,6.84,2.48.92.47,1.78.91,2.51,1.21a.477.477,0,0,1,.29.51.468.468,0,0,1-.42.41c-.89.11-1.94.2-2.95.29-.92.08-7.19,1.01-9.07,2.1l-.04.02a.262.262,0,0,0-.08.32c.07.16.16.13.2.12h0c3.11-.84,11.07-1.01,11.41-1.02h0a.483.483,0,0,1,.15.94c-.56.19-1.75.45-3.25.77-2.53.54-6.74,1.44-7.43,2.11a.826.826,0,0,0-.14.45h.13a.931.931,0,0,0,.26-.03c1.12-.2,2.28-.5,3.4-.78,2.77-.7,5.17-1.3,6.69-.59a.467.467,0,0,1,.26.32.5.5,0,0,1-.08.41,6.528,6.528,0,0,1-3.31,1.89l-3.43,1.63s-.05.02-.08.03a.459.459,0,0,0-.17.17.169.169,0,0,1,.05.02c.67-.18,4.11-1.09,6.36-1.64.22-.05.43-.11.65-.17a10.1,10.1,0,0,1,2.15-.41h.26Z"/>
      </g>
      <g id="Group_38" data-name="Group 38">
        <path id="Path_48" data-name="Path 48" d="M186.7,110.77a9.5,9.5,0,0,1,3.53-.17c3.22.25,6.45.5,9.67.76,1.87.15,3.99.42,5.11,1.93a4.084,4.084,0,0,1,.49,3.6,8.58,8.58,0,0,1-5.4,5.13c-2.68.64-5.37-.92-7.55-2.6a47.225,47.225,0,0,1-4.92-4.35,4.564,4.564,0,0,1-1.3-1.91A3.255,3.255,0,0,1,186.7,110.77Z" fill="#d6efc1"/>
        <path id="Path_49" data-name="Path 49" d="M198.84,122.65c-2.55,0-4.93-1.57-6.59-2.85a47.091,47.091,0,0,1-4.97-4.4,4.973,4.973,0,0,1-1.42-2.12,3.694,3.694,0,0,1,.46-2.82.513.513,0,0,1,.23-.15,9.97,9.97,0,0,1,3.71-.19l9.67.76c1.99.16,4.23.46,5.46,2.12a4.588,4.588,0,0,1,.57,4.02,9.088,9.088,0,0,1-5.76,5.47,5.886,5.886,0,0,1-1.37.16Zm-11.83-11.46a2.923,2.923,0,0,0-.21,1.85,4.239,4.239,0,0,0,1.17,1.7,47.476,47.476,0,0,0,4.87,4.31c1.8,1.38,4.49,3.14,7.15,2.51a8.136,8.136,0,0,0,5.06-4.81,3.671,3.671,0,0,0-.42-3.17c-.99-1.34-2.97-1.6-4.76-1.74l-9.67-.76a9.658,9.658,0,0,0-3.18.1Z"/>
      </g>
      <g id="Group_39" data-name="Group 39">
        <path id="Path_50" data-name="Path 50" d="M161.87,112.11a222.887,222.887,0,0,0,9.24-46.43c-9-6.78-27.4-8.86-31.33-17.36-5.18-11.21-10.07-19.89-11.73-27.69,0,0,7.59-2.48,7.32-2.54,2.02,5.93,8.86,15.92,14.66,24.21,2.79,3.99,16.64,3.73,25.14,6.22,16.05,5.1,24.37,2.08,32.45,15.66,5.15,8.67,4.69,23.22,19.99,44.1a41.623,41.623,0,0,1-7.4,6.14q-3.915-5.355-7.84-10.7a63.436,63.436,0,0,1-5.45-8.33,62.288,62.288,0,0,1-3.77-10.02c-.97-3.1-1.94-6.2-3.24-9.57-4.16,14.56-6.16,30.92-14.81,42.92-8.03-1.64-16.51-3.49-23.22-6.61Z" fill="#fff"/>
        <path id="Path_51" data-name="Path 51" d="M185.09,119.2h-.1c-8.13-1.66-16.63-3.53-23.33-6.64a.483.483,0,0,1-.26-.58,222.922,222.922,0,0,0,9.2-46.06c-3.62-2.65-8.8-4.61-13.82-6.5-7.74-2.92-15.05-5.68-17.45-10.88-1.29-2.78-2.55-5.39-3.76-7.91-3.62-7.49-6.74-13.96-8-19.88a.49.49,0,0,1,.32-.56c2.49-.81,6.52-2.16,7.16-2.44a.509.509,0,0,1,.43-.11.5.5,0,0,1,.37.38c2,5.8,8.57,15.44,14.58,24.03,1.62,2.31,7.8,3.17,13.79,4a80.69,80.69,0,0,1,11.09,2.04,107.569,107.569,0,0,0,11.89,2.93c8.99,1.82,14.94,3.02,20.84,12.94,1.82,3.06,2.96,6.87,4.28,11.28,2.56,8.56,5.75,19.22,15.69,32.78a.473.473,0,0,1-.05.62,42.023,42.023,0,0,1-7.49,6.21.5.5,0,0,1-.65-.12l-7.84-10.7a63.764,63.764,0,0,1-5.49-8.39,63.294,63.294,0,0,1-3.8-10.1c-.82-2.63-1.67-5.33-2.72-8.17-.89,3.23-1.69,6.57-2.47,9.81-2.7,11.21-5.49,22.79-12.02,31.85a.474.474,0,0,1-.39.2Zm-22.64-7.35c6.46,2.92,14.6,4.74,22.43,6.34,6.29-8.87,9.03-20.25,11.68-31.26.9-3.73,1.83-7.59,2.88-11.26a.479.479,0,0,1,.91-.04c1.31,3.38,2.3,6.54,3.25,9.59a63.57,63.57,0,0,0,3.74,9.96,62.451,62.451,0,0,0,5.41,8.26l7.57,10.34a42.606,42.606,0,0,0,6.65-5.54c-9.85-13.55-13.16-24.63-15.59-32.74-1.3-4.35-2.43-8.11-4.18-11.06-5.68-9.56-11.46-10.72-20.2-12.49A107.443,107.443,0,0,1,175.02,49a80.417,80.417,0,0,0-10.94-2.01c-6.47-.9-12.59-1.74-14.44-4.4-5.9-8.43-12.34-17.88-14.55-23.84-.86.36-2.67.96-6.48,2.21,1.29,5.69,4.33,11.98,7.83,19.24,1.22,2.52,2.48,5.14,3.77,7.93,2.24,4.84,9.37,7.53,16.92,10.38,5.18,1.96,10.53,3.98,14.27,6.79a.5.5,0,0,1,.19.43,222.833,222.833,0,0,1-9.14,46.13Z"/>
      </g>
      <g id="Group_40" data-name="Group 40">
        <path id="Path_52" data-name="Path 52" d="M190.61,42.31a63.032,63.032,0,0,1-5.74,10.01,23.083,23.083,0,0,0,2.89,6.34A3.067,3.067,0,0,0,189.18,60a3,3,0,0,0,2.18-.37c1.71-.78,3.52-1.66,4.36-3.25a7.888,7.888,0,0,0,.66-2.25c.56-2.93,1.12-5.87,1.68-8.8-1.71-.84-3.41-1.69-5.12-2.53a3.081,3.081,0,0,0-2.35-.49Z" fill="#fff"/>
        <path id="Path_53" data-name="Path 53" d="M189.76,60.58a2.017,2.017,0,0,1-.72-.12,3.407,3.407,0,0,1-1.67-1.53,23.733,23.733,0,0,1-2.95-6.47.5.5,0,0,1,.07-.41,63.075,63.075,0,0,0,5.69-9.94.445.445,0,0,1,.27-.25,3.466,3.466,0,0,1,2.73.51l5.12,2.53a.49.49,0,0,1,.26.52l-1.69,8.8a8.393,8.393,0,0,1-.71,2.39c-.88,1.67-2.6,2.56-4.59,3.47A4.486,4.486,0,0,1,189.76,60.58Zm-4.36-8.17a22.425,22.425,0,0,0,2.77,5.99,2.564,2.564,0,0,0,1.17,1.14,2.645,2.645,0,0,0,1.83-.35c1.83-.84,3.4-1.64,4.14-3.04a7.871,7.871,0,0,0,.62-2.12l1.62-8.44-4.79-2.37a3.217,3.217,0,0,0-1.8-.51,65.538,65.538,0,0,1-5.55,9.7Z"/>
      </g>
      <g id="Group_41" data-name="Group 41">
        <path id="Path_54" data-name="Path 54" d="M153.9,157.29l-36.36-11.02L76.49,188.6l60.47-10.4Z" fill="#fff"/>
        <path id="Path_55" data-name="Path 55" d="M76.49,189.08a.493.493,0,0,1-.43-.26.471.471,0,0,1,.08-.56l41.05-42.33a.494.494,0,0,1,.49-.13l36.36,11.03a.509.509,0,0,1,.32.32.493.493,0,0,1-.09.45l-16.94,20.91a.482.482,0,0,1-.29.17L76.57,189.07h-.08Zm41.19-42.27L77.87,187.87l58.83-10.11,16.38-20.21-35.4-10.73Z"/>
      </g>
      <g id="Group_42" data-name="Group 42">
        <path id="Path_56" data-name="Path 56" d="M191.94,202.98l-3.8,37.81-54.86,21.62,32.84-51.83Z" fill="#fff"/>
        <path id="Path_57" data-name="Path 57" d="M133.28,262.89a.48.48,0,0,1-.37-.17.5.5,0,0,1-.04-.57l32.84-51.83a.454.454,0,0,1,.27-.2l25.82-7.6a.468.468,0,0,1,.44.09.478.478,0,0,1,.17.42l-3.8,37.81a.483.483,0,0,1-.3.4l-54.86,21.62a.567.567,0,0,1-.18.03Zm33.15-51.9-31.95,50.42,53.21-20.97,3.7-36.8-24.96,7.35Z"/>
      </g>
      <g id="Group_43" data-name="Group 43">
        <path id="Path_58" data-name="Path 58" d="M145.64,217.13c-9.83,8.69-12.15,14.1-15.83,19.3-11.46-10.44-19.85-22.57-24.78-35.99,9.75-1.67,16.04-4.36,23.5-7.9C133.86,201.38,140.46,209.27,145.64,217.13Z" fill="#fff"/>
        <path id="Path_59" data-name="Path 59" d="M129.81,236.91a.422.422,0,0,1-.32-.13c-11.59-10.56-19.97-22.73-24.91-36.18a.483.483,0,0,1,.38-.64c9.86-1.69,16.16-4.44,23.38-7.86a.474.474,0,0,1,.62.19c3.1,5.15,6.65,9.99,10.08,14.67,2.5,3.41,4.86,6.63,7.01,9.9a.489.489,0,0,1-.08.63,66.228,66.228,0,0,0-13.46,15.77c-.77,1.19-1.49,2.31-2.29,3.44a.467.467,0,0,1-.34.2h-.05Zm-24.13-36.09a90.692,90.692,0,0,0,24.05,34.88c.67-.97,1.29-1.94,1.95-2.96A67.021,67.021,0,0,1,145,217.05c-2.08-3.14-4.36-6.24-6.76-9.51-3.36-4.59-6.83-9.32-9.9-14.37-6.98,3.3-13.18,5.96-22.66,7.65Z"/>
      </g>
      <g id="Group_44" data-name="Group 44">
        <path id="Path_60" data-name="Path 60" d="M126.49,198.27a56.139,56.139,0,0,0,10.76,15.64,59.818,59.818,0,0,0,14.28,10.82c1.42.77,1.33.13,2.82.8,17.64-4.55,89.26-50.72,109.75-65.34,42.72-30.48,54.76-86.86,54.76-86.86s-57.23-6.97-99.95,23.51c-21.38,15.25-87.32,70.1-97.22,85.83a61.393,61.393,0,0,0,4.81,15.61Z" fill="#fff"/>
        <path id="Path_61" data-name="Path 61" d="M154.34,226a.477.477,0,0,1-.2-.04,2.81,2.81,0,0,0-1.22-.31,3.323,3.323,0,0,1-1.63-.5,60.16,60.16,0,0,1-14.39-10.9,56.7,56.7,0,0,1-10.85-15.77,62.136,62.136,0,0,1-4.85-15.74.453.453,0,0,1,.07-.34c9.91-15.73,75.38-70.29,97.35-85.96,22.15-15.81,48.24-21.38,66.23-23.27a169.655,169.655,0,0,1,34.07-.33.479.479,0,0,1,.33.2.471.471,0,0,1,.08.38,169.142,169.142,0,0,1-11.39,32.1c-7.64,16.39-21.4,39.24-43.56,55.05-19.62,14-91.82,60.75-109.91,65.42a.5.5,0,0,1-.12.02Zm-32.16-43.24a60.785,60.785,0,0,0,4.74,15.31h0a55.553,55.553,0,0,0,10.67,15.51,59.182,59.182,0,0,0,14.16,10.73,2.285,2.285,0,0,0,1.22.38,3.725,3.725,0,0,1,1.4.33c17.49-4.68,88.62-50.37,109.44-65.23,21.98-15.68,35.64-38.37,43.23-54.65a171.866,171.866,0,0,0,11.22-31.4,171.921,171.921,0,0,0-33.34.39c-17.86,1.88-43.77,7.42-65.74,23.1-21.86,15.6-86.81,69.69-97,85.54Z"/>
      </g>
      <g id="Group_45" data-name="Group 45">
        <path id="Path_62" data-name="Path 62" d="M152.63,216.1a66.957,66.957,0,0,1-17.09-18.94,70.4,70.4,0,0,1-6.23-12.76,59.586,59.586,0,0,1-2.16-7.04c-.1-.41-.19-.83-.28-1.24a52.635,52.635,0,0,0-5.19,6.53,61.393,61.393,0,0,0,4.81,15.61,56.138,56.138,0,0,0,10.76,15.64,59.818,59.818,0,0,0,14.28,10.82c1.42.77,1.33.13,2.82.8a57.446,57.446,0,0,0,9.19-3.63,43.231,43.231,0,0,1-10.9-5.79Z" fill="#fff"/>
        <path id="Path_63" data-name="Path 63" d="M154.34,226a.477.477,0,0,1-.2-.04,2.81,2.81,0,0,0-1.22-.31,3.323,3.323,0,0,1-1.63-.5,60.16,60.16,0,0,1-14.39-10.9,56.7,56.7,0,0,1-10.85-15.77,62.136,62.136,0,0,1-4.85-15.74.453.453,0,0,1,.07-.34,53.746,53.746,0,0,1,5.24-6.6.461.461,0,0,1,.48-.14.491.491,0,0,1,.35.36c.09.41.18.82.28,1.23a60.626,60.626,0,0,0,2.14,6.98,70.182,70.182,0,0,0,6.18,12.67,66.073,66.073,0,0,0,16.96,18.8,43.133,43.133,0,0,0,10.78,5.73.5.5,0,0,1,.32.43.488.488,0,0,1-.28.46,57.811,57.811,0,0,1-9.27,3.66.5.5,0,0,1-.12.02Zm-32.16-43.24a60.785,60.785,0,0,0,4.74,15.31,55.553,55.553,0,0,0,10.67,15.51,59.182,59.182,0,0,0,14.16,10.73,2.285,2.285,0,0,0,1.22.38,3.725,3.725,0,0,1,1.4.33,54.748,54.748,0,0,0,7.9-3.07,44.34,44.34,0,0,1-9.93-5.45h0a67.157,67.157,0,0,1-17.22-19.07,70.535,70.535,0,0,1-6.27-12.85,60.085,60.085,0,0,1-2.18-7.09c-.03-.11-.05-.22-.08-.33a50.326,50.326,0,0,0-4.42,5.61Z"/>
      </g>
      <g id="Group_46" data-name="Group 46">
        <path id="Path_64" data-name="Path 64" d="M247.73,97.41c2.74,5.05,5.63,10.02,8.74,14.83a147.244,147.244,0,0,0,10.08,13.87,107.665,107.665,0,0,0,11.75,12.23q2.52,2.22,5.2,4.24c27.1-30.6,35.36-69.27,35.36-69.27s-39.79-4.84-77.79,11.22q3.225,6.5,6.66,12.88Z" fill="#fff"/>
        <path id="Path_65" data-name="Path 65" d="M283.5,143.07a.464.464,0,0,1-.29-.1c-1.85-1.4-3.61-2.84-5.23-4.26a108.97,108.97,0,0,1-11.8-12.28,146.716,146.716,0,0,1-10.11-13.91c-2.89-4.47-5.76-9.34-8.76-14.86h0c-2.09-3.85-4.21-7.95-6.67-12.89a.46.46,0,0,1-.02-.38.546.546,0,0,1,.26-.28c19.69-8.32,39.85-10.94,53.3-11.67a156.359,156.359,0,0,1,24.73.42.479.479,0,0,1,.33.2.471.471,0,0,1,.08.38,156.476,156.476,0,0,1-7.54,23.24c-4.99,12.35-13.88,30.39-27.93,46.25a.465.465,0,0,1-.36.16ZM248.16,97.19c2.99,5.51,5.84,10.35,8.72,14.8a143.588,143.588,0,0,0,10.05,13.82,107.875,107.875,0,0,0,11.69,12.17c1.49,1.32,3.11,2.65,4.82,3.95,13.78-15.67,22.53-33.43,27.45-45.62a161.859,161.859,0,0,0,7.38-22.58,161.676,161.676,0,0,0-24.05-.35c-13.26.72-33.08,3.29-52.48,11.4,2.36,4.73,4.4,8.68,6.43,12.4h0Z"/>
      </g>
      <g id="Group_47" data-name="Group 47">
        <path id="Path_66" data-name="Path 66" d="M283.51,128.55q-5.025-5.37-9.53-11.21c-3.02-3.91-5.87-7.94-8.51-12.12a146.135,146.135,0,0,1-7.24-12.78q-3-5.985-5.48-12.22c-3.88,1.23-7.79,2.66-11.69,4.3q3.225,6.5,6.66,12.88c2.74,5.05,5.63,10.02,8.74,14.83a147.244,147.244,0,0,0,10.08,13.87,107.663,107.663,0,0,0,11.75,12.23q2.52,2.22,5.2,4.24,3.33-3.765,6.29-7.67c-2.16-2.06-4.24-4.19-6.28-6.36Z" fill="#fff"/>
        <path id="Path_67" data-name="Path 67" d="M283.5,143.07a.464.464,0,0,1-.29-.1c-1.85-1.4-3.61-2.84-5.23-4.26a108.97,108.97,0,0,1-11.8-12.28,146.716,146.716,0,0,1-10.11-13.91c-2.89-4.47-5.76-9.34-8.76-14.86-2.09-3.85-4.21-7.95-6.67-12.89a.46.46,0,0,1-.02-.38.546.546,0,0,1,.26-.28c3.74-1.58,7.69-3.03,11.73-4.32a.477.477,0,0,1,.59.28c1.64,4.12,3.48,8.22,5.46,12.19,2.11,4.22,4.54,8.5,7.21,12.74,2.56,4.05,5.41,8.11,8.48,12.08,2.99,3.86,6.19,7.62,9.51,11.17h0c2.2,2.35,4.24,4.43,6.26,6.34a.478.478,0,0,1,.05.64c-2.06,2.71-4.19,5.3-6.31,7.69a.465.465,0,0,1-.36.16ZM241.73,84.78c2.36,4.73,4.4,8.68,6.43,12.4,2.99,5.51,5.84,10.35,8.72,14.8a143.588,143.588,0,0,0,10.05,13.82,107.875,107.875,0,0,0,11.69,12.17c1.49,1.32,3.11,2.65,4.82,3.95,1.92-2.18,3.83-4.52,5.71-6.96-1.92-1.85-3.89-3.84-5.98-6.08h0c-3.34-3.57-6.56-7.35-9.56-11.24-3.09-3.99-5.96-8.08-8.53-12.15-2.69-4.26-5.14-8.57-7.26-12.82-1.93-3.85-3.72-7.84-5.33-11.84-3.69,1.19-7.3,2.51-10.74,3.95Z"/>
      </g>
      <g id="Group_48" data-name="Group 48">
        <circle id="Ellipse_1" data-name="Ellipse 1" cx="19.15" cy="19.15" r="19.15" transform="translate(200.991 159.063) rotate(-80.18)" fill="#fff"/>
        <path id="Path_68" data-name="Path 68" d="M223.19,163.11a20.25,20.25,0,0,1-3.28-.27,19.616,19.616,0,1,1,3.28.27Zm-.08-38.3a18.7,18.7,0,1,0,3.12.26A19.318,19.318,0,0,0,223.11,124.81Z"/>
      </g>
      <g id="Group_49" data-name="Group 49">
        <path id="Path_69" data-name="Path 69" d="M215.19,132.33a13.7,13.7,0,1,1-3.2,19.11A13.7,13.7,0,0,1,215.19,132.33Z" fill="#fff"/>
        <path id="Path_70" data-name="Path 70" d="M223.18,157.67a14.582,14.582,0,0,1-2.37-.2,14.188,14.188,0,0,1-5.9-25.54h0a14.188,14.188,0,1,1,8.27,25.74Zm-7.71-24.95h0a13.221,13.221,0,1,0,18.44,3.08A13.142,13.142,0,0,0,215.47,132.72Z"/>
      </g>
      <g id="Group_50" data-name="Group 50">
        <circle id="Ellipse_2" data-name="Ellipse 2" cx="16.2" cy="16.2" r="16.2" transform="matrix(0.993, -0.116, 0.116, 0.993, 150.454, 165.75)" fill="#fff"/>
        <path id="Path_71" data-name="Path 71" d="M168.46,196.62a16.683,16.683,0,0,1-9.71-30.26h0a16.683,16.683,0,1,1,9.72,30.26Zm-.06-32.39a15.535,15.535,0,0,0-9.09,2.93h0a15.654,15.654,0,1,0,9.09-2.92Zm-9.37,2.53Z"/>
      </g>
      <g id="Group_51" data-name="Group 51">
        <path id="Path_72" data-name="Path 72" d="M161.71,170.51a11.592,11.592,0,1,1-2.7,16.17A11.593,11.593,0,0,1,161.71,170.51Z" fill="#fff"/>
        <path id="Path_73" data-name="Path 73" d="M168.47,192.03a12.613,12.613,0,0,1-2.02-.17,12.075,12.075,0,0,1-5.02-21.74h0a12.08,12.08,0,1,1,7.04,21.92Zm-.05-23.19a11.044,11.044,0,0,0-6.43,2.07h0a11.123,11.123,0,1,0,8.3-1.91,11.663,11.663,0,0,0-1.86-.15Zm-6.71,1.68Z"/>
      </g>
      <g id="Group_52" data-name="Group 52">
        <path id="Path_74" data-name="Path 74" d="M187.07,63.62a40.144,40.144,0,0,1-8.67,8.4,18.214,18.214,0,0,1-11.43,3.29c-4.6-.4-8.91-3.03-13.52-2.7-4.21.3-7.89,3.04-12.07,3.91q4.335,2.7,8.68,5.41a19.986,19.986,0,0,0,4.51,2.3,15.729,15.729,0,0,0,6.08.39,37.85,37.85,0,0,0,27.94-17.18,4.525,4.525,0,0,0,.91-2.45c-.02-.89-.73-1.81-2.43-1.36Z" fill="#fff"/>
        <path id="Path_75" data-name="Path 75" d="M158.34,85.22a13.431,13.431,0,0,1-3.91-.53,19.9,19.9,0,0,1-4.62-2.35l-8.68-5.41a.481.481,0,0,1,.16-.88,27.789,27.789,0,0,0,5.21-1.83,22.006,22.006,0,0,1,6.92-2.09,21.641,21.641,0,0,1,7.85,1.37,28.774,28.774,0,0,0,5.74,1.33,17.741,17.741,0,0,0,11.12-3.21,40.257,40.257,0,0,0,8.57-8.3.421.421,0,0,1,.25-.16,2.546,2.546,0,0,1,2.27.26,1.952,1.952,0,0,1,.76,1.55,4.942,4.942,0,0,1-.99,2.72,38.5,38.5,0,0,1-28.3,17.4c-.71.07-1.51.13-2.35.13Zm-15.73-8.5,7.71,4.8a19.145,19.145,0,0,0,4.39,2.24,15.273,15.273,0,0,0,5.89.37,37.512,37.512,0,0,0,27.58-16.95,4.167,4.167,0,0,0,.84-2.19,1.011,1.011,0,0,0-.38-.8,1.559,1.559,0,0,0-1.3-.14,40.477,40.477,0,0,1-8.68,8.37,18.7,18.7,0,0,1-11.74,3.37,29.124,29.124,0,0,1-5.94-1.37,20.78,20.78,0,0,0-7.5-1.33,20.79,20.79,0,0,0-6.61,2.01,36.414,36.414,0,0,1-4.27,1.61Z"/>
      </g>
      <g id="Group_53" data-name="Group 53">
        <path id="Path_76" data-name="Path 76" d="M201.08,171.15c-1.61,3.04-3.35,6.02-4.97,9.69,1.92,1.18,3.83,2.36,5.75,3.54a33.647,33.647,0,0,0,9,4.37c.28-2.21-1.01-4.3-2.45-6s-3.12-3.29-3.88-5.38c-.41-1.13-.53-2.34-.92-3.47a4.146,4.146,0,0,0-2.53-2.75Z" fill="#fff"/>
        <path id="Path_77" data-name="Path 77" d="M210.85,189.23a.352.352,0,0,1-.12-.02,33.894,33.894,0,0,1-9.13-4.43l-5.75-3.54a.48.48,0,0,1-.19-.6c1.21-2.75,2.49-5.1,3.73-7.38q.645-1.17,1.26-2.34a.477.477,0,0,1,.58-.23,4.572,4.572,0,0,1,2.82,3.05,15.178,15.178,0,0,1,.44,1.7,15.8,15.8,0,0,0,.47,1.77,14.115,14.115,0,0,0,2.91,4.22c.3.34.6.68.89,1.02,1.97,2.33,2.81,4.41,2.56,6.37a.478.478,0,0,1-.21.34.5.5,0,0,1-.27.08Zm-14.13-8.58,5.39,3.32a35.646,35.646,0,0,0,8.3,4.16c0-1.52-.78-3.19-2.37-5.07-.28-.34-.58-.67-.87-1a14.525,14.525,0,0,1-3.09-4.53,14.717,14.717,0,0,1-.51-1.89,15.589,15.589,0,0,0-.41-1.6,3.714,3.714,0,0,0-1.85-2.29c-.35.65-.7,1.31-1.06,1.96-1.17,2.15-2.38,4.38-3.52,6.93Z"/>
      </g>
      <g id="Group_54" data-name="Group 54">
        <path id="Path_78" data-name="Path 78" d="M161.89,111.89c-1.2,6.69-1.94,11.83,2.51,16.96,4.65,5.37,12.38,4.97,27.8,4.97.98,0,5.58.29,6.4.83,1.26.83.49,25.12-.21,39.54,2.95.57,5.9,1.13,8.67.75,12.02-52.77,8.4-48.63,4.49-52.88-5.09-5.53-19.58-7.18-23.14-7.6a73.222,73.222,0,0,0-8.99-.69c-6.29.03-13.61,1.33-17.52-1.89Z" fill="#d6efc1"/>
        <path id="Path_79" data-name="Path 79" d="M205.15,175.56a36.743,36.743,0,0,1-6.86-.89.486.486,0,0,1-.39-.5c.86-17.83,1.29-37.51.39-39.14-.75-.4-4.75-.72-6.09-.72h-2.98c-13.34.02-20.69.04-25.18-5.14-4.76-5.5-3.72-11.26-2.62-17.36a.488.488,0,0,1,.31-.37.471.471,0,0,1,.47.08c2.91,2.39,8.02,2.15,12.95,1.92,1.41-.07,2.87-.14,4.26-.14a73.446,73.446,0,0,1,9.05.7l.16.02c12.04,1.42,19.87,4.02,23.28,7.73.39.42.78.76,1.15,1.09,3.54,3.09,5.32,4.64-5.52,52.23a.479.479,0,0,1-.4.37,14.276,14.276,0,0,1-1.97.13Zm-6.27-1.75a27.109,27.109,0,0,0,7.78.71c10.63-46.71,8.79-48.31,5.75-50.96a14.262,14.262,0,0,1-1.23-1.16c-2.24-2.43-7.99-5.69-22.69-7.43l-.16-.02a71.808,71.808,0,0,0-8.93-.69c-1.37,0-2.82.07-4.22.14-4.79.23-9.73.46-12.96-1.67-1.17,6.68-1.47,11.17,2.53,15.8,4.19,4.85,10.97,4.83,24.45,4.81h2.98c.45,0,5.62.22,6.66.91.4.26,1.07.71.85,15.08-.11,6.78-.41,15.9-.82,24.47Zm-.61-38.8Z"/>
      </g>
      <g id="Group_60" data-name="Group 60">
        <g id="Group_55" data-name="Group 55">
          <path id="Path_80" data-name="Path 80" d="M182.06,15.2a106.821,106.821,0,0,0,1.22,12.2,29.165,29.165,0,0,0,2.15,7.29,4.172,4.172,0,0,0,1.98,2.24c.17-1,1.27-1.39,1.53-2.37.33-1.21-.35-2.37.5-3.38a18.107,18.107,0,0,0,3.51-6.39,8.818,8.818,0,0,0,.07-5.76,6.47,6.47,0,0,0-4.85-3.94c-1.77-.3-4.6-.87-6.11.11Z" fill="#d6efc1"/>
          <path id="Path_81" data-name="Path 81" d="M187.4,37.41a.451.451,0,0,1-.25-.07,4.69,4.69,0,0,1-2.17-2.46,30.239,30.239,0,0,1-2.19-7.41,108.018,108.018,0,0,1-1.22-12.25.526.526,0,0,1,.22-.43c1.59-1.03,4.35-.55,6.18-.23l.28.05a6.95,6.95,0,0,1,5.22,4.24,9.148,9.148,0,0,1-.06,6.07,18.493,18.493,0,0,1-3.6,6.56,2.088,2.088,0,0,0-.32,1.63,4.732,4.732,0,0,1-.09,1.57,3.178,3.178,0,0,1-.88,1.35,2.01,2.01,0,0,0-.64.98.5.5,0,0,1-.27.36.448.448,0,0,1-.2.04Zm-4.85-21.94a105.4,105.4,0,0,0,1.2,11.85,28.641,28.641,0,0,0,2.11,7.16,3.749,3.749,0,0,0,1.29,1.71,3.954,3.954,0,0,1,.66-.83,2.325,2.325,0,0,0,.65-.93,4.064,4.064,0,0,0,.06-1.26,2.936,2.936,0,0,1,.54-2.31,17.563,17.563,0,0,0,3.42-6.22,8.19,8.19,0,0,0,.08-5.44,5.983,5.983,0,0,0-4.48-3.64l-.28-.05c-1.58-.28-3.92-.68-5.25-.04Z"/>
        </g>
        <g id="Group_56" data-name="Group 56">
          <path id="Path_82" data-name="Path 82" d="M209.62,23.94c-.33,3.31.18,6.65.04,9.97s-1.04,6.79-3.7,9.2a12.251,12.251,0,0,1-9.42,2.78,11.5,11.5,0,0,1-8.27-4.91c-1.54-2.45-1.6-7.64-1.73-10.24a4.8,4.8,0,0,1-4.12-1.5,2.6,2.6,0,0,1,.31-3.64c1.11-.91,2.47-1,3.95.51a24.235,24.235,0,0,1,.67-5.15c.57-2.58.8-6.43,2.66-7.45a20.239,20.239,0,0,1,4.47-1.28c2.12-.44,4.96,1.02,7.15,1.12a12.437,12.437,0,0,1,6.09,2.42c2.05,1.41,2.14,5.68,1.89,8.16Z" fill="#fff"/>
          <path id="Path_83" data-name="Path 83" d="M198.03,46.47a13.426,13.426,0,0,1-1.55-.09,11.956,11.956,0,0,1-8.62-5.13c-1.45-2.31-1.64-6.69-1.76-9.6,0-.13-.01-.26-.02-.39a5.115,5.115,0,0,1-4.03-1.71,3.063,3.063,0,0,1,.38-4.31,2.948,2.948,0,0,1,3.81-.14,25.349,25.349,0,0,1,.64-4.17v-.06c.13-.53.23-1.1.34-1.72.42-2.41.9-5.14,2.58-6.06a20.181,20.181,0,0,1,4.46-1.3l.14-.03a10.024,10.024,0,0,1,4.45.54,14.526,14.526,0,0,0,2.82.57,12.593,12.593,0,0,1,6.34,2.51c2.64,1.81,2.21,7.49,2.1,8.6l-.48-.05.48.05a39.683,39.683,0,0,0-.02,5.56c.06,1.44.13,2.92.06,4.39-.18,4.17-1.47,7.38-3.86,9.54a12.478,12.478,0,0,1-8.25,2.99Zm-11.48-16.2a.447.447,0,0,1,.31.12.508.508,0,0,1,.17.34c.01.27.03.56.04.88.11,2.63.3,7.03,1.61,9.12a10.99,10.99,0,0,0,7.92,4.69,11.7,11.7,0,0,0,9.04-2.66c2.19-1.98,3.38-4.96,3.55-8.86.06-1.43,0-2.89-.06-4.31a40.052,40.052,0,0,1,.03-5.69c.28-2.83.01-6.55-1.69-7.71a11.623,11.623,0,0,0-5.84-2.34,15.028,15.028,0,0,1-3.03-.6,9.44,9.44,0,0,0-4-.53l-.14.03a19.166,19.166,0,0,0-4.19,1.2c-1.27.7-1.71,3.18-2.09,5.38-.11.62-.21,1.21-.33,1.76v.06a22.967,22.967,0,0,0-.66,4.98.491.491,0,0,1-.3.45.5.5,0,0,1-.53-.11c-1.16-1.19-2.24-1.35-3.3-.48a2.1,2.1,0,0,0-.24,2.96,4.321,4.321,0,0,0,3.69,1.32h.05Z"/>
        </g>
        <g id="Group_57" data-name="Group 57">
          <path id="Path_84" data-name="Path 84" d="M199.8,18.01a6.1,6.1,0,0,0,3.64,4.09c1.41.29,2.01-.31,2.73-1.62,1.15,1.25,1.98,2.5,3.22,3.12a4.055,4.055,0,0,0,5.34-2.04,4.373,4.373,0,0,0-2.08-5.52c1.32.46,2.81-.77,2.98-2.21a3.933,3.933,0,0,0-1.88-3.62,12.856,12.856,0,0,0-3.99-1.33,3.692,3.692,0,0,0-.89-4.13,5.688,5.688,0,0,0-4.04-1.37,5.087,5.087,0,0,0-2.74.74,3.345,3.345,0,0,0-1.48,2.53,5.366,5.366,0,0,0-4.95-2.72c-1.95.26-3.63,2.44-3.94,4.03a4.516,4.516,0,0,0-3.36-2.37c-2.85-.14-3.74,2.21-2.78,5.44a3.285,3.285,0,0,0-4.69,1.64,6.6,6.6,0,0,0,.63,5.64c1,1.4,4.9,2.9,7.91,1.19a7.585,7.585,0,0,0,3.17-3.78,5.56,5.56,0,0,0,3.2,3.46,3.022,3.022,0,0,0,3.99-1.16Z" fill="#d6efc1"/>
          <path id="Path_85" data-name="Path 85" d="M210.98,24.45a3.981,3.981,0,0,1-1.81-.42,8.626,8.626,0,0,1-2.56-2.32l-.36-.42a2.48,2.48,0,0,1-2.91,1.28c-1.31-.27-3.03-1.97-3.72-3.51a3.69,3.69,0,0,1-4.01.54,5.6,5.6,0,0,1-3.01-2.78,7.592,7.592,0,0,1-2.93,3.08c-3.29,1.87-7.46.19-8.54-1.32a7.062,7.062,0,0,1-.68-6.12,3.928,3.928,0,0,1,2.43-2.21,3.779,3.779,0,0,1,2-.05,4.831,4.831,0,0,1,.59-3.97,3.278,3.278,0,0,1,2.92-1.14,4.423,4.423,0,0,1,3.17,1.8,5.749,5.749,0,0,1,4.05-3.46,5.516,5.516,0,0,1,4.78,2.08,3.89,3.89,0,0,1,1.45-1.81,5.489,5.489,0,0,1,2.99-.82,6.125,6.125,0,0,1,4.38,1.5,4.238,4.238,0,0,1,1.21,4.14,1.891,1.891,0,0,0,.23.05,10.561,10.561,0,0,1,3.37,1.21,4.445,4.445,0,0,1,2.1,4.09,3.252,3.252,0,0,1-1.5,2.32,3,3,0,0,1-.51.25,4.939,4.939,0,0,1,1.07,5.29,4.523,4.523,0,0,1-2.63,2.42,4.47,4.47,0,0,1-1.56.28Zm-4.82-4.46a.519.519,0,0,1,.36.16c.29.32.56.63.82.94a7.906,7.906,0,0,0,2.26,2.08,3.333,3.333,0,0,0,2.6.1,3.539,3.539,0,0,0,2.07-1.9,3.9,3.9,0,0,0-1.82-4.89.488.488,0,0,1-.26-.62.5.5,0,0,1,.61-.28,1.518,1.518,0,0,0,1.29-.19,2.355,2.355,0,0,0,1.06-1.62,3.489,3.489,0,0,0-1.66-3.16,9.426,9.426,0,0,0-3.06-1.08c-.26-.06-.52-.12-.78-.19a.48.48,0,0,1-.32-.27.513.513,0,0,1,0-.42,3.187,3.187,0,0,0-.79-3.56,5.178,5.178,0,0,0-3.7-1.23,4.573,4.573,0,0,0-2.48.66,2.879,2.879,0,0,0-1.27,2.16.482.482,0,0,1-.89.23,4.823,4.823,0,0,0-4.48-2.5c-1.77.23-3.27,2.32-3.53,3.65a.484.484,0,0,1-.88.17,3.993,3.993,0,0,0-2.98-2.15,2.362,2.362,0,0,0-2.11.77c-.64.81-.71,2.29-.19,4.05a.475.475,0,0,1-.17.52.482.482,0,0,1-.55.02,2.654,2.654,0,0,0-2.16-.25,2.946,2.946,0,0,0-1.83,1.68,6.041,6.041,0,0,0,.58,5.16c.81,1.13,4.4,2.69,7.28,1.05a7.2,7.2,0,0,0,2.97-3.56.479.479,0,0,1,.44-.29h0a.486.486,0,0,1,.44.28,5.09,5.09,0,0,0,2.95,3.22,2.575,2.575,0,0,0,3.36-.92.479.479,0,0,1,.91.15,5.667,5.667,0,0,0,3.26,3.67c1.04.22,1.49-.07,2.21-1.38a.471.471,0,0,1,.36-.25h.06Z"/>
        </g>
        <path id="Path_86" data-name="Path 86" d="M206.06,28.41a.79.79,0,1,0-.93.56A.77.77,0,0,0,206.06,28.41Z"/>
        <path id="Path_87" data-name="Path 87" d="M195.11,27.87a.79.79,0,1,0-.93.56A.77.77,0,0,0,195.11,27.87Z"/>
        <path id="Path_88" data-name="Path 88" d="M197.44,41.24a4.412,4.412,0,0,1-3.57-1.85.481.481,0,1,1,.79-.55,3.454,3.454,0,0,0,3.26,1.4.481.481,0,0,1,.15.95,4.458,4.458,0,0,1-.63.05Z"/>
        <path id="Path_89" data-name="Path 89" d="M199.73,37.33a3.878,3.878,0,0,1-1.03-.13,3.081,3.081,0,0,1-1.95-1.47.481.481,0,1,1,.85-.45,2.167,2.167,0,0,0,1.34.99,3.765,3.765,0,0,0,1.85-.04,1.4,1.4,0,0,0,.62-.27,1,1,0,0,0,.23-.84,4.007,4.007,0,0,0-.29-1l-.06-.17a14.981,14.981,0,0,1-.82-6.7.483.483,0,0,1,.53-.43.489.489,0,0,1,.43.53,14.066,14.066,0,0,0,.76,6.27l.06.16a5.385,5.385,0,0,1,.34,1.24,1.921,1.921,0,0,1-.53,1.64,2.33,2.33,0,0,1-1.05.51,5.53,5.53,0,0,1-1.3.17Z"/>
        <path id="Path_90" data-name="Path 90" d="M186.69,28.31a.485.485,0,0,1-.48-.47c-.03-.92-.02-1.41-.01-2.3a.487.487,0,0,1,.48-.48h0a.482.482,0,0,1,.48.49c0,.91-.01,1.36,0,2.27a.489.489,0,0,1-.47.5h-.01Z"/>
        <path id="Path_91" data-name="Path 91" d="M184.75,17.6a.451.451,0,0,1-.25-.07,4.226,4.226,0,0,1-1.86-4.36.486.486,0,0,1,.57-.37.479.479,0,0,1,.37.57A3.208,3.208,0,0,0,185,16.7a.48.48,0,0,1-.25.89Z"/>
        <g id="Group_58" data-name="Group 58" opacity="0.13">
          <path id="Path_92" data-name="Path 92" d="M192.89,15.68c.16.24.32.47.5.7.01.05.04.12.1.3a5.58,5.58,0,0,0,.35.69,6.327,6.327,0,0,0,1.55,1.64.449.449,0,0,1,.57-.15c.03.01.07.03.1.04l.06.02a9.769,9.769,0,0,0,1.2.23h-.13a5.427,5.427,0,0,0,1.24-.1l.14-.03a.545.545,0,0,1,.31,0,.235.235,0,0,0,.08-.02l.02-.04v-.03a.951.951,0,0,1,.01-.14.591.591,0,0,1,.74-.49.7.7,0,0,1,.47.76,3.359,3.359,0,0,0,.16.33c.26.4.57.78.87,1.16.06.07.22.25.25.29l.04.04a4.957,4.957,0,0,0,1.76,1.17h.01a2.136,2.136,0,0,0,.5.06.389.389,0,0,0,.15-.02.185.185,0,0,0,.07-.02.887.887,0,0,0,.17-.08l.04-.03a.738.738,0,0,0,.06-.05,1.172,1.172,0,0,0,.55-.13,1.135,1.135,0,0,0,.49-.27,1.22,1.22,0,0,0,.2-.25l.02-.04s.03-.02.03-.03a.9.9,0,0,0,.09-.1,4.2,4.2,0,0,0,.49-.7h.02a.627.627,0,0,1,.49.37,2.03,2.03,0,0,0,.11.26c.01.02.03.05.04.07a.518.518,0,0,0,.03.05h0v.02c.16.18.28.38.44.55.06.07.13.13.19.19l.06.06.03.03a8.151,8.151,0,0,0,1.08.86c.26.21.63.31.8.6a.662.662,0,0,1-.97.86,8.152,8.152,0,0,1-2.15-1.86,3.282,3.282,0,0,1-.27-.38,4.5,4.5,0,0,1-1.46,1.22,2.865,2.865,0,0,1-2.62-.39,6.073,6.073,0,0,1-1.39-1.2,8.57,8.57,0,0,1-1.01-1.4,2.982,2.982,0,0,1-.87.67,2.389,2.389,0,0,1-1.49.18.107.107,0,0,1,.06.02.772.772,0,0,1-.15-.02,5.31,5.31,0,0,1-1.75-.74,7.316,7.316,0,0,1-2.08-1.84,5.246,5.246,0,0,1-.8-1.56c-.03-.14,0-.02.02.06-.08-.21-.14-.42-.2-.64a.654.654,0,0,1-.03-.39.5.5,0,0,1,.61-.38Z"/>
        </g>
        <g id="Group_59" data-name="Group 59" opacity="0.13">
          <path id="Path_93" data-name="Path 93" d="M182.32,19.85c.26-.35.66-.15.98-.02.48.19.98.32,1.46.5a9.738,9.738,0,0,0,1.07.39h-.01c.11.03.2.05,0,0,.19.06.4.08.59.16a.6.6,0,0,1,.24-.2.589.589,0,0,1,.77.76,8.239,8.239,0,0,0-.43,1.07c-.09.55-.28,1.42-1.03,1.15a.709.709,0,0,1-.33-.31c.01.05-.29-.32-.38-.4-.33-.35-.98-.92-1.61-1.48-.33-.28-.67-.54-1.03-.79-.03-.02-.06-.03-.09-.05s-.06-.04-.1-.06a.515.515,0,0,1-.11-.73Z"/>
        </g>
      </g>
      <g id="Group_61" data-name="Group 61">
        <path id="Path_94" data-name="Path 94" d="M191.45,59.63a2.32,2.32,0,0,0-3.36-.61l-1.11.82c-.61.46-1.29,1.01-1.32,1.78a2.642,2.642,0,0,0,.77,1.66,3.587,3.587,0,0,0,2.17,1.6,3.462,3.462,0,0,0,1.81-.48,3.116,3.116,0,0,0,1.02-.65A2.521,2.521,0,0,0,192,62.2a4.376,4.376,0,0,0-.54-2.56v-.02Z" fill="#fff"/>
        <path id="Path_95" data-name="Path 95" d="M188.79,65.38a1.927,1.927,0,0,1-.24-.01,4.023,4.023,0,0,1-2.5-1.78,3.116,3.116,0,0,1-.87-1.99,3.106,3.106,0,0,1,1.52-2.14l1.11-.82a2.87,2.87,0,0,1,2.25-.51,2.65,2.65,0,0,1,1.8,1.26h0a4.944,4.944,0,0,1,.61,2.87,2.963,2.963,0,0,1-.7,1.84,3.538,3.538,0,0,1-1.16.75,4.362,4.362,0,0,1-1.83.54Zm.71-6.34a1.933,1.933,0,0,0-1.13.37l-1.11.82c-.53.4-1.1.86-1.13,1.42a2.284,2.284,0,0,0,.66,1.34c.54.68,1.13,1.35,1.85,1.42a3.073,3.073,0,0,0,1.56-.44,2.915,2.915,0,0,0,.87-.54,2.019,2.019,0,0,0,.44-1.25,3.853,3.853,0,0,0-.48-2.27l.4-.27-.41.25a1.744,1.744,0,0,0-1.16-.81,2.206,2.206,0,0,0-.37-.04Z"/>
      </g>
      <path id="Path_96" data-name="Path 96" d="M183.01,57.61a.473.473,0,0,1-.4-.22,10.5,10.5,0,0,1-1.66-4.51.484.484,0,1,1,.96-.12,9.383,9.383,0,0,0,1.5,4.09.477.477,0,0,1-.14.67.5.5,0,0,1-.27.08Z"/>
      <path id="Path_97" data-name="Path 97" d="M180.96,59.08a.5.5,0,0,1-.36-.16l-1.23-1.4a.482.482,0,1,1,.72-.64l1.23,1.4a.478.478,0,0,1-.04.68.49.49,0,0,1-.32.12Z"/>
      <path id="Path_98" data-name="Path 98" d="M172.76,111.79h-.07a34.2,34.2,0,0,1-8.77-2.42.479.479,0,1,1,.38-.88,32.773,32.773,0,0,0,8.52,2.35.482.482,0,0,1-.07.96Z"/>
      <g id="Group_62" data-name="Group 62" opacity="0.13">
        <path id="Path_99" data-name="Path 99" d="M218.78,94.28a3.281,3.281,0,0,0-1.45.68c-.73.49-1.46.96-2.18,1.46a46.192,46.192,0,0,0-4.88,3.83,1.1,1.1,0,0,0,1.55,1.55,47.628,47.628,0,0,1,4.76-3.71c.68-.43,1.35-.87,2.04-1.29.34-.25.8-.36,1.05-.71a1.12,1.12,0,0,0-.88-1.8Z"/>
      </g>
      <path id="Path_100" data-name="Path 100" d="M164.9,186.27h-.01a.165.165,0,0,1-.15-.17l1.15-13.11a.16.16,0,1,1,.32.02l-1.15,13.11A.163.163,0,0,1,164.9,186.27Z"/>
      <path id="Path_101" data-name="Path 101" d="M170.1,188.08h0a.167.167,0,0,1-.16-.17l.55-16.36a.158.158,0,0,1,.16-.16h0a.167.167,0,0,1,.16.17l-.55,16.36A.158.158,0,0,1,170.1,188.08Z"/>
      <path id="Path_102" data-name="Path 102" d="M219.98,147.05h0a.153.153,0,0,1-.15-.17l.3-7.21a.159.159,0,0,1,.17-.15.153.153,0,0,1,.15.17l-.3,7.21a.15.15,0,0,1-.16.15Z"/>
      <path id="Path_103" data-name="Path 103" d="M224.61,152.97h0a.158.158,0,0,1-.16-.16c.03-6.51.22-13.11.57-19.61a.16.16,0,0,1,.32.02c-.34,6.49-.54,13.09-.57,19.59a.158.158,0,0,1-.16.16Z"/>
      <path id="Path_104" data-name="Path 104" d="M198.61,180.18h-.04a.162.162,0,0,1-.11-.2,19.274,19.274,0,0,1,1.7-4.06.161.161,0,0,1,.22-.06.153.153,0,0,1,.06.22,19.218,19.218,0,0,0-1.67,4,.159.159,0,0,1-.15.12Z"/>
      <path id="Path_105" data-name="Path 105" d="M199.84,181.52h-.03a.154.154,0,0,1-.12-.19,13.871,13.871,0,0,1,1.14-3.32.163.163,0,0,1,.29.15,13.352,13.352,0,0,0-1.11,3.24.16.16,0,0,1-.16.13Z"/>
      <path id="Path_106" data-name="Path 106" d="M201.31,182.68h0a.158.158,0,0,1-.16-.16,8.659,8.659,0,0,1,.83-3.53.159.159,0,1,1,.29.13,8.146,8.146,0,0,0-.79,3.4.158.158,0,0,1-.16.16Z"/>
      <path id="Path_107" data-name="Path 107" d="M202.94,183.57h0a.158.158,0,0,1-.16-.16,13.21,13.21,0,0,1,.47-3.24.158.158,0,0,1,.2-.11.151.151,0,0,1,.11.2,12.5,12.5,0,0,0-.46,3.16.158.158,0,0,1-.16.16Z"/>
      <path id="Path_108" data-name="Path 108" d="M204.73,184.77a.158.158,0,0,1-.16-.16,25.768,25.768,0,0,1,.22-3.4.161.161,0,1,1,.32.04,23.563,23.563,0,0,0-.22,3.35.158.158,0,0,1-.16.16h0Z"/>
      <path id="Path_109" data-name="Path 109" d="M206.45,185.53a.156.156,0,0,1-.16-.15,19.859,19.859,0,0,1,.07-2.78.161.161,0,1,1,.32.04,19.117,19.117,0,0,0-.07,2.73.165.165,0,0,1-.15.17h0Z"/>
      <path id="Path_110" data-name="Path 110" d="M208.12,186.82a.162.162,0,0,1-.16-.14,9.91,9.91,0,0,1-.04-2.31.161.161,0,0,1,.32.04,9.787,9.787,0,0,0,.04,2.23.159.159,0,0,1-.14.18h-.02Z"/>
      <path id="Path_111" data-name="Path 111" d="M147.77,78.76a.256.256,0,0,1-.12-.06,28.29,28.29,0,0,1-1.72-2.35.16.16,0,0,1,.27-.17,25.538,25.538,0,0,0,1.7,2.32.161.161,0,0,1-.02.23.211.211,0,0,1-.1.04Z"/>
      <path id="Path_112" data-name="Path 112" d="M152.45,82.06a.327.327,0,0,1-.13-.06c-1.66-2.08-3.27-4.24-4.8-6.41a.158.158,0,1,1,.26-.18c1.52,2.17,3.13,4.32,4.78,6.4a.162.162,0,0,1-.03.23.169.169,0,0,1-.1.03Z"/>
      <path id="Path_113" data-name="Path 113" d="M156.01,83.09a.256.256,0,0,1-.12-.06c-2.16-2.65-4.25-5.42-6.2-8.23a.158.158,0,1,1,.26-.18c1.95,2.8,4.03,5.56,6.18,8.21a.161.161,0,0,1-.02.23.211.211,0,0,1-.1.04Z"/>
      <path id="Path_114" data-name="Path 114" d="M158.58,83.63a.256.256,0,0,1-.12-.06,78.758,78.758,0,0,1-6.55-8.96.16.16,0,0,1,.27-.17,78.939,78.939,0,0,0,6.52,8.92.161.161,0,0,1-.02.23.143.143,0,0,1-.1.04Z"/>
      <path id="Path_115" data-name="Path 115" d="M161.02,83.39a.256.256,0,0,1-.12-.06,103.755,103.755,0,0,1-6.81-8.94.158.158,0,1,1,.26-.18,103.1,103.1,0,0,0,6.79,8.91.161.161,0,0,1-.02.23.143.143,0,0,1-.1.04Z"/>
      <path id="Path_116" data-name="Path 116" d="M163.47,83.13a.334.334,0,0,1-.12-.05,72.469,72.469,0,0,1-6.86-8.66.158.158,0,1,1,.26-.18,73.653,73.653,0,0,0,6.83,8.62.169.169,0,0,1,0,.23.15.15,0,0,1-.11.04Z"/>
      <path id="Path_117" data-name="Path 117" d="M165.52,82.65a.334.334,0,0,1-.12-.05,94.969,94.969,0,0,1-6.31-7.56.164.164,0,1,1,.26-.2,92.544,92.544,0,0,0,6.29,7.53.169.169,0,0,1,0,.23.15.15,0,0,1-.11.04Z"/>
      <path id="Path_118" data-name="Path 118" d="M167.65,82.06a.424.424,0,0,1-.12-.05c-2.03-2.11-4.02-4.31-5.91-6.55a.163.163,0,0,1,.25-.21c1.89,2.23,3.87,4.43,5.9,6.54a.169.169,0,0,1,0,.23.15.15,0,0,1-.11.04Z"/>
      <path id="Path_119" data-name="Path 119" d="M169.72,81.26a.243.243,0,0,1-.11-.04c-1.57-1.48-3.1-3.04-4.55-4.63a.163.163,0,1,1,.24-.22c1.45,1.59,2.97,3.14,4.53,4.62a.16.16,0,0,1,0,.23.166.166,0,0,1-.12.05Z"/>
      <path id="Path_120" data-name="Path 120" d="M171.71,80.56a.243.243,0,0,1-.11-.04c-1.27-1.14-2.5-2.36-3.67-3.6a.163.163,0,1,1,.23-.23c1.16,1.24,2.39,2.44,3.65,3.58a.16.16,0,0,1,.01.23.185.185,0,0,1-.12.05Z"/>
      <path id="Path_121" data-name="Path 121" d="M173.3,79.53a.243.243,0,0,1-.11-.04l-2.96-2.83a.163.163,0,0,1,.23-.23l2.96,2.83a.16.16,0,0,1,0,.23.166.166,0,0,1-.12.05Z"/>
      <path id="Path_122" data-name="Path 122" d="M175.34,78.81a.243.243,0,0,1-.11-.04l-2.74-2.59a.163.163,0,1,1,.23-.23l2.74,2.59a.16.16,0,0,1,0,.23.166.166,0,0,1-.12.05Z"/>
      <path id="Path_123" data-name="Path 123" d="M176.75,77.83a.326.326,0,0,1-.1-.03,21.672,21.672,0,0,1-2.23-2.05.163.163,0,1,1,.23-.23,22.018,22.018,0,0,0,2.19,2.02.172.172,0,0,1,.03.23.161.161,0,0,1-.13.06Z"/>
      <path id="Path_124" data-name="Path 124" d="M178.11,76.84a.243.243,0,0,1-.11-.04l-1.91-1.83a.163.163,0,0,1,.23-.23l1.91,1.83a.16.16,0,0,1,0,.23.166.166,0,0,1-.12.05Z"/>
      <path id="Path_125" data-name="Path 125" d="M179.64,75.86a.243.243,0,0,1-.11-.04,21.158,21.158,0,0,0-1.96-1.58.158.158,0,0,1,.18-.26,21.874,21.874,0,0,1,1.99,1.61.16.16,0,0,1,.01.23.185.185,0,0,1-.12.05Z"/>
      <path id="Path_126" data-name="Path 126" d="M180.99,74.69a.148.148,0,0,1-.09-.03,15.94,15.94,0,0,1-1.82-1.46.163.163,0,0,1,.23-.23,15.264,15.264,0,0,0,1.78,1.43.16.16,0,0,1,.04.22.146.146,0,0,1-.13.07Z"/>
      <path id="Path_127" data-name="Path 127" d="M182.36,73.26a.326.326,0,0,1-.1-.03l-1.6-1.18a.157.157,0,1,1,.19-.25l1.6,1.18a.15.15,0,0,1,.03.22.161.161,0,0,1-.13.06Z"/>
      <path id="Path_128" data-name="Path 128" d="M183.58,71.78a.326.326,0,0,1-.1-.03l-1.08-.84a.164.164,0,0,1,.2-.26l1.09.84a.17.17,0,0,1,.03.23.161.161,0,0,1-.13.06Z"/>
      <path id="Path_129" data-name="Path 129" d="M184.9,70.77a.218.218,0,0,1-.1-.04l-1.13-.98a.163.163,0,1,1,.21-.25l1.13.98a.17.17,0,0,1,.02.23.156.156,0,0,1-.12.06Z"/>
      <path id="Path_130" data-name="Path 130" d="M185.94,69.43s-.06,0-.08-.02c-.38-.23-.77-.49-1.14-.75a.158.158,0,0,1,.18-.26c.36.26.74.5,1.12.73a.154.154,0,0,1,.05.22.16.16,0,0,1-.14.08Z"/>
      <path id="Path_131" data-name="Path 131" d="M187.01,68.1a.2.2,0,0,1-.09-.02l-1.18-.75a.16.16,0,0,1,.17-.27l1.18.75a.162.162,0,0,1,.05.22.151.151,0,0,1-.14.07Z"/>
      <path id="Path_132" data-name="Path 132" d="M187.95,66.68a.123.123,0,0,1-.07-.02l-1.06-.55a.163.163,0,1,1,.15-.29l1.06.55a.164.164,0,0,1,.07.22.151.151,0,0,1-.14.09Z"/>
      <path id="Path_133" data-name="Path 133" d="M189.65,63.63a.172.172,0,0,1-.08-.02,18.551,18.551,0,0,1-2.27-1.55.163.163,0,1,1,.21-.25,17.439,17.439,0,0,0,2.22,1.52.16.16,0,0,1-.08.3Z"/>
      <path id="Path_134" data-name="Path 134" d="M190.77,62.51a.123.123,0,0,1-.07-.02,14.834,14.834,0,0,1-1.66-.91.16.16,0,1,1,.17-.27,17,17,0,0,0,1.62.89.156.156,0,0,1-.07.3Z"/>
      <path id="Path_135" data-name="Path 135" d="M244.8,88.16h-.03a.154.154,0,0,1-.12-.19l.77-3.62a.158.158,0,0,1,.19-.12.154.154,0,0,1,.12.19l-.77,3.62a.16.16,0,0,1-.16.13Z"/>
      <path id="Path_136" data-name="Path 136" d="M246.82,92.65h-.02a.159.159,0,0,1-.14-.18,85.581,85.581,0,0,1,1.67-9.15.159.159,0,1,1,.31.07,85.46,85.46,0,0,0-1.66,9.12.162.162,0,0,1-.16.14Z"/>
      <path id="Path_137" data-name="Path 137" d="M248.9,96.59h-.02a.159.159,0,0,1-.14-.18c.53-4.69,1.2-9.43,1.97-14.09a.157.157,0,0,1,.31.05c-.77,4.65-1.43,9.38-1.97,14.07a.155.155,0,0,1-.16.14Z"/>
      <path id="Path_138" data-name="Path 138" d="M251.16,100.88h-.01a.165.165,0,0,1-.15-.17c.48-5.64,1.07-11.35,1.76-16.98a.161.161,0,1,1,.32.04c-.68,5.62-1.27,11.33-1.75,16.97a.163.163,0,0,1-.16.15Z"/>
      <path id="Path_139" data-name="Path 139" d="M253.36,103.88h-.02a.154.154,0,0,1-.14-.18l1.42-14.51a.161.161,0,1,1,.32.04l-1.42,14.51a.163.163,0,0,1-.16.15Z"/>
      <path id="Path_140" data-name="Path 140" d="M255.36,108.1h-.02a.159.159,0,0,1-.14-.18l1.59-14.44a.161.161,0,0,1,.32.04l-1.59,14.44a.155.155,0,0,1-.16.14Z"/>
      <path id="Path_141" data-name="Path 141" d="M257.68,111.74h-.02a.159.159,0,0,1-.14-.18c.58-4.68,1.05-9.43,1.4-14.12a.165.165,0,0,1,.17-.15.153.153,0,0,1,.15.17c-.35,4.7-.82,9.46-1.4,14.14a.162.162,0,0,1-.16.14Z"/>
      <path id="Path_142" data-name="Path 142" d="M260.2,115.45h-.01a.159.159,0,0,1-.15-.17l1.01-13.67a.153.153,0,0,1,.17-.15.159.159,0,0,1,.15.17l-1.01,13.67A.163.163,0,0,1,260.2,115.45Z"/>
      <path id="Path_143" data-name="Path 143" d="M262.78,119h0a.164.164,0,0,1-.16-.16c.1-4.52.31-9.1.64-13.6a.16.16,0,0,1,.32.02c-.33,4.5-.55,9.07-.64,13.59a.158.158,0,0,1-.16.16Z"/>
      <path id="Path_144" data-name="Path 144" d="M265.15,122.14h0a.153.153,0,0,1-.15-.17l.69-12.99a.159.159,0,0,1,.17-.15.153.153,0,0,1,.15.17l-.69,12.99a.156.156,0,0,1-.16.15Z"/>
      <path id="Path_145" data-name="Path 145" d="M267.19,124.56h-.01a.165.165,0,0,1-.15-.17l.97-12.11a.16.16,0,0,1,.32.02l-.97,12.11A.163.163,0,0,1,267.19,124.56Z"/>
      <path id="Path_146" data-name="Path 146" d="M269.59,127.54h-.01a.159.159,0,0,1-.15-.17c.3-3.96.52-7.99.64-11.96a.165.165,0,0,1,.33.01c-.13,3.98-.34,8.01-.64,11.98a.163.163,0,0,1-.16.15Z"/>
      <path id="Path_147" data-name="Path 147" d="M271.97,130.19h-.01a.153.153,0,0,1-.15-.17l.82-11.91a.16.16,0,0,1,.32.02l-.82,11.91a.163.163,0,0,1-.16.15Z"/>
      <path id="Path_148" data-name="Path 148" d="M274.11,132.41h-.02a.165.165,0,0,1-.14-.18c.51-3.6.88-7.26,1.1-10.89a.148.148,0,0,1,.17-.15.153.153,0,0,1,.15.17c-.22,3.64-.59,7.31-1.1,10.92a.162.162,0,0,1-.16.14Z"/>
      <path id="Path_149" data-name="Path 149" d="M277.03,135.86h0a.153.153,0,0,1-.15-.17l.56-11.47a.16.16,0,0,1,.32.02l-.56,11.47a.15.15,0,0,1-.16.15Z"/>
      <path id="Path_150" data-name="Path 150" d="M280.04,138.29a.158.158,0,0,1-.16-.16l-.04-11.28a.158.158,0,0,1,.16-.16h0a.158.158,0,0,1,.16.16l.04,11.28a.158.158,0,0,1-.16.16Z"/>
      <path id="Path_151" data-name="Path 151" d="M282.71,139.99a.158.158,0,0,1-.16-.16l-.23-10.26a.16.16,0,1,1,.32,0l.23,10.26a.158.158,0,0,1-.16.16Z"/>
      <path id="Path_152" data-name="Path 152" d="M285.22,137.88a.162.162,0,0,1-.16-.14,31.189,31.189,0,0,1-.1-5.55.153.153,0,0,1,.17-.15.159.159,0,0,1,.15.17,31.567,31.567,0,0,0,.1,5.5.167.167,0,0,1-.14.18h-.02Z"/>
      <path id="Path_153" data-name="Path 153" d="M122.92,184.85h-.05a.166.166,0,0,1-.11-.2l.94-3.2a.166.166,0,0,1,.2-.11.158.158,0,0,1,.11.2l-.94,3.2a.159.159,0,0,1-.15.12Z"/>
      <path id="Path_154" data-name="Path 154" d="M124.29,188.68h-.03a.168.168,0,0,1-.13-.19c.54-2.83,1.21-5.68,1.99-8.45a.161.161,0,1,1,.31.09c-.77,2.76-1.44,5.6-1.98,8.42a.153.153,0,0,1-.16.13Z"/>
      <path id="Path_155" data-name="Path 155" d="M125.98,193.39h-.02a.159.159,0,0,1-.14-.18c.41-3.13.96-6.29,1.64-9.38a.159.159,0,0,1,.31.07c-.67,3.08-1.22,6.22-1.63,9.35a.162.162,0,0,1-.16.14Z"/>
      <path id="Path_156" data-name="Path 156" d="M127.91,197.4h-.02a.159.159,0,0,1-.14-.18c.33-3.09.74-6.2,1.21-9.26a.157.157,0,0,1,.31.05c-.47,3.06-.88,6.17-1.21,9.25a.155.155,0,0,1-.16.14Z"/>
      <path id="Path_157" data-name="Path 157" d="M129.76,201.5h-.02a.154.154,0,0,1-.14-.18l.96-9.84a.161.161,0,1,1,.32.04l-.96,9.84a.163.163,0,0,1-.16.15Z"/>
      <path id="Path_158" data-name="Path 158" d="M131.9,205.13h-.02a.159.159,0,0,1-.14-.18l.99-9.37a.15.15,0,0,1,.18-.14.154.154,0,0,1,.14.18l-.99,9.37a.155.155,0,0,1-.16.14Z"/>
      <path id="Path_159" data-name="Path 159" d="M134.49,208.62h-.01a.159.159,0,0,1-.15-.17l.68-8.9a.172.172,0,0,1,.17-.15.159.159,0,0,1,.15.17l-.68,8.9A.163.163,0,0,1,134.49,208.62Z"/>
      <path id="Path_160" data-name="Path 160" d="M137.2,212.01h0a.158.158,0,0,1-.16-.16c.03-2.91.13-5.87.31-8.78a.148.148,0,0,1,.17-.15.153.153,0,0,1,.15.17c-.18,2.91-.28,5.86-.31,8.77a.158.158,0,0,1-.16.16Z"/>
      <path id="Path_161" data-name="Path 161" d="M140.2,214.77a.156.156,0,0,1-.16-.15c-.13-2.8-.18-5.63-.17-8.43a.158.158,0,0,1,.16-.16h0a.158.158,0,0,1,.16.16c-.02,2.79.04,5.63.16,8.42a.165.165,0,0,1-.15.17h0Z"/>
      <path id="Path_162" data-name="Path 162" d="M143.11,217.69a.162.162,0,0,1-.16-.14,72.642,72.642,0,0,1-.42-8.08.158.158,0,0,1,.16-.16.172.172,0,0,1,.16.16,74.385,74.385,0,0,0,.41,8.04.167.167,0,0,1-.14.18h-.02Z"/>
      <path id="Path_163" data-name="Path 163" d="M146.14,219.91a.162.162,0,0,1-.16-.14c-.35-2.39-.61-4.82-.79-7.24a.16.16,0,1,1,.32-.02c.18,2.41.45,4.83.79,7.22a.159.159,0,0,1-.14.18h-.02Z"/>
      <path id="Path_164" data-name="Path 164" d="M149.37,222.21a.169.169,0,0,1-.16-.13c-.55-2.48-.99-5.01-1.31-7.52a.161.161,0,1,1,.32-.04c.32,2.51.76,5.03,1.3,7.5a.161.161,0,0,1-.12.19Z"/>
      <path id="Path_165" data-name="Path 165" d="M152.35,223.81a.171.171,0,0,1-.16-.12c-.54-2.26-1.02-4.58-1.44-6.87a.16.16,0,0,1,.13-.19.174.174,0,0,1,.19.13c.41,2.29.9,4.59,1.44,6.85a.154.154,0,0,1-.12.19h-.04Z"/>
      <path id="Path_166" data-name="Path 166" d="M154.95,223.88a.171.171,0,0,1-.16-.12l-1.16-5.06a.159.159,0,0,1,.31-.07l1.16,5.06a.154.154,0,0,1-.12.19h-.04Z"/>
      <path id="Path_167" data-name="Path 167" d="M157.52,223.08h0a.283.283,0,0,1-.2-.18l-.75-2.4a.158.158,0,0,1,.11-.2.151.151,0,0,1,.2.11l.72,2.32s.05.02.06.04a.18.18,0,0,1,.03.21.2.2,0,0,1-.17.11Z"/>
      <g id="Group_63" data-name="Group 63" opacity="0.13">
        <path id="Path_168" data-name="Path 168" d="M197.51,46.35a4.929,4.929,0,0,0-2.08-.69,14.93,14.93,0,0,1-2.04-.71,9.585,9.585,0,0,1-1.06-.54.834.834,0,0,0-.12-.08,1.584,1.584,0,0,0-.61-.3,4.317,4.317,0,0,0-.82-.66.924.924,0,0,0-1.01,1.5c1.48,1.43,2.93,2.88,4.39,4.32.69.62,1.21,1.5,2.06,1.9a.9.9,0,0,0,1.07-.53,3.379,3.379,0,0,0,.11-1.1,4.78,4.78,0,0,1,.21-1.55,1.442,1.442,0,0,0-.11-1.56Z"/>
      </g>
      <g id="Group_64" data-name="Group 64" opacity="0.13">
        <path id="Path_169" data-name="Path 169" d="M188.22,68.27c-1.16,1.38-2.28,2.78-3.53,4.08-.59.61-1.2,1.19-1.82,1.77l-.27.3c-.64.7-1.28,1.41-1.94,2.1a.809.809,0,0,0-.37-.12c-.42.35-.84.7-1.26,1.04a.451.451,0,0,1-.58-.01h0a44.787,44.787,0,0,1-9.24,5.28,1.027,1.027,0,0,1-.14.04c-.1.07-.21.14-.3.21a3.187,3.187,0,0,0-.61,1.83c-.13.76-.16,1.8.69,2.13.69.33,1.28-.24,1.85-.56a30.127,30.127,0,0,0,3.03-1.96,36.057,36.057,0,0,0,6.84-4.97,72.923,72.923,0,0,0,5.08-5.46,18.083,18.083,0,0,0,1.16-1.6,21.56,21.56,0,0,0,.9-2.17c.21-.63.37-1.28.55-1.92h-.01Z"/>
      </g>
      <g id="Group_65" data-name="Group 65" opacity="0.13">
        <path id="Path_170" data-name="Path 170" d="M199.19,134.84c-.6-.57-1.49-.43-2.24-.54a40.086,40.086,0,0,0-6.48-.31c-.94.03-1.87.03-2.81.03a4,4,0,0,0-1.25.09,1.043,1.043,0,0,0-.35.22c-1.44-.07-2.88-.13-4.33-.21a79.352,79.352,0,0,1-8.49-.88.944.944,0,0,0-.5,1.82c1.51.36,3.06.47,4.59.68,1.84.26,4.48.55,7.06.73,2.81.2,5.6.56,8.41.72a23.426,23.426,0,0,0,5.67-.3,1.221,1.221,0,0,0,.72-2.06Z"/>
      </g>
      <g id="Group_68" data-name="Group 68">
        <g id="Group_66" data-name="Group 66" opacity="0.13">
          <path id="Path_171" data-name="Path 171" d="M212.14,185.57a.494.494,0,0,0,.04.09C212.22,185.76,212.25,185.82,212.14,185.57Z"/>
        </g>
        <g id="Group_67" data-name="Group 67" opacity="0.13">
          <path id="Path_172" data-name="Path 172" d="M214.14,148.09a.885.885,0,0,0-1.6.21c-1,3.51-1.24,7.17-1.94,10.74-.36,1.83-.84,3.64-1.17,5.48a53.182,53.182,0,0,1-1.71,7.7,18.946,18.946,0,0,1-.99,2.72,1.63,1.63,0,0,1-.11.17h-.03c-.26.02-.53,0-.79.01a1.511,1.511,0,0,0-1.42,2.24c.6,1.95,2.96,4.78,3.53,5.54a18.791,18.791,0,0,1,2.75,4.72c.14.47.25.96.36,1.44a1.036,1.036,0,0,0,.3.66,1.05,1.05,0,0,0,1.78-.78,13.948,13.948,0,0,0-.84-3.1,1.388,1.388,0,0,0-.06-.19l-.05-.12c-.14-.35-.64-1.52-.42-1-.47-1.08-1.08-2.6-1.71-4.28-.41-1.07-.8-2.15-1.24-3.21-.15-.28-.23-.62-.38-.9a31.706,31.706,0,0,0,2.29-7.21c.55-3.05,1.1-6.1,1.79-9.12.41-2.39.92-6.72,1-7.17.15-1.09.34-2.18.6-3.26.09-.43.35-.89.08-1.31Z"/>
        </g>
      </g>
      <g id="Group_69" data-name="Group 69" opacity="0.13">
        <path id="Path_173" data-name="Path 173" d="M296.63,125.56a1.771,1.771,0,0,0-1.7.05c-1.32,1.4-2.58,2.84-3.81,4.3-.75-.16-1.17.51-1.58,1.13-.45.65-.91,1.31-1.4,1.94-.22.28-.44.56-.66.83-3.53,3.14-7.27,6.05-10.85,9.13-6.55,5.31-13.12,10.62-19.49,15.56-.26.18-.52.36-.77.53-4.29,2.91-8.68,5.68-12.96,8.61-8.87,6.13-17.58,12.47-26.68,18.25-4.07,2.63-8.21,5.16-12.3,7.75-2.71,1.69-5.53,3.19-8.28,4.81-4.16,2.53-8.25,5.17-12.47,7.6-3.69,2.32-7.52,4.41-11.38,6.45q-5.16,2.955-10.2,6.13c-.99.61-1.98,1.22-2.98,1.82-.42.26-.94.45-1.15.91-.7.33-1.37.62-1.99.86a1.105,1.105,0,0,0,.59,2.13c.29-.11.58-.22.86-.34a1.144,1.144,0,0,0,.87,2.09c8.25-1.89,16.46-4.02,24.8-5.54,2.16-.36,3.03-.48,4.75-.66,1.26-.06,2.06-.15,2.6-1.06q.165-2.145.42-4.26c.28-2.39.63-4.77,1.03-7.14l.06-.51a1.121,1.121,0,0,0-.63-.34c.94-.6,1.87-1.21,2.79-1.84.64-.52,1.48-.85,1.77-1.4q2.475-1.275,4.96-2.52c2.4-1.18,4.64-2.64,6.92-4.02,4.36-2.54,8.49-5.44,12.64-8.31,3.58-2.47,7.25-4.82,10.89-7.2,3.35-2.24,6.96-4.05,10.31-6.28,3.27-2.2,6.5-4.47,9.79-6.65,2.75-1.88,5.59-3.62,8.3-5.56.93-.67,1.82-1.38,2.69-2.12,1.43-.97,2.83-2,4.23-3.01,1.88-1.37,3.77-2.74,5.54-4.27a123.592,123.592,0,0,0,12.48-11.95,7.877,7.877,0,0,0,.94-1.15.872.872,0,0,0,.02-.69c.91-1.16,1.81-2.31,2.73-3.48.35-.41.7-.83,1.04-1.25,1.28-1.2,2.52-2.43,3.68-3.74a50.41,50.41,0,0,0,3.29-4.01c.07-.1.25-.34.29-.39a.855.855,0,0,0,.21-.57.914.914,0,0,0-.26-.62ZM160.86,223.18c-1.04.25-2.09.49-3.13.72,1.01-.42,2.01-.89,2.99-1.38a.935.935,0,0,0,.3.43,1.071,1.071,0,0,0-.15.22Zm27.35-14.57c-.65.44-3.88,2.73-5.48,3.65-2.21,1.23-4.44,2.34-6.7,3.42,1.78-1,3.55-2.03,5.28-3.11,2.47-1.47,4.97-2.89,7.43-4.37q-.255.21-.54.42Z"/>
      </g>
      <g id="Group_72" data-name="Group 72">
        <g id="Group_70" data-name="Group 70" opacity="0.13">
          <path id="Path_174" data-name="Path 174" d="M172.58,190.53a.664.664,0,0,1-.07.03C172.84,190.42,172.75,190.46,172.58,190.53Z"/>
        </g>
        <g id="Group_71" data-name="Group 71" opacity="0.13">
          <path id="Path_175" data-name="Path 175" d="M179.04,177.16a.909.909,0,0,0-.66.87,4.949,4.949,0,0,1,0,.77.984.984,0,0,1-.02.17,18.778,18.778,0,0,1-1.06,3.9c-2.83,5.76-7.87,7.1-13.66,5.56-.53-.15-1.09-.51-1.62-.16a1.1,1.1,0,0,0,0,1.89,17.543,17.543,0,0,0,6.5,1.19,11.183,11.183,0,0,0,3.88-.74c.06-.03.13-.06.18-.08a13.439,13.439,0,0,0,5.97-5.54,12.4,12.4,0,0,0,1.51-4.71c.11-1.01.68-3.36-1.02-3.12Z"/>
        </g>
      </g>
      <g id="Group_73" data-name="Group 73" opacity="0.13">
        <path id="Path_176" data-name="Path 176" d="M237.32,141.52a1.037,1.037,0,1,0-2.07.11,13.052,13.052,0,0,1-.64,3.14l-.03.09c-.29.64-.61,1.26-.93,1.89a12.113,12.113,0,0,1-3.95,4.66,11.292,11.292,0,0,1-1.33.91,30.443,30.443,0,0,1-2.75,1.42c.74-.29-.87.32-1.2.37a15.455,15.455,0,0,1-2.5.52,13.521,13.521,0,0,1-2.62-.1c-.44-.06-.91-.23-1.32.03a1.074,1.074,0,0,0,.26,1.95,20.253,20.253,0,0,0,4.53.39.34.34,0,0,0,.1-.01.877.877,0,0,0,.82.5,12.564,12.564,0,0,0,4.9-.77,18.287,18.287,0,0,0,2.83-1.67,9.939,9.939,0,0,0,3.15-3.04c.28-.48.86-.94.7-1.55a.736.736,0,0,0-.38-.49,16.59,16.59,0,0,0,1.95-4.18,9.721,9.721,0,0,0,.3-1.61c-.05.37-.04.27,0-.03a12.535,12.535,0,0,0,.19-2.52Z"/>
      </g>
      <g id="Group_74" data-name="Group 74" opacity="0.13">
        <path id="Path_177" data-name="Path 177" d="M142.2,218.3a1.019,1.019,0,0,0-.73.07,3.366,3.366,0,0,0-1.1.45c-.76.41-1.51.82-2.23,1.29a49.157,49.157,0,0,0-7.47,6.27A28.748,28.748,0,0,0,126.6,231a1.46,1.46,0,0,0,.02,1.57,1.2,1.2,0,0,0,.41.51c.12.08.36.25.46.32h.01c.1.1.26.27.33.35.46.63.58,1.52,1.28,1.96a1.532,1.532,0,0,0,1.93-.53,1.888,1.888,0,0,0,.18-.41c.03-.07.09-.2.14-.31a33.128,33.128,0,0,1,1.74-3.28,33.683,33.683,0,0,1,7.42-9.25c.86-.79,2-1.61,2.25-1.92a1.092,1.092,0,0,0-.56-1.71Z"/>
      </g>
    </g>
    <g id="Group_78" data-name="Group 78">
      <g id="Group_76" data-name="Group 76">
        <path id="Path_178" data-name="Path 178" d="M38.94,84.71c17.29,1.94,34.75,1.8,52.15,1.34,4.2-.11,8.74-.37,11.97-3.08,4.64-3.9,4.09-12.27-.83-15.79s-12.66-1.61-15.71,3.65A13.343,13.343,0,0,0,75.27,57.27,13.3,13.3,0,0,0,61.14,67.76c-.32-4.38-6.48-6.34-10.11-3.91s-4.76,7.4-4.2,11.75c-1.58-4.18-8.12-4.74-10.97-1.31s-2,9.85,3.09,10.42Z" fill="#fff"/>
        <path id="Path_179" data-name="Path 179" d="M58.33,86.58c-6.61-.24-13.02-.68-19.44-1.4a5.434,5.434,0,0,1-4.61-3.5,7.909,7.909,0,0,1,1.21-7.69,7.376,7.376,0,0,1,6.84-2.3,6.657,6.657,0,0,1,3.89,2.04c-.05-3.75,1.1-7.97,4.54-10.27a7.739,7.739,0,0,1,7.48-.33,6.012,6.012,0,0,1,2.89,2.8c1.97-5.71,8.18-9.85,14.19-9.12,6.1.74,11.22,6.39,11.65,12.52a11.937,11.937,0,0,1,6.85-4.13,10.96,10.96,0,0,1,8.68,1.6,10.687,10.687,0,0,1,4.21,8.34,10,10,0,0,1-3.35,8.2c-3.25,2.73-7.65,3.06-12.26,3.19-11.85.32-22.54.44-32.77.07ZM38.99,84.24C55.3,86.07,71.6,86.1,91.07,85.57c4.43-.12,8.66-.44,11.67-2.97a9.1,9.1,0,0,0,3.01-7.44,9.777,9.777,0,0,0-3.82-7.61A10.009,10.009,0,0,0,94,66.1a10.712,10.712,0,0,0-7.1,4.95.468.468,0,0,1-.87-.27A12.872,12.872,0,0,0,75.2,57.72a12.851,12.851,0,0,0-13.61,10.1.474.474,0,0,1-.94-.05,4.679,4.679,0,0,0-2.84-3.82,6.758,6.758,0,0,0-6.54.27c-3.7,2.48-4.46,7.64-4,11.3a.473.473,0,0,1-.35.52.465.465,0,0,1-.55-.29,5.177,5.177,0,0,0-4.2-3.15,6.4,6.4,0,0,0-5.96,1.98,6.9,6.9,0,0,0-1.06,6.73A4.529,4.529,0,0,0,39,84.23Z"/>
      </g>
      <g id="Group_77" data-name="Group 77" opacity="0.13">
        <path id="Path_180" data-name="Path 180" d="M104.24,80.93a1.045,1.045,0,0,0-1-.95,1.962,1.962,0,0,0-1.02.4,11.11,11.11,0,0,1-1.2.59,18.9,18.9,0,0,1-4.55,1.22c-.15.01-.3.03-.44.04.64-.06.06-.01-.27-.02-7.16-.19-14.31.32-21.47.33-3.27,0-6.54.13-9.81.13-5.43-.07-10.86-.12-16.29-.18-1.37-.07-2.74-.12-4.11-.27-2.26-.28-4.5-.71-6.77-.85a1.321,1.321,0,0,0-.1,2.64c3.48.32,3.78.71,8.17,1.23,3.38.37,6.79.25,10.18.38,3.42.11,6.83.27,10.25.38,2.79.05,5.59,0,8.38.01h.28c3.87.22,7.74.23,11.61.17,1.66-.05,3.32.03,4.97,0,1.48-.07,2-.17,2.96-.24a16.4,16.4,0,0,0,5.6-1,4.9,4.9,0,0,0,1.55-.86.779.779,0,0,0,.21-.61,10.924,10.924,0,0,0,1.52-.88c.18-.13.7-.5.25-.18a8,8,0,0,0,.65-.5,1.014,1.014,0,0,0,.44-.97Z"/>
      </g>
    </g>
  </g>
</svg>
